<ttFont>
          <CharString index="0">
            rmoveto
            -74 callgsubr
            43 -164 rlineto
            -18 callgsubr
            17 hlineto
            25 12 7 10 4 -1 4 -2 5 hvcurveto
            -181 655 rlineto
            13 -3 -13 6 -24 hhcurveto
            -32 hlineto
            -23 -13 -6 -13 -4 hvcurveto
            -181 -655 rlineto
            -17 callgsubr
            -10 11 -7 26 vhcurveto
            117 256 rmoveto
            return
          </CharString>
          <CharString index="1">
            rmoveto
            -106 callgsubr
            return
          </CharString>
          <CharString index="2">
            rmoveto
            15 hlineto
            20 12 7 15 9 hvcurveto
            54 88 rlineto
            3 6 3 6 5 vvcurveto
            9 -7 6 -12 vhcurveto
            -20 hlineto
            -11 -8 -5 -10 -6 hvcurveto
            -45 -72 -44 72 rlineto
            10 -7 -8 5 -11 hhcurveto
            -19 hlineto
            -12 -7 -6 -8 -5 4 -8 3 -5 hvcurveto
            52 -88 rlineto
            -15 9 14 -7 19 hhcurveto
            return
          </CharString>
          <CharString index="3">
            -27 6 7 -32 22 hhcurveto
            13 41 4 19 hvcurveto
            5 -12 39 82 vvcurveto
            230 vlineto
            95 -63 56 -107 -86 -79 -33 -26 -11 21 -38 14 vhcurveto
            11 43 36 75 hhcurveto
            65 22 -37 -41 hvcurveto
            -47 vlineto
            -122 -2 -147 -19 -162 vvcurveto
            return
          </CharString>
          <CharString index="4">
            58 callgsubr
            249 hlineto
            12 21 29 12 170 -59 91 -116 -130 -67 -94 -177 -179 68 -85 141 hvcurveto
            -119 305 rmoveto
            105 5 34 53 65 hhcurveto
            59 30 -53 -105 hvcurveto
            return
          </CharString>
          <CharString index="5">
            rmoveto
            -103 callgsubr
          </CharString>
          <CharString index="6">
            rmoveto
            61 55 38 77 10 -6 5 -12 -13 -1 -9 -16 -6 hvcurveto
            -28 -11 -27 -11 -40 hhcurveto
            -40 -27 11 28 -11 hvcurveto
            16 -7 -1 9 -13 hhcurveto
            -12 -6 -5 -10 -77 55 -38 62 hvcurveto
            return
          </CharString>
          <CharString index="7">
            rmoveto
            16 5 3 7 10 -11 21 -37 80 hvcurveto
            19 -10 -19 7 -28 hhcurveto
            -28 -14 -3 -10 -11 7 -9 72 -96 hvcurveto
            -12 8 15 -6 24 hhcurveto
            return
          </CharString>
          <CharString index="8">
            -103 callsubr
            endchar
          </CharString>
          <CharString index="9">
            rmoveto
            -4 hlineto
            -28 -12 -8 -14 hvcurveto
            -366 vlineto
            -45 -24 -34 -25 -36 hhcurveto
            -48 -26 33 58 hvcurveto
            345 -91 callgsubr
            -353 vlineto
            -95 40 -62 88 49 44 23 49 32 vhcurveto
            -32 vlineto
            -121 -37 -52 -71 vhcurveto
            -80 -46 46 -12 hhcurveto
            -10 -3 -22 -18 -8 2 -10 4 -8 hvcurveto
            -22 12 62 -31 76 hhcurveto
            129 57 78 200 hvcurveto
            438 -50 callsubr
            -28 vhcurveto
            return
          </CharString>
          <CharString index="10">
            -125 -68 -97 -173 -172 67 -93 126 hvcurveto
            -2 72 rmoveto
            -71 -31 62 133 134 31 62 71 71 33 -63 -133 -133 -33 -62 -71 hvcurveto
            return
          </CharString>
          <CharString index="11">
            762 -106 callsubr
            return
          </CharString>
          <CharString index="12">
            rmoveto
            119 89 71 128 117 -77 42 -79 40 hvcurveto
            -72 37 -45 30 65 vvcurveto
            73 55 34 59 35 34 -7 -12 24 vhcurveto
            -2 4 5 -3 4 hhcurveto
            13 15 46 15 3 0 5 -7 4 hvcurveto
            20 -34 -42 10 -46 hhcurveto
            -120 -87 -73 -123 -117 82 -42 87 -43 hvcurveto
            56 -28 47 -29 -69 vvcurveto
            -71 -49 -42 -67 -59 -47 17 26 -33 vhcurveto
            1 -2 -2 3 -5 hhcurveto
            -15 -8 -37 -20 -14 4 -4 7 -5 hvcurveto
            -30 42 53 -16 62 hhcurveto
            return
          </CharString>
          <CharString index="13">
            rmoveto
            11 -5 callgsubr
            41 20 35 29 37 hhcurveto
            48 23 -33 -58 hvcurveto
            -345 vlineto
            -14 12 -8 27 vhcurveto
            10 30 callgsubr
            353 vlineto
            97 -47 59 -83 -50 -46 -28 -47 -30 vhcurveto
            32 -6 -1 36 -25 hhcurveto
            -11 -47 -5 -18 hvcurveto
            -6 10 -38 -82 vvcurveto
            -353 25 callsubr
            return
          </CharString>
          <CharString index="14">
            585 -106 callsubr
            return
          </CharString>
          <CharString index="15">
            61 295 5 25 7 37 3 27 rlinecurve
            4 hlineto
            3 -27 7 -37 5 -25 60 -295 rcurveline
            -12 2 15 -4 19 hhcurveto
            34 hlineto
            20 14 4 12 2 hvcurveto
            107 477 rlineto
            1 6 1 7 4 vvcurveto
            10 -12 7 -27 -27 -17 -4 -12 -2 vhcurveto
            -55 -319 -5 -29 -10 -44 -5 -32 rlinecurve
            -5 hlineto
            -4 31 -8 35 -8 40 -62 317 rcurveline
            13 -3 -13 4 -20 hhcurveto
            -19 hlineto
            -19 -13 -4 -13 -3 hvcurveto
            -61 -317 -6 -30 -10 -46 -4 -31 rlinecurve
            -5 hlineto
            -5 32 -10 48 -5 26 -56 319 rcurveline
            12 -2 -16 4 -28 hhcurveto
            -29 -12 -7 -10 -4 2 -10 1 -6 hvcurveto
            106 -474 rlineto
            return
          </CharString>
          <CharString index="16">
            -13 callgsubr
            39 -74 rlineto
            -9 6 10 -4 10 86 callsubr
            8 6 9 5 -4 123 callsubr
            -48 88 rlineto
            15 -8 -13 7 -20 hhcurveto
            -16 hlineto
            -18 -15 -7 -15 -8 -9 callgsubr
            6 -6 13 vhcurveto
            return
          </CharString>
          <CharString index="17">
            389 hlineto
            13 6 10 24 hvcurveto
            8 vlineto
            24 -6 10 -13 vhcurveto
            -301 hlineto
            319 559 rlineto
            1 3 0 4 5 vvcurveto
            21 -13 32 -9 vhcurveto
            -366 hlineto
            -13 -5 -10 -24 hvcurveto
            -8 vlineto
            -24 5 -10 13 vhcurveto
            279 hlineto
            -321 -559 rlineto
            -1 -3 -1 -4 -5 vvcurveto
            -20 13 -33 11 vhcurveto
            return
          </CharString>
          <CharString index="18">
            -90 callgsubr
            endchar
          </CharString>
          <CharString index="19">
            -35 -50 40 -42 hhcurveto
            -37 -26 -18 -51 -20 hvcurveto
            -2 -21 callgsubr
            3 -4 7 -3 vhcurveto
            return
          </CharString>
          <CharString index="20">
            -764 -107 callsubr
            return
          </CharString>
          <CharString index="21">
            -29 callsubr
            -64 callsubr
            -14 12 -8 28 vhcurveto
            return
          </CharString>
          <CharString index="22">
            85 69 57 92 84 -42 41 -77 35 hvcurveto
            -41 21 -34 26 50 vvcurveto
            40 31 21 37 vhcurveto
            42 27 -25 6 hhcurveto
            11 20 39 15 23 -57 20 -54 -84 -63 -57 -85 -75 39 -39 69 -31 hvcurveto
            55 -27 33 -28 -50 vvcurveto
            -49 -28 -24 -48 vhcurveto
            -56 -34 39 -8 hhcurveto
            -11 -23 -37 -14 return
          </CharString>
          <CharString index="23">
            rmoveto
            199 6 callgsubr
            10 -46 callgsubr
            -199 hlineto
            -13 -6 -9 -21 hvcurveto
            -10 -60 callgsubr
            return
          </CharString>
          <CharString index="24">
            rmoveto
            24 15 6 12 9 hvcurveto
            70 97 8 8 -25 callgsubr
            128 hmoveto
            25 14 6 12 9 hvcurveto
            73 95 5 10 -25 callgsubr
            return
          </CharString>
          <CharString index="25">
            15 66 callsubr
            660 -74 callsubr
            return
          </CharString>
          <CharString index="26">
            -21 -10 -4 callsubr
            -3 15 vhcurveto
            return
          </CharString>
          <CharString index="27">
            rmoveto
            22 14 7 11 6 hvcurveto
            39 78 15 30 7 vvcurveto
            10 -12 4 -28 -27 -25 -4 -22 -6 vhcurveto
            -20 -81 -5 -21 -9 -4 callsubr
            -3 21 vhcurveto
            return
          </CharString>
          <CharString index="28">
            -33 6 1 -35 25 hhcurveto
            11 47 4 18 hvcurveto
            6 -10 39 82 vvcurveto
            353 -81 callgsubr
            return
          </CharString>
          <CharString index="29">
            rmoveto
            -148 hlineto
            -14 42 callgsubr
            14 vhcurveto
            85 -223 hlineto
            -8 -22 -30 -5 -37 hhcurveto
            -124 -39 130 153 172 45 102 125 hvcurveto
            76 37 -41 10 hhcurveto
            14 22 41 17 27 -84 35 -76 -171 -91 -113 -249 -238 87 -112 166 79 103 16 56 hvcurveto
            286 vlineto
            21 -9 9 -18 vhcurveto
            return
          </CharString>
          <CharString index="30">
            vlineto
            -71 callgsubr
            return
          </CharString>
          <CharString index="31">
            rmoveto
            40 68 callgsubr
            2 hvcurveto
            88 421 16 125 16 -125 88 -421 rlineto
            -12 2 15 -4 19 hhcurveto
            40 68 callgsubr
            2 hvcurveto
            140 657 rlineto
            1 5 1 5 2 vvcurveto
            12 -11 7 -29 vhcurveto
            -11 hlineto
            -22 -16 -4 -12 -2 hvcurveto
            -89 -483 rlineto
            hintmask 10110000
            -9 -50 -3 -21 -7 -40 -3 24 -6 49 -8 39 -94 481 rcurveline
            13 -3 -14 4 -19 hhcurveto
            -20 hlineto
            -19 -14 -4 -13 -3 hvcurveto
            -93 -479 -7 -38 -6 -38 -7 -38 rlinecurve
            -4 29 -3 34 -9 48 -92 483 rcurveline
            12 -2 -15 4 -22 hhcurveto
            -13 hlineto
            -29 -11 -7 -12 -3 1 -4 1 -5 hvcurveto
            139 -657 rlineto
            hintmask 01110000
            -12 2 15 -4 19 hhcurveto
            endchar
          </CharString>
          <CharString index="32">
            -91 callsubr
            -112 -755 -107 callsubr
            return
          </CharString>
          <CharString index="33">
            -11 callsubr
            -15 -83 callgsubr
            return
          </CharString>
          <CharString index="34">
            -72 callgsubr
            endchar
          </CharString>
          <CharString index="35">
            -70 callsubr
            -49 -65 callsubr
          </CharString>
          <CharString index="36">
            -29 -61 callgsubr
            143 80 75 126 vhcurveto
            476 vlineto
            return
          </CharString>
          <CharString index="37">
            rmoveto
            19 hlineto
            10 9 1 12 7 hvcurveto
            38 74 40 -74 rlineto
            -9 5 11 -4 9 hhcurveto
            20 hlineto
            12 7 -32 callsubr
            -4 6 hvcurveto
            -47 88 rlineto
            15 -9 -13 7 -19 hhcurveto
            -16 hlineto
            -18 -15 -7 -15 -9 124 callgsubr
            -2 -6 -3 -8 -5 vvcurveto
            -7 7 -6 12 vhcurveto
            return
          </CharString>
          <CharString index="38">
            rmoveto
            -79 callgsubr
            return
          </CharString>
          <CharString index="39">
            rmoveto
            50 34 33 51 51 -34 34 -50 -49 -34 -34 -51 -51 34 -33 49 hvcurveto
            35 vmoveto
            -30 -16 18 31 -1 hvcurveto
            31 1 16 19 30 hhcurveto
            30 17 -19 -31 -31 -17 -18 -30 hvcurveto
            return
          </CharString>
          <CharString index="40">
            rmoveto
            -82 callsubr
            return
          </CharString>
          <CharString index="41">
            vlineto
            -76 callgsubr
            return
          </CharString>
          <CharString index="42">
            -753 -102 callsubr
          </CharString>
          <CharString index="43">
            483 -91 callgsubr
            -483 vlineto
            return
          </CharString>
          <CharString index="44">
            18 -73 callgsubr
            66 -55 callsubr
            -18 -92 callgsubr
            -66 -77 callsubr
            return
          </CharString>
          <CharString index="45">
            -92 callgsubr
            -93 callgsubr
            return
          </CharString>
          <CharString index="46">
            -64 callgsubr
            11 callgsubr
            hvcurveto
            -129 vlineto
            -18 callsubr
            return
          </CharString>
          <CharString index="47" raw="1">
            1fbe0799 0b  
          </CharString>
          <CharString index="48">
            56 19 7 22 vhcurveto
            22 6 -6 8 hhcurveto
            15 7 39 8 21 -39 10 -30 -42 -72 -17 -110 hvcurveto
            -106 -29 vlineto
            -14 -23 callgsubr
            14 vhcurveto
            29 return
          </CharString>
          <CharString index="49">
            -61 10 -63 0 53 vvcurveto
            43 33 20 46 2 vhcurveto
            100 4 55 70 98 vvcurveto
            36 -8 33 -15 27 vhcurveto
            2 2 rlineto
            -2 15 15 0 25 hhcurveto
            14 6 8 20 hvcurveto
            12 vlineto
            20 -6 9 -14 vhcurveto
            -150 hlineto
            return
          </CharString>
          <CharString index="50">
            -67 callsubr
            endchar
          </CharString>
          <CharString index="51">
            rmoveto
            126 50 85 126 hvcurveto
            475 -50 callsubr
            -27 vhcurveto
            -14 hlineto
            -26 -12 -8 -14 hvcurveto
            -485 vlineto
            -86 -28 -37 -67 vhcurveto
            -26 -23 9 -8 hhcurveto
            -13 -10 -42 -13 -22 54 -10 36 hvcurveto
            endchar
          </CharString>
          <CharString index="52">
            -37 callgsubr
            vhcurveto
            return
          </CharString>
          <CharString index="53">
            -21 180 76 335 113 0 -20 return
          </CharString>
          <CharString index="54">
            -5 -1 -4 -4 vvcurveto
            return
          </CharString>
          <CharString index="55">
            -146 -13 callgsubr
            40 -74 rlineto
            -9 5 11 -4 9 86 callsubr
            8 -32 callsubr
            -4 6 hvcurveto
            -48 88 rlineto
            15 -8 -13 7 108 callsubr
            -14 -7 -15 -9 -9 callgsubr
            7 -6 12 vhcurveto
            58 -582 10 callgsubr
            hintmask 01111110
            -104 callsubr
            hintmask 10111110
            -39 callgsubr
          </CharString>
          <CharString index="56">
            rmoveto
            6 21 10 12 14 hvcurveto
            17 14 18 19 31 vvcurveto
            52 -52 16 -34 -35 -43 -15 113 callgsubr
            5 10 13 31 hhcurveto
            20 17 -9 -18 -14 -11 -12 -20 -11 hvcurveto
            -16 -9 -9 -5 -8 vvcurveto
            -9 16 -11 21 vhcurveto
            return
          </CharString>
          <CharString index="57">
            vlineto
            14 -12 8 return
          </CharString>
          <CharString index="58">
            -6 -9 -21 hvcurveto
            return
          </CharString>
          <CharString index="59">
            rmoveto
            10 -5 callgsubr
            23 7 35 47 51 hhcurveto
            48 23 -34 -57 hvcurveto
            -345 -77 callsubr
            10 -73 callgsubr
            353 vlineto
            112 -61 44 -67 -52 -43 -28 -39 -27 vhcurveto
            268 52 callsubr
            -710 -77 callsubr
            return
          </CharString>
          <CharString index="60">
            -2 rmoveto
            12 128 callgsubr
            12 6 hvcurveto
            312 671 rlineto
            1 4 2 3 3 vvcurveto
            5 -4 2 -9 vhcurveto
            -12 hlineto
            -12 -10 -4 -13 -5 hvcurveto
            -312 -671 rlineto
            -2 -4 -2 -4 -2 vvcurveto
            -5 5 -2 8 vhcurveto
            return
          </CharString>
          <CharString index="61">
            rmoveto
            201 hlineto
            8 3 5 12 hvcurveto
            7 vlineto
            12 -3 5 -8 vhcurveto
            -149 hlineto
            78 116 rlineto
            66 87 14 24 42 vvcurveto
            60 -46 37 -66 -41 -58 -21 -22 -9 13 -20 6 vhcurveto
            9 20 30 49 hhcurveto
            40 25 -22 -37 -24 -8 -15 -27 -39 hvcurveto
            -135 -193 rlineto
            -2 -2 0 -4 -4 vvcurveto
            -11 4 -14 7 vhcurveto
            return
          </CharString>
          <CharString index="62">
            90 vstem
            155 753 -107 callgsubr
            -50 -753 rmoveto
            -104 callgsubr
            return
          </CharString>
          <CharString index="63">
            89 vstem
            141 576 -107 callgsubr
            115 -582 -103 callsubr
            return
          </CharString>
          <CharString index="64">
            31 13 29 24 47 vvcurveto
            63 -43 36 -69 -34 -55 -13 -18 -8 12 -22 7 vhcurveto
            8 18 19 42 hhcurveto
            53 12 -33 -23 -27 -17 -49 -56 hvcurveto
            -21 hlineto
            -8 -4 -5 -12 hvcurveto
            -6 vlineto
            -13 4 -5 8 vhcurveto
            return
          </CharString>
          <CharString index="65">
            hmoveto
            -90 callsubr
            return
          </CharString>
          <CharString index="66">
            -146 -70 callsubr
            116 -40 callsubr
          </CharString>
          <CharString index="67">
            -582 -99 callsubr
          </CharString>
          <CharString index="68">
            16 callgsubr
            12 -9 callsubr
            return
          </CharString>
          <CharString index="69">
            rmoveto
            14 hlineto
            17 12 5 11 4 hvcurveto
            63 164 rlineto
            216 hlineto
            22 -149 rlineto
            -20 3 9 -9 17 hhcurveto
            243 hlineto
            13 6 9 21 hvcurveto
            16 4 callsubr
            -192 hlineto
            -38 244 rlineto
            206 hlineto
            13 6 9 21 hvcurveto
            16 4 callsubr
            -218 hlineto
            -35 228 rlineto
            276 hlineto
            13 6 9 21 hvcurveto
            16 4 callsubr
            -362 hlineto
            -17 -10 -8 -19 -8 hvcurveto
            -256 -642 rlineto
            -3 -6 -1 -6 -4 vvcurveto
            -11 11 -6 27 vhcurveto
            142 255 rmoveto
            107 273 19 58 rlineto
            2 hlineto
            2 -58 41 -273 rlineto
            endchar
          </CharString>
          <CharString index="70">
            65 121 64 vstem
            174 381 rmoveto
            57 68 27 134 135 -67 29 -58 -60 -65 -29 -135 -134 68 -27 57 hvcurveto
            7 -388 rmoveto
            16 hlineto
            16 11 5 14 6 hvcurveto
            294 675 rlineto
            1 4 2 3 3 vvcurveto
            5 -6 4 -12 vhcurveto
            -15 hlineto
            -16 -12 -5 -14 -5 hvcurveto
            -293 -671 rlineto
            -4 -8 -1 -3 -3 vvcurveto
            -5 7 -4 11 vhcurveto
            -6 444 rmoveto
            -53 -7 59 46 46 6 63 54 54 6 -63 -46 -46 -8 -59 -52 hvcurveto
            337 -442 rmoveto
            57 68 27 134 135 -68 29 -57 -60 -65 -29 -135 -134 68 -27 57 hvcurveto
            return
          </CharString>
          <CharString index="71">
            -32 -45 40 -39 hhcurveto
            -33 -24 -18 -51 -18 hvcurveto
            -2 -21 callgsubr
            3 -4 6 -3 vhcurveto
            return
          </CharString>
          <CharString index="72">
            -161 -89 -111 -243 return
          </CharString>
          <CharString index="73">
            -1 callsubr
            90 -759 -100 callgsubr
            endchar
          </CharString>
          <CharString index="74">
            14 12 13 17 17 -12 -42 callgsubr
            return
          </CharString>
          <CharString index="75">
            6 9 5 -3 6 return
          </CharString>
          <CharString index="76">
            6 7 3 9 6 hvcurveto
            103 156 rlineto
            7 11 4 8 0 9 0 9 -4 8 11 flex1
            -103 156 rlineto
            9 -6 -7 3 -6 hhcurveto
            -12 -28 -13 -17 -6 3 -7 4 -7 hvcurveto
            93 -146 -93 -147 rlineto
            -4 -6 -3 -7 -6 vvcurveto
            -15 26 -15 14 vhcurveto
            return
          </CharString>
          <CharString index="77">
            13 26 15 15 6 -3 7 -4 6 hvcurveto
            -92 147 92 146 rlineto
            4 7 3 7 6 vvcurveto
            17 -27 13 -12 -7 -7 -3 -9 -6 vhcurveto
            -103 -156 rlineto
            -7 -11 -4 -8 0 -9 0 -9 4 -8 -11 flex1
            103 -156 rlineto
            -9 6 7 -3 7 hhcurveto
            return
          </CharString>
          <CharString index="78">
            rmoveto
            -38 callgsubr
            return
          </CharString>
          <CharString index="79">
            rmoveto
            -63 callsubr
            return
          </CharString>
          <CharString index="80">
            79 125 callgsubr
            91 263 92 vstem
            273 700 rmoveto
            -168 hlineto
            -19 -8 -9 -21 hvcurveto
            -274 -49 vlineto
            110 callgsubr
            49 -290 hlineto
            -27 callgsubr
            168 hlineto
            148 103 90 260 259 -103 91 -148 hvcurveto
            -2 -624 rmoveto
            -102 244 71 hlineto
            13 6 9 21 hvcurveto
            16 4 callsubr
            -71 228 102 hlineto
            94 67 -75 -199 -200 -67 -74 -94 hvcurveto
            endchar
          </CharString>
          <CharString index="81">
            -98 -20 -46 -27 -32 hhcurveto
            -70 -17 96 98 110 24 79 81 40 26 -23 -16 17 hvcurveto
            -1 -16 -2 -16 -18 vvcurveto
            endchar
          </CharString>
          <CharString index="82">
            379 vlineto
            7 -9 5 -7 vhcurveto
            -101 -26 rlineto
            -6 -2 -3 -3 -6 vvcurveto
            -11 3 -19 9 vhcurveto
            64 14 rlineto
            -338 vlineto
            return
          </CharString>
          <CharString index="83">
            -86 callgsubr
            endchar
          </CharString>
          <CharString index="84">
            rmoveto
            -59 -30 74 124 124 32 66 66 32 29 -15 -30 23 hvcurveto
            -274 vlineto
            -44 -26 -34 -25 -33 hhcurveto
            return
          </CharString>
          <CharString index="85">
            125 65 92 173 return
          </CharString>
          <CharString index="86">
            vstem
            496 28 rmoveto
            -234 329 215 312 rlineto
            6 8 3 7 5 vvcurveto
            7 -11 6 -24 vhcurveto
            -17 hlineto
            -20 -19 -2 -12 -8 hvcurveto
            -212 -320 rlineto
            -3 312 hlineto
            14 -12 8 -27 vhcurveto
            -13 -83 callgsubr
            13 hlineto
            27 -15 callgsubr
            317 3 vlineto
            219 -326 rlineto
            -13 9 19 0 20 hhcurveto
            21 hlineto
            28 12 3 11 4 -1 4 -6 8 hvcurveto
            return
          </CharString>
          <CharString index="87">
            -397 vmoveto
            -49 -63 11 64 40 23 25 29 15 hvcurveto
            63 -21 107 18 -78 vvcurveto
            -49 -35 -25 -75 vhcurveto
            endchar
          </CharString>
          <CharString index="88">
            76 244 45 callsubr
            return
          </CharString>
          <CharString index="89">
            -36 -26 -36 -21 -44 hhcurveto
            return
          </CharString>
          <CharString index="90">
            56 41 24 40 33 hvcurveto
            return
          </CharString>
          <CharString index="91">
            -33 6 1 -35 25 hhcurveto
            11 47 4 18 hvcurveto
            6 -10 39 82 vvcurveto
            342 vlineto
            return
          </CharString>
          <CharString index="92">
            13 hlineto
            12 6 4 9 hvcurveto
            85 32 vlineto
            8 3 5 12 hvcurveto
            7 vlineto
            12 -3 5 -8 vhcurveto
            -32 255 hlineto
            8 -6 5 -12 vhcurveto
            -11 hlineto
            -8 -9 -3 -5 -3 hvcurveto
            -155 -266 rlineto
            -1 -1 -2 -3 vvcurveto
            -11 7 -18 7 vhcurveto
            143 -85 hlineto
            -9 5 -4 12 vhcurveto
            -122 139 rmoveto
            107 187 3 -1 rlineto
            -3 -18 -2 -18 -34 vvcurveto
            -116 vlineto
            endchar
          </CharString>
          <CharString index="93">
            6 -48 callgsubr
            return
          </CharString>
          <CharString index="94">
            0 68 541 101 hstem
            33 514 vstem
            58 hmoveto
            463 hlineto
            17 9 11 19 hvcurveto
            3 vlineto
            12 -3 10 -3 12 vhcurveto
            -205 620 rlineto
            16 -6 -10 7 -14 hhcurveto
            -31 hlineto
            -15 -10 -7 -16 -5 hvcurveto
            -205 -620 rlineto
            -5 -14 -2 -9 -14 vvcurveto
            -2 vlineto
            -18 10 -10 15 vhcurveto
            61 68 rmoveto
            167 541 rlineto
            6 hlineto
            166 -541 rlineto
            endchar
          </CharString>
          <CharString index="95">
            24 49 56 90 17 -15 11 -25 hvcurveto
            -9 hlineto
            -27 -13 -13 -19 hvcurveto
            -71 -13 -35 -21 vvcurveto
            return
          </CharString>
          <CharString index="96">
            -36 callgsubr
            -26 vhcurveto
            return
          </CharString>
          <CharString index="97">
            90 vstem
            116 -2 rmoveto
            15 66 callsubr
            301 263 -301 vlineto
            19 callsubr
            660 -66 callsubr
            -283 -263 283 -74 callsubr
            return
          </CharString>
          <CharString index="98">
            -5 callsubr
            -14 vhcurveto
            return
          </CharString>
          <CharString index="99">
            rmoveto
            26 callgsubr
            12 79 50 66 55 -57 16 -34 -35 -43 -18 113 callgsubr
            return
          </CharString>
          <CharString index="100">
            -9 -17 -7 -14 hhcurveto
            -22 -28 5 38 return
          </CharString>
          <CharString index="101">
            -41 6 callsubr
            return
          </CharString>
          <CharString index="102">
            vlineto
            21 -6 9 return
          </CharString>
          <CharString index="103">
            vvcurveto
            -7 6 return
          </CharString>
          <CharString index="104">
            vstem
            210 753 -107 callgsubr
            return
          </CharString>
          <CharString index="105">
            8 10 vvcurveto
            10 -9 3 -22 -24 -21 -7 -19 -9 vhcurveto
            -34 -73 -8 -19 -9 vvcurveto
            -7 7 -3 16 vhcurveto
            return
          </CharString>
          <CharString index="106">
            -96 -91 callsubr
            return
          </CharString>
          <CharString index="107">
            rmoveto
            16 7 3 7 9 -7 19 -31 73 hvcurveto
            19 -8 -22 7 -23 hhcurveto
            -24 -8 -3 -10 -10 7 -8 57 -88 hvcurveto
            -12 8 12 -6 16 hhcurveto
            return
          </CharString>
          <CharString index="108">
            rmoveto
            14 11 13 17 17 -11 -42 callgsubr
            return
          </CharString>
          <CharString index="109">
            9 hlineto
            27 13 13 19 62 11 47 23 44 hvcurveto
            4 8 5 10 6 vvcurveto
            12 -18 3 -11 -33 -70 -76 -120 -17 15 -11 25 vhcurveto
            return
          </CharString>
          <CharString index="110">
            -6 -7 callgsubr
            return
          </CharString>
          <CharString index="111">
            -5 callsubr
            -13 vhcurveto
            return
          </CharString>
          <CharString index="112">
            -18 callsubr
            endchar
          </CharString>
          <CharString index="113">
            0 -19 callsubr
            return
          </CharString>
          <CharString index="114">
            -30 -23 -17 -31 -40 vvcurveto
            -31 12 -26 20 -16 vhcurveto
            -2 vlineto
            return
          </CharString>
          <CharString index="115">
            -35 callsubr
            -29 callgsubr
            return
          </CharString>
          <CharString index="116">
            12 -73 callgsubr
            return
          </CharString>
          <CharString index="117">
            19 24 callgsubr
            return
          </CharString>
          <CharString index="118">
            -242 230 70 hstem
            30 194 vstem
            49 230 rmoveto
            156 28 callsubr
            -156 22 callsubr
          </CharString>
          <CharString index="119">
            -38 callgsubr
            431 67 vlineto
            -39 callsubr
            return
          </CharString>
          <CharString index="120">
            -7 73 -45 -21 524 -20 return
          </CharString>
          <CharString index="121">
            31 callsubr
            hvcurveto
            hintmask 11011100
            58 -49 9 -25 vhcurveto
            15 54 return
          </CharString>
          <CharString index="122">
            13 -14 callsubr
            return
          </CharString>
          <CharString index="123">
            32 46 -40 77 callsubr
            18 38 callsubr
            return
          </CharString>
          <CharString index="124">
            -77 callsubr
            133 276 rmoveto
            -33 -29 15 30 -23 hvcurveto
            274 vlineto
            44 26 34 25 33 hhcurveto
            59 30 -74 -124 -124 -32 -66 -65 hvcurveto
            endchar
          </CharString>
          <CharString index="125">
            rmoveto
            128 65 53 95 84 -57 26 -75 12 hvcurveto
            return
          </CharString>
          <CharString index="126">
            -71 callgsubr
            14 -73 callgsubr
            return
          </CharString>
          <CharString index="127">
            -213 73 133 74 458 -20 return
          </CharString>
          <CharString index="128">
            -6 57 callgsubr
            return
          </CharString>
          <CharString index="129">
            hlineto
            -13 -6 -9 -21 hvcurveto
            -10 -60 callgsubr
            endchar
          </CharString>
          <CharString index="130">
            49 93 316 92 return
          </CharString>
          <CharString index="131">
            rmoveto
            30 63 76 120 17 -13 11 -25 hvcurveto
            -10 hlineto
            -26 -12 -13 -19 -62 -13 -47 -15 -44 hvcurveto
            -3 -9 -4 -9 -6 31 callgsubr
            vhcurveto
            endchar
          </CharString>
          <CharString index="132">
            vlineto
            -14 11 -8 26 vhcurveto
            return
          </CharString>
          <CharString index="133">
            -236 10 callsubr
            return
          </CharString>
          <CharString index="134">
            101 -6 97 callsubr
            hstemhm
            23 callsubr
            -43 61 hintmask 10111000
            return
          </CharString>
          <CharString index="135">
            67 callgsubr
            10 4 callsubr
            return
          </CharString>
          <CharString index="136">
            vlineto
            -16 callgsubr
            return
          </CharString>
          <CharString index="137">
            85 -6 103 callgsubr
            return
          </CharString>
          <CharString index="138">
            -20 -59 -1 -7 -57 callgsubr
            return
          </CharString>
          <CharString index="139">
            -52 -8 59 46 46 7 63 53 54 7 -63 -46 -46 -10 -59 -51 hvcurveto
            return
          </CharString>
          <CharString index="140">
            -212 65 601 69 -59 59 -59 65 return
          </CharString>
          <CharString index="141">
            11 66 callsubr
            return
          </CharString>
          <CharString index="142">
            -63 callsubr
            endchar
          </CharString>
          <CharString index="143">
            -14 -7 97 callgsubr
            7 -9 14 vhcurveto
            return
          </CharString>
          <CharString index="144">
            hstemhm
            51 88 181 84 return
          </CharString>
          <CharString index="145">
            hvcurveto
            3 -33 callgsubr
            -20 return
          </CharString>
          <CharString index="146">
            -30 -7 73 -45 -21 491 33 107 callsubr
            return
          </CharString>
          <CharString index="147">
            62 callsubr
            hstemhm
            51 88 return
          </CharString>
          <CharString index="148">
            rmoveto
            -6 hlineto
            -28 -4 -21 -29 -7 hvcurveto
            return
          </CharString>
          <CharString index="149">
            254 -2 94 -73 24 callgsubr
            return
          </CharString>
          <CharString index="150">
            -99 -187 -21 733 -20 return
          </CharString>
          <CharString index="151">
            72 161 72 return
          </CharString>
          <CharString index="152">
            76 228 76 return
          </CharString>
          <CharString index="153">
            72 -6 76 601 31 107 callgsubr
            return
          </CharString>
          <CharString index="154">
            -12 18 -3 11 vhcurveto
            return
          </CharString>
          <CharString index="155">
            312 671 rlineto
            2 4 2 3 3 vvcurveto
            5 -4 2 -9 vhcurveto
            -12 hlineto
            -12 -10 -4 -13 -6 hvcurveto
            return
          </CharString>
          <CharString index="156">
            hstemhm
            68 81 callgsubr
            return
          </CharString>
          <CharString index="157">
            -45 -74 43 -50 hhcurveto
            -38 -26 -18 -51 -15 hvcurveto
            -1 -21 callgsubr
            4 -3 7 -4 vhcurveto
            return
          </CharString>
          <CharString index="158">
            79 callsubr
            hstem
            78 90 return
          </CharString>
          <CharString index="159">
            vlineto
            36 callgsubr
            return
          </CharString>
          <CharString index="160">
            -54 callsubr
            71 142 return
          </CharString>
          <CharString index="161">
            23 43 4 25 10 -7 38 -14 return
          </CharString>
          <CharString index="162">
            -6 56 callgsubr
            return
          </CharString>
          <CharString index="163">
            15 -7 9 -13 vhcurveto
            return
          </CharString>
          <CharString index="164">
            -53 60 callgsubr
            return
          </CharString>
          <CharString index="165">
            76 560 76 return
          </CharString>
          <CharString index="166">
            -7 68 callsubr
            return
          </CharString>
          <CharString index="167">
            -6 72 -72 79 160 72 152 72 hstemhm
            51 88 146 90 189 89 hintmask 10111110
            return
          </CharString>
          <CharString index="168">
            hstemhm
            44 71 -52 74 -47 67 161 73 -54 76 return
          </CharString>
          <CharString index="169">
            -7 callgsubr
            47 142 return
          </CharString>
          <CharString index="170">
            -45 callgsubr
            -8 -60 callgsubr
            return
          </CharString>
          <CharString index="171">
            -2 55 callgsubr
            return
          </CharString>
          <CharString index="172">
            122 callsubr
            hintmask 11011100
            return
          </CharString>
          <CharString index="173">
            hlineto
            26 11 8 14 hvcurveto
            return
          </CharString>
          <CharString index="174">
            -6 58 callsubr
            return
          </CharString>
          <CharString index="175">
            46 callgsubr
            65 callsubr
            return
          </CharString>
          <CharString index="176">
            rlineto
            -12 -7 -7 -9 -14 vvcurveto
            -6 vlineto
            -9 4 -5 5 2 4 2 2 4 vhcurveto
            return
          </CharString>
          <CharString index="177">
            rlineto
            12 7 7 9 14 vvcurveto
            6 vlineto
            9 -4 5 -5 -3 -3 -2 -2 -4 vhcurveto
            return
          </CharString>
          <CharString index="178">
            -161 19 -21 449 82 hstem
            83 84 vstem
            return
          </CharString>
          <CharString index="179">
            -20 hstemhm
            47 89 182 86 return
          </CharString>
          <CharString index="180">
            14 -9 8 -21 vhcurveto
            return
          </CharString>
          <CharString index="181">
            -22 callsubr
            63 callgsubr
            return
          </CharString>
          <CharString index="182">
            37 callsubr
            hintmask 10111110
            return
          </CharString>
          <CharString index="183">
            -160 61 -110 96 return
          </CharString>
          <CharString index="184">
            41 hhcurveto
            32 24 18 50 return
          </CharString>
          <CharString index="185">
            rmoveto
            59 30 -53 -105 hvcurveto
            -193 hlineto
            105 5 34 53 65 hhcurveto
            endchar
          </CharString>
          <CharString index="186">
            -19 callsubr
            53 142 return
          </CharString>
          <CharString index="187">
            -2 -5 -5 -3 -6 return
          </CharString>
          <CharString index="188">
            87 89 callgsubr
            return
          </CharString>
          <CharString index="189">
            -55 89 callsubr
            return
          </CharString>
          <CharString index="190">
            20 callsubr
            hstem
            121 callgsubr
            vstem
            return
          </CharString>
          <CharString index="191">
            110 vlineto
            42 132 23 183 169 -113 27 -69 hvcurveto
            return
          </CharString>
          <CharString index="192">
            -35 87 callgsubr
            return
          </CharString>
          <CharString index="193">
            hhcurveto
            19 hlineto
            12 return
          </CharString>
          <CharString index="194">
            -11 14 -8 vhcurveto
            266 -144 -266 -145 rlineto
            -14 -8 return
          </CharString>
          <CharString index="195">
            11 -14 8 vhcurveto
            -266 145 266 144 rlineto
            14 8 return
          </CharString>
          <CharString index="196">
            0 51 callsubr
            vstem
            return
          </CharString>
          <CharString index="197">
            119 -6 78 -53 119 callsubr
            86 90 270 91 return
          </CharString>
          <CharString index="198">
            -187 -21 202 74 388 73 return
          </CharString>
          <CharString index="199">
            72 -51 -21 758 -20 hstemhm
            76 84 return
          </CharString>
          <CharString index="200">
            hstem
            120 callgsubr
            vstem
            return
          </CharString>
          <CharString index="201">
            -20 21 -20 hstemhm
            120 50 return
          </CharString>
          <CharString index="202">
            -61 -5 79 558 79 return
          </CharString>
          <CharString index="203">
            hlineto
            -16 -8 -10 -20 hvcurveto
            return
          </CharString>
          <CharString index="204">
            76 555 32 -27 76 return
          </CharString>
          <CharString index="205">
            0 76 548 76 return
          </CharString>
          <CharString index="206">
            -102 65 -19 41 vhcurveto
            return
          </CharString>
          <CharString index="207">
            19 101 callgsubr
            return
          </CharString>
          <CharString index="208">
            -17 -175 95 74 -7 callgsubr
            return
          </CharString>
          <CharString index="209">
            73 125 72 return
          </CharString>
          <CharString index="210">
            -41 125 callgsubr
            90 vstem
            return
          </CharString>
          <CharString index="211">
            hlineto
            16 7 11 19 hvcurveto
            8 vlineto
            20 -7 10 -16 vhcurveto
            return
          </CharString>
          <CharString index="212">
            30 callsubr
            93 callsubr
            return
          </CharString>
          <CharString index="213">
            rmoveto
            -22 callsubr
            hvcurveto
            return
          </CharString>
          <CharString index="214">
            hstemhm
            61 81 callgsubr
            28 61 return
          </CharString>
          <CharString index="215">
            -19 hhcurveto
            -16 hlineto
            -19 return
          </CharString>
          <CharString index="216">
            -50 5.99 441.17 hstem
            return
          </CharString>
          <CharString index="217">
            16 -27 -28 8 -35 94 callgsubr
            return
          </CharString>
          <CharString index="218">
            -90 21 callsubr
            return
          </CharString>
          <CharString index="219">
            -14 10 callsubr
            return
          </CharString>
          <CharString index="220">
            -51 vlineto
            -14 13 -8 31 return
          </CharString>
          <CharString index="221">
            -298 -140 910 hstem
            69 63 vstem
            96 return
          </CharString>
          <CharString index="222">
            26 callsubr
            hstem
            86 90 vstem
            return
          </CharString>
          <CharString index="223">
            hstem
            47 88 184 89 vstem
            return
          </CharString>
          <CharString index="224">
            hstem
            34 432 vstem
            250 return
          </CharString>
          <CharString index="225">
            hstem
            99 callgsubr
            vstem
            return
          </CharString>
          <CharString index="226">
            24 callgsubr
            hstemhm
            return
          </CharString>
          <CharString index="227">
            hstem
            197 90 vstem
            return
          </CharString>
          <CharString index="228">
            -14 -49 callsubr
            return
          </CharString>
          <CharString index="229">
            hstemhm
            13 479 return
          </CharString>
          <CharString index="230">
            6 -3 6 hvcurveto
            return
          </CharString>
          <CharString index="231">
            -8 -14 -1 hvcurveto
            return
          </CharString>
          <CharString index="232">
            hvcurveto
            3 -24 callgsubr
            6 -3 2 return
          </CharString>
          <CharString index="233">
            -49 107 68 96 67 hstem
            37 375 vstem
            return
          </CharString>
          <CharString index="234">
            14 -19 37 -14 return
          </CharString>
        <CharString name=".notdef">
          16 0 50 600 50 hstem
          7 49 400 51 vstem
          7 hmoveto
          500 700 -500 hlineto
          250 -305 rmoveto
          -171 255 rlineto
          340 hlineto
          -370 -555 rmoveto
          510 vlineto
          171 -255 rlineto
          229 -255 rmoveto
          -169 255 169 255 rlineto
          -369 -555 rmoveto
          169 255 171 -255 rlineto
          endchar
        </CharString>
        <CharString name="A">
          7 -30 callgsubr
          122 callsubr
          hintmask 11011000
          50 -2 -107 callsubr
          hintmask 11101000
          -88 callgsubr
          endchar
        </CharString>
        <CharString name="AE">
          85 callgsubr
          39 -2 -38 callsubr
        </CharString>
        <CharString name="AEacute">
          85 callgsubr
          380 -96 callsubr
          -341 -764 -38 callsubr
        </CharString>
        <CharString name="Aacute">
          7 -30 callgsubr
          122 callsubr
          hintmask 11011000
          246 -96 callsubr
          -196 -87 callsubr
          hintmask 11101000
          -88 callgsubr
          endchar
        </CharString>
        <CharString name="Abreve">
          7 62 callgsubr
          66 65 callsubr
          253 762 -101 callsubr
          -203 -87 callsubr
          hintmask 11101100
          -88 callgsubr
          endchar
        </CharString>
        <CharString name="Acircumflex">
          7 68 callsubr
          163 753 -107 callgsubr
          -113 -755 -107 callsubr
          hintmask 11101100
          -88 callgsubr
          endchar
        </CharString>
        <CharString name="Adieresis">
          7 -30 callgsubr
          102 95 hstemhm
          152 78 48 78 hintmask 11011110
          190 784 -99 callgsubr
          -266 -786 -107 callsubr
          hintmask 11101110
          -88 callgsubr
          endchar
        </CharString>
        <CharString name="Agrave">
          7 -30 callgsubr
          122 callsubr
          hintmask 11011000
          277 762 -100 callsubr
          -227 -87 callsubr
          hintmask 11101000
          -88 callgsubr
          endchar
        </CharString>
        <CharString name="Amacron">
          7 -30 callgsubr
          107 70 65 callsubr
          157 789 -84 callsubr
          -107 -791 -107 callsubr
          hintmask 11101100
          -88 callgsubr
          endchar
        </CharString>
        <CharString name="Aogonek">
          7 -173 63 129 -54 callsubr
          hstemhm
          364 61 hintmask 11101100
          515 -103 rmoveto
          -7 callsubr
          16 5 24 12 25 hvcurveto
          13 hlineto
          25 12 7 10 4 -1 4 -2 5 hvcurveto
          -181 655 rlineto
          13 -3 -13 6 -24 hhcurveto
          -32 hlineto
          -23 -13 -6 -13 -4 hvcurveto
          -181 -655 rlineto
          -17 callgsubr
          -10 11 -7 26 vhcurveto
          -74 callgsubr
          41 -158 rlineto
          -28 -37 -8 -43 -25 -52 callgsubr
          -348 357 rmoveto
          hintmask 11110100
          -88 callgsubr
          endchar
        </CharString>
        <CharString name="Aring">
          7 -30 callgsubr
          59 35 99 35 hstemhm
          168 36 94 37 hintmask 11011111
          251 741 -68 callsubr
          -201 -778 -107 callsubr
          hintmask 11101111
          -88 callgsubr
          endchar
        </CharString>
        <CharString name="Aringacute">
          7 19 -21 180 76 556 35 hstem
          170 36 94 37 vstem
          250 871 rmoveto
          17 10 6 12 9 hvcurveto
          60 88 8 -2 callsubr
          239 -843 rmoveto
          -181 655 -1 3 -1 3 -2 2 rlinecurve
          21 14 12 24 31 vvcurveto
          51 -34 34 -50 -49 -34 -34 -51 -30 12 -24 19 -14 vhcurveto
          -2 -3 -2 -3 -1 -3 -181 -655 rcurveline
          -17 callgsubr
          -10 11 -7 26 vhcurveto
          -74 callgsubr
          43 -164 rlineto
          -18 callgsubr
          17 hlineto
          25 12 7 10 4 -1 4 -2 5 hvcurveto
          -236 782 rmoveto
          30 17 -19 -31 -31 -17 -18 -30 -30 -16 18 31 -1 hvcurveto
          31 1 16 19 30 hhcurveto
          -86 -556 rmoveto
          -88 callgsubr
          endchar
        </CharString>
        <CharString name="Atilde">
          7 -30 callgsubr
          86 59 -19 59 122 callsubr
          hintmask 00000000
          hintmask 11010110
          126 769 -69 callsubr
          hintmask 11011010
          -102 callgsubr
          hintmask 11010110
          -88 callsubr
          -66 -775 -107 callsubr
          hintmask 11101010
          -88 callgsubr
          endchar
        </CharString>
        <CharString name="B">
          41 0 76 246 76 226 76 hstemhm
          78 90 207 93 -68 92 hintmask 11110100
          106 hmoveto
          173 hlineto
          139 74 62 139 125 -91 33 -23 8 hvcurveto
          4 vlineto
          hintmask 11111000
          47 16 43 69 67 vvcurveto
          105 -60 72 -129 vhcurveto
          -173 hlineto
          -20 -8 -9 -21 hvcurveto
          -640 vlineto
          hintmask 11110100
          -21 8 -9 20 vhcurveto
          62 398 rmoveto
          226 102 vlineto
          hintmask 11111000
          72 33 -35 -74 -65 -41 -52 -62 hvcurveto
          -104 -322 rmoveto
          246 115 vlineto
          hintmask 11110100
          76 41 -44 -73 -79 -38 -50 -65 hvcurveto
          endchar
        </CharString>
        <CharString name="C">
          76 callgsubr
          hstem
          49 93 vstem
          309 -6 -85 callgsubr
        </CharString>
        <CharString name="CR">
          -361 endchar
        </CharString>
        <CharString name="Cacute">
          76 callgsubr
          hstem
          49 93 vstem
          290 -96 callsubr
          19 -768 -85 callgsubr
        </CharString>
        <CharString name="Cacute.loclPLK">
          76 callgsubr
          56 147 hstem
          49 93 vstem
          290 762 -80 callsubr
          19 -768 -85 callgsubr
        </CharString>
        <CharString name="Ccaron">
          76 callgsubr
          54 142 hstem
          49 93 vstem
          290 760 -105 callsubr
          19 -766 -85 callgsubr
        </CharString>
        <CharString name="Ccedilla">
          -39 -210 49 155 78 -77 77 556 78 hstemhm
          49 93 175 66 hintmask 10111100
          403 97 rmoveto
          -13 -22 -31 -12 -41 hhcurveto
          -114 -53 88 191 192 54 85 114 39 28 -11 -10 20 hvcurveto
          23 -13 8 54 12 vvcurveto
          15 -4 7 -13 5 vhcurveto
          11 -25 -38 8 -38 hhcurveto
          -175 -86 -114 -242 -232 75 -113 159 -10 hvcurveto
          14 callsubr
          40 2 34 10 18 9 rlinecurve
          hintmask 10111100
          20 10 4 11 12 vvcurveto
          18 -11 43 -26 -12 vhcurveto
          endchar
        </CharString>
        <CharString name="Ccircumflex">
          76 callgsubr
          47 142 hstem
          49 93 vstem
          207 753 -107 callgsubr
          102 -759 -85 callgsubr
        </CharString>
        <CharString name="Cdotaccent">
          76 callgsubr
          78 95 hstem
          49 93 111 90 vstem
          297 784 -105 callgsubr
          12 -790 -85 callgsubr
        </CharString>
        <CharString name="D">
          79 98 callsubr
          hstem
          78 91 263 92 vstem
          105 hmoveto
          -50 callgsubr
          64 -19 callgsubr
          endchar
        </CharString>
        <CharString name="Dcaron">
          79 88 callgsubr
          265 760 -105 callsubr
          -160 -760 rmoveto
          -50 callgsubr
          64 -19 callgsubr
          endchar
        </CharString>
        <CharString name="Dcroat">
          -27 callsubr
        </CharString>
        <CharString name="E">
          103 callsubr
          105 hmoveto
          -103 callgsubr
        </CharString>
        <CharString name="Eacute">
          103 callsubr
          238 -96 callsubr
          -133 -762 -102 callsubr
        </CharString>
        <CharString name="Ebreve">
          -6 callsubr
          62 66 hstem
          78 90 vstem
          245 762 -101 callsubr
          -140 -762 -102 callsubr
        </CharString>
        <CharString name="Ecaron">
          -6 callsubr
          60 142 hstem
          78 90 vstem
          238 760 -105 callsubr
          -133 -760 -102 callsubr
        </CharString>
        <CharString name="Ecircumflex">
          -41 0 76 244 76 228 76 53 142 hstem
          78 -45 callsubr
          endchar
        </CharString>
        <CharString name="Edieresis">
          -6 callsubr
          84 95 hstemhm
          78 90 -24 78 48 78 hintmask 00000000
          hintmask 11110110
          182 784 -99 callgsubr
          hintmask 11101010
          -203 -784 -102 callsubr
        </CharString>
        <CharString name="Edotaccent">
          -6 callsubr
          84 95 hstem
          78 90 33 90 vstem
          245 784 -105 callgsubr
          -140 -784 -102 callsubr
        </CharString>
        <CharString name="Egrave">
          103 callsubr
          269 762 -100 callsubr
          -164 -762 -102 callsubr
        </CharString>
        <CharString name="Emacron">
          -6 callsubr
          89 70 hstem
          78 90 vstem
          149 789 -84 callsubr
          -44 -789 -102 callsubr
        </CharString>
        <CharString name="Eng">
          92 -212 72 159 24 callgsubr
          hstem
          73 88 268 88 vstem
          479 702 rmoveto
          -12 -92 callgsubr
          -440 vlineto
          -22 3 -22 5 -22 vhcurveto
          -5 -2 -7 21 -8 21 -11 21 rlinecurve
          -232 447 rlineto
          15 -8 -12 5 -19 hhcurveto
          -24 -83 callgsubr
          9 callsubr
          450 vlineto
          22 -3 22 -5 22 vhcurveto
          5 2 7 -21 8 -21 11 -21 rlinecurve
          249 -484 rlineto
          -63 vlineto
          -55 -18 -13 -20 vhcurveto
          -24 -5 5 -7 hhcurveto
          -14 -7 -39 -8 114 callgsubr
          42 67 21 111 hvcurveto
          760 -50 callsubr
          -26 vhcurveto
          endchar
        </CharString>
        <CharString name="Eogonek">
          -41 -177 63 114 -19 callsubr
          hstem
          78 90 155 61 vstem
          474 -107 rmoveto
          -7 callsubr
          20 8 31 18 30 hvcurveto
          -1 hlineto
          2 5 1 7 8 vvcurveto
          16 -46 callgsubr
          -225 244 202 hlineto
          13 6 9 21 hvcurveto
          16 4 callsubr
          -202 228 225 hlineto
          13 6 9 21 hvcurveto
          16 4 callsubr
          -288 hlineto
          -19 -8 -9 -21 hvcurveto
          -640 38 callgsubr
          243 hlineto
          -19 -33 -6 -35 -21 -52 callgsubr
          endchar
        </CharString>
        <CharString name="Eth">
          -27 callsubr
        </CharString>
        <CharString name="Euro">
          5 -6 77 165 67 93 67 166 77 hstem
          64 92 vstem
          311 -6 rmoveto
          88 74 45 27 14 -19 38 -16 hvcurveto
          -12 -41 -47 -77 hhcurveto
          -75 -53 50 115 -18 hvcurveto
          230 95 callgsubr
          7 -9 callsubr
          -236 hlineto
          -1 15 0 16 0 17 0 15 0 16 14 flex1
          236 95 callgsubr
          7 -9 callsubr
          -230 hlineto
          117 18 51 49 80 70 35 -41 12 hhcurveto
          16 19 38 17 25 -72 38 -79 -134 -85 -78 -165 -22 hvcurveto
          -46 96 callgsubr
          -7 50 callgsubr
          39 hlineto
          -1 -15 0 -15 0 -16 0 -16 0 -16 -15 flex1
          -39 96 callgsubr
          -7 50 callgsubr
          45 hlineto
          -165 22 80 -77 139 hhcurveto
          endchar
        </CharString>
        <CharString name="F">
          -75 19 -21 322 45 callsubr
          hstem
          78 90 vstem
          116 64 callsubr
          300 180 vlineto
          13 6 9 21 hvcurveto
          16 4 callsubr
          -180 228 197 hlineto
          13 6 9 21 hvcurveto
          16 4 callsubr
          -260 hlineto
          -19 -8 -9 -21 hvcurveto
          -650 -77 callsubr
          endchar
        </CharString>
        <CharString name="G">
          65 callgsubr
          hstem
          49 93 252 90 vstem
          457 382 -78 callsubr
          endchar
        </CharString>
        <CharString name="Gbreve">
          65 callgsubr
          56 66 hstem
          49 93 252 90 vstem
          292 762 -101 callsubr
          165 -380 -78 callsubr
          endchar
        </CharString>
        <CharString name="Gcircumflex">
          65 callgsubr
          47 142 hstem
          49 93 252 90 vstem
          202 753 -107 callgsubr
          255 -371 -78 callsubr
          endchar
        </CharString>
        <CharString name="Gcommaaccent">
          54 -214 -21 229 76 236 76 245 79 hstem
          49 93 126 83 43 90 vstem
          457 382 -78 callsubr
          -141 -433 rmoveto
          -10 hlineto
          -26 -12 -13 -19 hvcurveto
          -76 -29 -38 -23 31 callgsubr
          27 57 60 96 17 -12 11 -23 vhcurveto
          endchar
        </CharString>
        <CharString name="Gdotaccent">
          65 callgsubr
          78 95 hstem
          49 93 106 90 56 90 vstem
          292 784 -105 callgsubr
          165 -402 -78 callsubr
          endchar
        </CharString>
        <CharString name="H">
          103 19 -21 323 76 305 -20 hstem
          78 90 263 -10 callsubr
          endchar
        </CharString>
        <CharString name="Hbar">
          88 19 -21 323 76 94 70 141 -20 hstem
          78 90 263 90 vstem
          530 561 rmoveto
          -9 119 -12 callgsubr
          -119 -263 119 -11 callsubr
          -15 -92 callgsubr
          -119 -24 vlineto
          -14 -5 97 callgsubr
          5 -9 14 vhcurveto
          24 -471 hlineto
          -71 callgsubr
          15 66 callsubr
          301 263 -301 vlineto
          19 callsubr
          471 9 vlineto
          15 callsubr
          10 4 callsubr
          -99 -164 rmoveto
          -263 94 263 hlineto
          endchar
        </CharString>
        <CharString name="Hcircumflex">
          103 19 -21 323 76 305 -20 71 142 hstem
          78 90 263 90 -3 callsubr
          -94 -755 rmoveto
          15 66 callsubr
          301 263 -301 vlineto
          19 callsubr
          660 -66 callsubr
          -283 -263 283 -74 callsubr
          endchar
        </CharString>
        <CharString name="I">
          115 callsubr
          124 -2 -57 callsubr
        </CharString>
        <CharString name="IJ">
          90 callsubr
          hintmask 00000000
          hintmask 01111000
          124 -2 -67 callsubr
          hintmask 10111000
          237 -4 -56 callsubr
        </CharString>
        <CharString name="Iacute">
          115 callsubr
          124 -96 callsubr
          -764 vmoveto
          -82 callsubr
          endchar
        </CharString>
        <CharString name="Iacute_J.loclNLD">
          90 callsubr
          hintmask 10111000
          124 -96 callsubr
          359 hmoveto
          -106 callgsubr
          hintmask 01111000
          -359 -764 -67 callsubr
          hintmask 10111000
          237 -4 -56 callsubr
        </CharString>
        <CharString name="Ibreve">
          26 callsubr
          80 66 hstem
          86 90 vstem
          131 762 -101 callsubr
          -7 -764 -57 callsubr
        </CharString>
        <CharString name="Icircumflex">
          26 callsubr
          71 142 hstem
          86 90 vstem
          41 753 -107 callgsubr
          83 -755 -57 callsubr
        </CharString>
        <CharString name="Idieresis">
          26 callsubr
          102 95 hstemhm
          30 78 -22 90 -20 78 hintmask 00000000
          hintmask 11110100
          68 784 -99 callgsubr
          hintmask 11101000
          -70 -786 -57 callsubr
        </CharString>
        <CharString name="Idotaccent">
          26 callsubr
          102 95 hstem
          86 90 vstem
          131 784 -105 callgsubr
          -7 -786 -57 callsubr
        </CharString>
        <CharString name="Igrave">
          115 callsubr
          155 762 -100 callsubr
          -31 -764 -57 callsubr
        </CharString>
        <CharString name="Imacron">
          26 callsubr
          107 70 hstem
          86 90 vstem
          35 789 -84 callsubr
          89 -791 -57 callsubr
        </CharString>
        <CharString name="Iogonek">
          -236 -176 63 133 -21 703 -20 hstemhm
          86 90 -89 61 hintmask 11110000
          238 -106 rmoveto
          -7 callsubr
          19 8 30 17 30 hvcurveto
          2 3 1 4 4 vvcurveto
          660 -11 callsubr
          -15 -92 callgsubr
          -660 vlineto
          -12 7 -7 18 -2 vhcurveto
          hintmask 11101000
          -18 -32 -6 -34 -21 vvcurveto
          -25 9 -63 83 24 23 6 13 19 vhcurveto
          9 6 4 9 12 vvcurveto
          hintmask 11110000
          56 callsubr
          endchar
        </CharString>
        <CharString name="Itilde">
          26 callsubr
          86 59 callgsubr
          86 90 hintmask 00000000
          hintmask 11011000
          4 769 -69 callsubr
          hintmask 11101000
          -102 callgsubr
          hintmask 11011000
          -88 callsubr
          130 -775 -57 callsubr
        </CharString>
        <CharString name="J">
          -143 -6 78 630 -20 hstem
          184 91 vstem
          99 -6 -56 callsubr
        </CharString>
        <CharString name="Jcircumflex">
          -143 -6 78 630 -20 71 142 hstem
          184 91 vstem
          138 753 -107 callgsubr
          -39 -759 -56 callsubr
        </CharString>
        <CharString name="K">
          12 19 -21 339 31 334 -20 hstem
          82 90 -21 callsubr
          endchar
        </CharString>
        <CharString name="Kcommaaccent">
          12 78 callgsubr
          339 31 334 -20 hstem
          82 90 44 83 -21 callsubr
          -281 -263 -80 callgsubr
          endchar
        </CharString>
        <CharString name="L">
          127 callgsubr
          105 hmoveto
          -59 callgsubr
          endchar
        </CharString>
        <CharString name="Lacute">
          127 callgsubr
          118 764 -106 callsubr
          -13 -764 rmoveto
          -59 callgsubr
          endchar
        </CharString>
        <CharString name="Lcaron">
          -90 0 76 624 -20 22 -20 hstemhm
          78 90 91 89 hintmask 10111000
          105 hmoveto
          -59 callgsubr
          170 526 rmoveto
          hintmask 11011000
          -12 callsubr
          hintmask 10111000
          47 callsubr
          endchar
        </CharString>
        <CharString name="Lcommaaccent">
          -90 -214 -21 235 76 626 -20 hstemhm
          78 90 25 83 hintmask 11110000
          105 hmoveto
          -59 callgsubr
          hintmask 11111000
          87 -235 -80 callgsubr
          endchar
        </CharString>
        <CharString name="Ldot">
          -90 0 76 233 103 290 -20 hstem
          78 90 73 99 vstem
          105 hmoveto
          -59 callgsubr
          185 309 25 callgsubr
        </CharString>
        <CharString name="Lslash">
          127 callgsubr
          376 76 rmoveto
          -208 312 hlineto
          92 55 70 callsubr
          -92 -55 rlineto
          246 -66 callsubr
          -299 vlineto
          -45 -27 69 callsubr
          45 27 rlineto
          -305 38 callgsubr
          271 hlineto
          14 6 9 21 hvcurveto
          16 -9 callsubr
          endchar
        </CharString>
        <CharString name="M">
          191 10 callsubr
          hstem
          73 88 370 88 vstem
          329 239 rmoveto
          34 hlineto
          11 7 4 9 4 hvcurveto
          117 230 11 22 10 24 9 23 rlinecurve
          4 -2 rlineto
          -3 -24 -2 -23 -24 vvcurveto
          -458 -77 callsubr
          9 callsubr
          660 -55 callsubr
          -21 hlineto
          -20 -12 -6 -12 -6 hvcurveto
          -160 -313 -8 -16 -5 -16 -3 -16 rlinecurve
          -3 16 -5 16 -8 16 -160 313 rcurveline
          12 -6 -12 6 -20 hhcurveto
          -21 -83 callgsubr
          9 callsubr
          458 vlineto
          24 -2 23 -3 24 vhcurveto
          4 2 9 -23 10 -24 11 -22 rlinecurve
          117 -230 rlineto
          -9 4 7 -4 11 hhcurveto
          endchar
        </CharString>
        <CharString name="N">
          92 10 callsubr
          hstem
          73 88 268 88 vstem
          -63 callgsubr
          endchar
        </CharString>
        <CharString name="Nacute">
          92 10 callsubr
          hstem
          73 88 268 88 vstem
          288 -96 callsubr
          -177 -764 -101 callgsubr
          endchar
        </CharString>
        <CharString name="Nacute.loclPLK">
          92 10 callsubr
          80 147 hstem
          73 88 268 88 vstem
          288 762 -80 callsubr
          -177 -764 -101 callgsubr
          endchar
        </CharString>
        <CharString name="Ncaron">
          92 10 callsubr
          78 142 hstem
          73 88 268 88 vstem
          288 760 -105 callsubr
          -177 -762 -101 callgsubr
          endchar
        </CharString>
        <CharString name="Ncommaaccent">
          92 78 callgsubr
          704 -20 hstem
          73 88 91 83 94 88 vstem
          -63 callgsubr
          140 -233 -80 callgsubr
          endchar
        </CharString>
        <CharString name="Ntilde">
          92 10 callsubr
          86 59 callgsubr
          73 88 268 88 hintmask 00000000
          hintmask 11011100
          168 769 -69 callsubr
          hintmask 11101100
          -102 callgsubr
          hintmask 11011100
          -88 callsubr
          -47 -775 -101 callgsubr
          endchar
        </CharString>
        <CharString name="O">
          28 callgsubr
          299 -6 -100 callgsubr
          endchar
        </CharString>
        <CharString name="OE">
          333 -6 76 -70 -19 callsubr
          -70 76 hstemhm
          49 93 310 91 hintmask 01110110
          767 76 rmoveto
          -224 244 200 hlineto
          13 6 9 21 hvcurveto
          16 4 callsubr
          -200 228 223 hlineto
          13 6 9 21 hvcurveto
          16 4 callsubr
          -286 hlineto
          -19 -8 -9 -21 hvcurveto
          hintmask 10101110
          -38 vlineto
          53 -41 -53 21 -68 hhcurveto
          -151 -91 -103 -250 -252 92 -107 147 70 53 24 52 42 hvcurveto
          hintmask 01110110
          -40 38 callgsubr
          287 hlineto
          13 6 9 21 hvcurveto
          16 4 callsubr
          hintmask 10101110
          -473 -6 rmoveto
          -99 -53 87 195 201 53 77 99 103 55 -77 -201 -195 -55 -87 -103 hvcurveto
          endchar
        </CharString>
        <CharString name="Oacute">
          28 callgsubr
          22 callgsubr
          6 -768 -100 callgsubr
          endchar
        </CharString>
        <CharString name="Oacute.loclPLK">
          21 callgsubr
          56 147 9 callgsubr
          293 762 -80 callsubr
          6 -768 -100 callgsubr
          endchar
        </CharString>
        <CharString name="Obreve">
          21 callgsubr
          56 66 9 callgsubr
          300 762 -101 callsubr
          -1 -768 -100 callgsubr
          endchar
        </CharString>
        <CharString name="Ocircumflex">
          101 -6 76 560 76 47 142 hstem
          49 93 316 92 -3 callsubr
          89 -759 -100 callgsubr
          endchar
        </CharString>
        <CharString name="Odieresis">
          21 callgsubr
          78 95 hstem
          49 93 57 78 48 78 55 92 vstem
          237 784 -99 callgsubr
          -64 -790 -100 callgsubr
          endchar
        </CharString>
        <CharString name="Ograve">
          28 callgsubr
          324 762 -100 callsubr
          -25 -768 -100 callgsubr
          endchar
        </CharString>
        <CharString name="Ohorn">
          27 callsubr
          299 -6 -65 callgsubr
        </CharString>
        <CharString name="Ohungarumlaut">
          21 callgsubr
          56 147 9 callgsubr
          213 762 -83 callsubr
          -42 -768 -100 callgsubr
          endchar
        </CharString>
        <CharString name="Omacron">
          21 callgsubr
          83 70 9 callgsubr
          204 789 -84 callsubr
          95 -795 -100 callgsubr
          endchar
        </CharString>
        <CharString name="Oslash">
          28 callgsubr
          485 620 -44 callgsubr
        </CharString>
        <CharString name="Oslashacute">
          28 callgsubr
          22 callgsubr
          192 -142 -44 callgsubr
        </CharString>
        <CharString name="Otilde">
          21 callgsubr
          62 59 callgsubr
          23 callsubr
          hintmask 00000000
          hintmask 11011100
          173 769 -69 callsubr
          hintmask 11101100
          -102 callgsubr
          hintmask 11011100
          -88 callsubr
          136 -779 -100 callgsubr
          endchar
        </CharString>
        <CharString name="P">
          19 -21 300 76 250 76 hstem
          73 90 192 92 vstem
          111 64 callsubr
          278 84 callsubr
          -165 hlineto
          -19 -8 -9 -21 hvcurveto
          -650 -77 callsubr
          52 376 rmoveto
          250 98 vlineto
          41 53 -21 -99 -109 -55 -21 -32 hvcurveto
          endchar
        </CharString>
        <CharString name="Q">
          101 630 76 9 callgsubr
          542 -169 rmoveto
          23 24 55 12 2 hvcurveto
          7 -4 5 -8 4 vhcurveto
          -194 89 rlineto
          3 vlineto
          107 34 58 113 197 vvcurveto
          242 -89 114 -162 -161 -89 -113 -243 -180 49 -109 95 -48 vhcurveto
          -38 64 271 -144 14 hhcurveto
          -242 238 rmoveto
          -102 -56 89 192 192 56 88 102 101 57 -88 -192 -191 -57 -90 -101 hvcurveto
          endchar
        </CharString>
        <CharString name="R">
          15 19 119 callgsubr
          hstem
          77 90 187 93 vstem
          115 -2 -24 callsubr
        </CharString>
        <CharString name="Racute">
          15 19 119 callgsubr
          hstem
          77 90 187 93 vstem
          247 -96 callsubr
          -132 -764 -24 callsubr
        </CharString>
        <CharString name="Rcaron">
          15 19 119 callgsubr
          60 142 hstem
          77 90 187 93 vstem
          247 760 -105 callsubr
          -132 -762 -24 callsubr
        </CharString>
        <CharString name="Rcommaaccent">
          15 -214 -21 254 119 callgsubr
          hstem
          77 90 44 83 60 93 vstem
          115 -2 -86 callgsubr
          -57 -619 -80 callgsubr
          endchar
        </CharString>
        <CharString name="S">
          95 callsubr
          hstem
          47 88 184 -26 callgsubr
          endchar
        </CharString>
        <CharString name="Sacute">
          95 callsubr
          116 callsubr
          234 -96 callsubr
          -34 -767 -95 callsubr
          endchar
        </CharString>
        <CharString name="Sacute.loclPLK">
          95 callsubr
          51 147 116 callsubr
          234 762 -80 callsubr
          -34 -767 -95 callsubr
          endchar
        </CharString>
        <CharString name="Scaron">
          95 callsubr
          49 142 116 callsubr
          234 760 -105 callsubr
          -34 -765 -95 callsubr
          endchar
        </CharString>
        <CharString name="Scedilla">
          -61 -210 49 156 79 558 79 hstemhm
          47 88 99 66 19 89 hintmask 11110100
          408 194 rmoveto
          117 -77 42 -79 40 vhcurveto
          -72 37 -45 30 65 vvcurveto
          73 55 34 59 35 34 -7 -12 24 vhcurveto
          -2 4 5 -3 4 hhcurveto
          13 15 46 15 3 0 5 -7 4 hvcurveto
          20 -34 -42 10 -46 hhcurveto
          -120 -87 -73 -123 -117 82 -42 87 -43 hvcurveto
          56 -28 47 -29 -69 vvcurveto
          -71 -49 -42 -67 -59 -47 17 26 -33 vhcurveto
          1 -2 -2 3 -5 hhcurveto
          -15 -8 -37 -20 -14 4 -4 7 -5 hvcurveto
          hintmask 11111100
          -30 42 53 -16 62 hhcurveto
          31 callsubr
          58 -49 9 -25 hvcurveto
          16 58 rlineto
          hintmask 11110100
          98 15 68 69 112 vvcurveto
          endchar
        </CharString>
        <CharString name="Scircumflex">
          95 callsubr
          42 142 116 callsubr
          151 753 -107 callgsubr
          49 -758 -95 callsubr
          endchar
        </CharString>
        <CharString name="Scommaaccent">
          -61 -214 -21 230 79 558 79 hstem
          47 88 42 83 59 -26 callgsubr
          -24 -230 -80 callgsubr
          endchar
        </CharString>
        <CharString name="T">
          -44 19 -21 626 76 hstem
          183 90 vstem
          221 -2 -47 callgsubr
          endchar
        </CharString>
        <CharString name="Tbar">
          -59 19 -21 320 70 236 76 hstem
          183 90 vstem
          415 700 rmoveto
          -376 hlineto
          110 callgsubr
          144 -236 -106 hlineto
          -13 -6 -9 -21 hvcurveto
          -10 -60 callgsubr
          106 -298 hlineto
          19 callsubr
          298 92 vlineto
          14 callgsubr
          10 -46 callgsubr
          -92 236 142 hlineto
          14 6 9 21 hvcurveto
          16 -9 callsubr
          endchar
        </CharString>
        <CharString name="Tcaron">
          -44 19 -21 626 76 60 142 hstem
          183 90 vstem
          220 760 -105 callsubr
          1 -762 -47 callgsubr
          endchar
        </CharString>
        <CharString name="Thorn">
          19 -21 179 76 250 76 123 -20 hstem
          73 90 191 93 vstem
          111 64 callsubr
          157 84 callsubr
          -102 101 hlineto
          14 -11 8 -27 vhcurveto
          -14 -83 callgsubr
          52 255 rmoveto
          250 97 vlineto
          42 52 -21 -99 -109 -55 -21 -31 hvcurveto
          endchar
        </CharString>
        <CharString name="U">
          105 callsubr
          292 -6 rmoveto
          143 80 75 126 hvcurveto
          485 -55 callsubr
          -14 -61 callgsubr
          vhcurveto
          endchar
        </CharString>
        <CharString name="Uacute">
          105 callsubr
          285 -96 callsubr
          7 -768 rmoveto
          143 80 75 126 hvcurveto
          485 -55 callsubr
          -14 -61 callgsubr
          vhcurveto
          endchar
        </CharString>
        <CharString name="Ubreve">
          30 callsubr
          80 66 93 callsubr
          292 762 -101 callsubr
          -768 vmoveto
          143 80 75 126 hvcurveto
          485 -55 callsubr
          -14 -61 callgsubr
          vhcurveto
          endchar
        </CharString>
        <CharString name="Ucircumflex">
          30 callsubr
          71 142 93 callsubr
          202 753 -107 callgsubr
          90 -759 rmoveto
          143 80 75 126 hvcurveto
          485 -55 callsubr
          -14 -61 callgsubr
          vhcurveto
          endchar
        </CharString>
        <CharString name="Udieresis">
          30 callsubr
          102 95 hstemhm
          68 90 33 78 48 78 30 90 hintmask 11111010
          229 784 rmoveto
          29 11 9 13 hvcurveto
          51 -37 callgsubr
          -29 -11 -9 -13 vhcurveto
          -51 -77 callsubr
          hintmask 11111110
          126 hmoveto
          28 12 9 13 hvcurveto
          51 -50 callsubr
          -26 -29 -11 -9 -13 vhcurveto
          -51 -77 callsubr
          -63 -790 rmoveto
          hintmask 11111010
          143 80 75 126 hvcurveto
          485 -55 callsubr
          -14 -95 callgsubr
          hintmask 11111110
          -126 80 -75 144 vhcurveto
          endchar
        </CharString>
        <CharString name="Ugrave">
          105 callsubr
          316 762 -100 callsubr
          -24 -768 rmoveto
          143 80 75 126 hvcurveto
          485 -55 callsubr
          -14 -61 callgsubr
          vhcurveto
          endchar
        </CharString>
        <CharString name="Uhorn">
          46 callsubr
          hintmask 00000000
          hintmask 11111000
          589 759 rmoveto
          -87 callgsubr
          2 -12 25 -20 -30 vvcurveto
          -15 -9 -18 -34 vhcurveto
          hintmask 11110000
          -71 callsubr
          hintmask 11111000
          86 callgsubr
        </CharString>
        <CharString name="Uhungarumlaut">
          30 callsubr
          80 147 93 callsubr
          205 762 -83 callsubr
          -41 -768 rmoveto
          143 80 75 126 hvcurveto
          485 -55 callsubr
          -14 -61 callgsubr
          vhcurveto
          endchar
        </CharString>
        <CharString name="Umacron">
          30 callsubr
          107 70 93 callsubr
          196 789 -84 callsubr
          96 -795 rmoveto
          143 80 75 126 hvcurveto
          485 -55 callsubr
          -14 -61 callgsubr
          vhcurveto
          endchar
        </CharString>
        <CharString name="Uogonek">
          85 -165 63 96 103 callgsubr
          hstem
          68 90 173 61 33 90 vstem
          515 195 rmoveto
          485 -55 callsubr
          -14 -61 callgsubr
          20 19 2 3 18 vhcurveto
          -13 -29 -5 -29 -18 -52 callgsubr
          -7 callsubr
          19 8 30 17 30 hvcurveto
          64 32 34 60 83 vvcurveto
          endchar
        </CharString>
        <CharString name="Uring">
          30 callsubr
          59 35 99 35 hstem
          68 90 49 36 94 37 51 90 vstem
          290 741 -68 callsubr
          2 -782 rmoveto
          143 80 75 126 hvcurveto
          485 -55 callsubr
          -14 -61 callgsubr
          vhcurveto
          endchar
        </CharString>
        <CharString name="Utilde">
          30 callsubr
          86 59 callgsubr
          120 callgsubr
          hintmask 00000000
          hintmask 11011100
          165 769 -69 callsubr
          hintmask 11101100
          -102 callgsubr
          hintmask 11011100
          -88 callsubr
          137 -779 rmoveto
          143 80 75 126 hvcurveto
          485 -55 callsubr
          -14 -61 callgsubr
          vhcurveto
          endchar
        </CharString>
        <CharString name="V">
          10 -2 104 -83 119 callsubr
          19 469 hintmask 01110000
          232 -2 rmoveto
          42 68 callgsubr
          3 hvcurveto
          174 657 rlineto
          2 6 74 callgsubr
          -13 6 -27 vhcurveto
          -12 hlineto
          -19 -15 -4 -12 -3 hvcurveto
          hintmask 10110000
          -135 -531 -9 -53 rlineto
          -3 hlineto
          -8 52 -134 532 rlineto
          12 -4 -14 4 -19 hhcurveto
          -14 hlineto
          -28 -12 -7 -10 -4 2 -4 1 -5 hvcurveto
          174 -658 rlineto
          hintmask 01110000
          -18 callgsubr
          endchar
        </CharString>
        <CharString name="W">
          42 callsubr
          hstemhm
          19 715 hintmask 01110000
          196 -2 -76 callsubr
        </CharString>
        <CharString name="Wacute">
          42 callsubr
          hstemhm
          19 715 hintmask 01110000
          369 -96 callsubr
          -173 -764 -76 callsubr
        </CharString>
        <CharString name="Wcircumflex">
          42 callsubr
          71 142 hstemhm
          19 715 hintmask 01111000
          286 753 -107 callgsubr
          -90 -755 rmoveto
          40 68 callgsubr
          2 hvcurveto
          88 421 16 125 16 -125 88 -421 rlineto
          -12 2 15 -4 19 hhcurveto
          40 68 callgsubr
          2 hvcurveto
          140 657 rlineto
          1 5 1 5 2 vvcurveto
          12 -11 7 -29 vhcurveto
          -11 hlineto
          -22 -16 -4 -12 -2 hvcurveto
          -89 -483 rlineto
          hintmask 10111000
          -9 -50 -3 -21 -7 -40 -3 24 -6 49 -8 39 -94 481 rcurveline
          13 -3 -14 4 -19 hhcurveto
          -20 hlineto
          -19 -14 -4 -13 -3 hvcurveto
          -93 -479 -7 -38 -6 -38 -7 -38 rlinecurve
          -4 29 -3 34 -9 48 -92 483 rcurveline
          12 -2 -15 4 -22 hhcurveto
          -13 hlineto
          -29 -11 -7 -12 -3 1 -4 1 -5 hvcurveto
          139 -657 rlineto
          hintmask 01111000
          -12 2 15 -4 19 hhcurveto
          endchar
        </CharString>
        <CharString name="Wdieresis">
          42 callsubr
          102 95 hstemhm
          275 78 48 78 hintmask 01111100
          313 784 -99 callgsubr
          -243 -786 rmoveto
          40 68 callgsubr
          2 hvcurveto
          88 421 16 125 16 -125 88 -421 rlineto
          -12 2 15 -4 19 hhcurveto
          40 68 callgsubr
          2 hvcurveto
          140 657 rlineto
          1 5 1 5 2 vvcurveto
          12 -11 7 -29 vhcurveto
          -11 hlineto
          -22 -16 -4 -12 -2 hvcurveto
          -89 -483 rlineto
          hintmask 10111100
          -9 -50 -3 -21 -7 -40 -3 24 -6 49 -8 39 -94 481 rcurveline
          13 -3 -14 4 -19 hhcurveto
          -20 hlineto
          -19 -14 -4 -13 -3 hvcurveto
          -93 -479 -7 -38 -6 -38 -7 -38 rlinecurve
          -4 29 -3 34 -9 48 -92 483 rcurveline
          12 -2 -15 4 -22 hhcurveto
          -13 hlineto
          -29 -11 -7 -12 -3 1 -4 1 -5 hvcurveto
          139 -657 rlineto
          hintmask 01111100
          -12 2 15 -4 19 hhcurveto
          endchar
        </CharString>
        <CharString name="Wgrave">
          42 callsubr
          hstemhm
          19 715 hintmask 01110000
          400 762 -100 callsubr
          -204 -764 -76 callsubr
        </CharString>
        <CharString name="X">
          8 10 callsubr
          hstem
          21 465 vstem
          63 -2 rmoveto
          15 hlineto
          18 15 2 12 6 hvcurveto
          136 286 132 -285 rlineto
          -12 6 14 -3 19 hhcurveto
          20 hlineto
          30 12 6 11 5 -3 5 -4 8 hvcurveto
          -168 337 152 297 rlineto
          4 8 3 5 5 vvcurveto
          12 -13 5 -29 vhcurveto
          -14 hlineto
          -18 -15 -2 -12 -6 hvcurveto
          -120 -252 -115 251 rlineto
          13 -6 -14 2 -18 hhcurveto
          -20 hlineto
          -30 -12 -6 -11 -5 3 -6 4 -7 hvcurveto
          149 -302 -168 -332 rlineto
          -4 -8 -3 -5 -5 vvcurveto
          -12 12 -5 30 vhcurveto
          endchar
        </CharString>
        <CharString name="Y">
          72 callgsubr
          235 -2 rmoveto
          -89 callgsubr
        </CharString>
        <CharString name="Y.loclGUA">
          83 callgsubr
          396 702 -97 callgsubr
          endchar
        </CharString>
        <CharString name="Yacute">
          72 callgsubr
          235 -96 callsubr
          -764 vmoveto
          -89 callgsubr
        </CharString>
        <CharString name="Yacute.loclGUA">
          83 callgsubr
          242 -96 callsubr
          154 -60 -97 callgsubr
          endchar
        </CharString>
        <CharString name="Ycircumflex">
          112 callsubr
          71 142 120 callsubr
          152 753 -107 callgsubr
          83 -755 rmoveto
          -89 callgsubr
        </CharString>
        <CharString name="Ycircumflex.loclGUA">
          20 callgsubr
          71 142 117 callgsubr
          159 753 -107 callgsubr
          237 -51 -97 callgsubr
          endchar
        </CharString>
        <CharString name="Ydieresis">
          112 callsubr
          102 95 hstemhm
          141 78 -22 90 -20 78 hintmask 00000000
          hintmask 11110100
          179 784 -99 callgsubr
          hintmask 11101000
          -70 -786 rmoveto
          -89 callgsubr
        </CharString>
        <CharString name="Ydieresis.loclGUA">
          20 callgsubr
          102 95 hstemhm
          63 84 1 78 48 78 0 84 hintmask 00000000
          hintmask 11110110
          186 784 -99 callgsubr
          hintmask 11111001
          84 -82 -97 callgsubr
          endchar
        </CharString>
        <CharString name="Ygrave">
          72 callgsubr
          266 762 -100 callsubr
          -31 -764 rmoveto
          -89 callgsubr
        </CharString>
        <CharString name="Ygrave.loclGUA">
          83 callgsubr
          273 762 -100 callsubr
          123 -60 -97 callgsubr
          endchar
        </CharString>
        <CharString name="Z">
          9 98 callsubr
          hstem
          34 432 vstem
          58 -42 callsubr
          endchar
        </CharString>
        <CharString name="Zacute">
          9 98 callsubr
          117 callsubr
          -96 callsubr
          -192 -762 rmoveto
          -90 callsubr
          endchar
        </CharString>
        <CharString name="Zacute.loclPLK">
          9 98 callsubr
          62 147 117 callsubr
          762 -80 callsubr
          -192 -762 rmoveto
          -90 callsubr
          endchar
        </CharString>
        <CharString name="Zcaron">
          9 98 callsubr
          60 142 117 callsubr
          760 -105 callsubr
          -192 -760 rmoveto
          -90 callsubr
          endchar
        </CharString>
        <CharString name="Zdotaccent">
          9 98 callsubr
          84 95 hstem
          213 90 vstem
          257 784 -105 callgsubr
          -199 -784 rmoveto
          -90 callsubr
          endchar
        </CharString>
        <CharString name="a">
          -35 callgsubr
          37 callsubr
          hintmask 10111100
          197 -6 10 callgsubr
          hintmask 01111100
          -104 callsubr
          hintmask 10111100
          -39 callgsubr
        </CharString>
        <CharString name="aacute">
          -35 callgsubr
          37 callsubr
          hintmask 10111100
          237 -93 callsubr
          -40 -591 10 callgsubr
          hintmask 01111100
          -104 callsubr
          hintmask 10111100
          -39 callgsubr
        </CharString>
        <CharString name="abreve">
          -35 callgsubr
          56 66 75 callsubr
          244 -82 callgsubr
          -47 -591 10 callgsubr
          hintmask 01111110
          -104 callsubr
          hintmask 10111110
          -39 callgsubr
        </CharString>
        <CharString name="acircumflex">
          -17 60 callgsubr
          154 576 -107 callgsubr
          43 -582 10 callgsubr
          hintmask 01111110
          -104 callsubr
          hintmask 10111110
          -39 callgsubr
        </CharString>
        <CharString name="acute">
          -242 100 callgsubr
          53 147 vstem
          74 -93 callsubr
          endchar
        </CharString>
        <CharString name="acute.loclPLK">
          -242 100 callgsubr
          58 123 vstem
          85 585 -80 callsubr
          endchar
        </CharString>
        <CharString name="acutecomb">
          -498 100 callgsubr
          -161 147 vstem
          -140 -93 callsubr
          endchar
        </CharString>
        <CharString name="adieresis">
          -35 callgsubr
          78 95 hstemhm
          51 88 4 78 48 78 -27 84 hintmask 0000000000000000
          hintmask 1011101100000000
          181 607 -99 callgsubr
          hintmask 1011110010000000
          -110 -613 10 callgsubr
          hintmask 0111110010000000
          -104 callsubr
          hintmask 1011110010000000
          -39 callgsubr
        </CharString>
        <CharString name="ae">
          190 60 callsubr
          200 -6 -49 callgsubr
        </CharString>
        <CharString name="aeacute">
          166 60 callsubr
          335 -93 callsubr
          -135 -591 -49 callgsubr
        </CharString>
        <CharString name="agrave">
          -35 callgsubr
          37 callsubr
          hintmask 10111100
          268 585 -100 callsubr
          -71 -591 10 callgsubr
          hintmask 01111100
          -104 callsubr
          hintmask 10111100
          -39 callgsubr
        </CharString>
        <CharString name="amacron">
          -35 callgsubr
          83 70 75 callsubr
          148 612 -84 callsubr
          49 -618 10 callgsubr
          hintmask 01111110
          -104 callsubr
          hintmask 10111110
          -39 callgsubr
        </CharString>
        <CharString name="ampersand">
          22 -6 72 270 72 226 72 hstemhm
          32 88 -70 87 185 87 hintmask 11110100
          476 71 rmoveto
          -6 -6 -5 -17 hhcurveto
          -22 -16 14 60 hvcurveto
          196 57 vlineto
          15 callsubr
          12 4 callsubr
          -57 105 hlineto
          73 callsubr
          -14 hlineto
          -21 -10 124 callsubr
          -11 -105 rlineto
          hintmask 11101100
          -87 hlineto
          -68 -30 71 50 37 16 68 69 hvcurveto
          23 17 -9 5 hhcurveto
          13 8 45 4 27 -45 5 -30 -95 -68 -55 -113 -74 35 -51 45 -22 hvcurveto
          -4 vlineto
          hintmask 11110100
          -54 -16 -44 -63 -105 vvcurveto
          -154 90 -55 90 60 42 23 20 33 vhcurveto
          -35 22 32 -8 30 hhcurveto
          23 42 3 27 8 -7 39 -13 hvcurveto
          -356 133 rmoveto
          102 40 30 71 vhcurveto
          91 -204 hlineto
          -12 1 -10 2 -9 vhcurveto
          -17 -32 -36 -18 -35 hhcurveto
          -48 -54 29 109 hvcurveto
          endchar
        </CharString>
        <CharString name="aogonek">
          -17 -167 63 98 79 186 102 callsubr
          37 callsubr
          -77 61 hintmask 00000000
          hintmask 11111010
          478 -97 rmoveto
          -7 callsubr
          18 6 26 14 26 hvcurveto
          hintmask 11111100
          5 4 3 4 5 5 -12 39 82 vvcurveto
          230 vlineto
          95 -63 56 -107 -86 -79 -33 -26 -11 21 -38 14 vhcurveto
          11 43 36 75 hhcurveto
          65 22 -37 -41 hvcurveto
          -47 vlineto
          -122 -2 -147 -19 -162 vvcurveto
          -101 58 -54 88 vhcurveto
          hintmask 11111010
          -17 callsubr
          5 -21 5 -23 12 -10 rrcurveto
          -17 -31 -5 -32 -20 -52 callgsubr
          hintmask 11111100
          -158 227 rmoveto
          -18 callsubr
          -51 -24 27 50 11 callgsubr
          hvcurveto
          endchar
        </CharString>
        <CharString name="approxequal">
          -60 99 56 -13 56 61 56 -13 56 hstemhm
          58 329 hintmask 00000000
          hintmask 10011000
          77 260 -1 callgsubr
          hintmask 01011000
          50 callsubr
          8 -164 -1 callgsubr
          hintmask 01101000
          50 callsubr
          endchar
        </CharString>
        <CharString name="aring">
          -35 callgsubr
          35 35 99 35 hstemhm
          51 88 20 36 94 37 -6 84 hintmask 0000000000000000
          hintmask 1011111110000000
          242 -14 callgsubr
          hintmask 1011111001000000
          -45 -605 10 callgsubr
          hintmask 0111111001000000
          -104 callsubr
          hintmask 1011111001000000
          -39 callgsubr
        </CharString>
        <CharString name="aringacute">
          -35 callgsubr
          35 35 99 35 hstemhm
          51 88 20 36 94 37 -6 84 hintmask 1011111001000000
          238 -96 callsubr
          hintmask 1011111110000000
          4 -198 -68 callsubr
          hintmask 1011111001000000
          -45 -605 10 callgsubr
          hintmask 0111111001000000
          -104 callsubr
          hintmask 1011111001000000
          -39 callgsubr
        </CharString>
        <CharString name="arrowdown">
          7 16 -21 712 -20 hstem
          217 70 vstem
          252 -5 rmoveto
          8 5 2 5 5 hvcurveto
          215 216 rlineto
          10 10 4 10 14 vvcurveto
          55 vlineto
          12 -2 7 -5 -3 -5 -4 -6 -6 vhcurveto
          -191 -195 rlineto
          564 vlineto
          73 callsubr
          -10 hlineto
          -21 -9 -8 -14 hvcurveto
          -564 vlineto
          -191 196 rlineto
          6 -6 -5 4 -3 hhcurveto
          -5 -2 -7 -12 hvcurveto
          -55 vlineto
          -14 4 -10 10 -10 vhcurveto
          215 -217 rlineto
          -5 5 6 -2 7 hhcurveto
          endchar
        </CharString>
        <CharString name="arrowleft">
          102 230 70 230 -20 hstem
          0 601 vstem
          223 1 rmoveto
          49 hlineto
          9 6 2 5 3 -3 5 -5 6 hvcurveto
          -165 208 rlineto
          466 hlineto
          13 8 -48 callgsubr
          10 vlineto
          21 -8 9 -13 vhcurveto
          -466 hlineto
          164 209 rlineto
          5 6 3 5 3 vvcurveto
          5 -5 2 -10 vhcurveto
          -49 hlineto
          -14 -9 -3 -11 -8 hvcurveto
          -185 -233 rlineto
          -5 -5 -1 -4 0 -9 0 -7 1 -5 -6 flex1
          186 -232 rlineto
          -11 8 9 -3 14 hhcurveto
          endchar
        </CharString>
        <CharString name="arrowright">
          102 230 70 230 -20 hstem
          0 600 vstem
          329 1 rmoveto
          49 hlineto
          13 10 3 11 8 hvcurveto
          185 232 rlineto
          5 6 1 5 0 5 0 11 -2 4 5 flex1
          -185 233 rlineto
          11 -8 -10 3 -13 hhcurveto
          -49 hlineto
          -10 -5 -2 -5 -3 3 -5 4 -6 hvcurveto
          165 -209 rlineto
          -465 hlineto
          36 callsubr
          465 hlineto
          -165 -208 rlineto
          -4 -6 -4 -5 -3 vvcurveto
          -5 6 -2 10 vhcurveto
          endchar
        </CharString>
        <CharString name="arrowup">
          7 17 -21 705 -20 hstem
          217 70 vstem
          247 -4 rmoveto
          10 hlineto
          21 9 8 14 hvcurveto
          564 vlineto
          191 -195 rlineto
          -6 6 5 -4 3 hhcurveto
          5 2 7 12 hvcurveto
          55 vlineto
          14 -4 10 -10 10 vhcurveto
          -215 216 rlineto
          -6 6 -4 1 -8 -9 -4 -2 -5 hflex1
          -215 -216 rlineto
          -10 -10 -4 -10 -14 vvcurveto
          -55 vlineto
          -12 2 -7 5 3 5 4 6 6 vhcurveto
          191 195 rlineto
          -564 vlineto
          -14 9 -8 21 vhcurveto
          endchar
        </CharString>
        <CharString name="asciicircum">
          -138 320 364 hstem
          37 286 vstem
          60 320 rmoveto
          9 hlineto
          16 10 7 16 5 hvcurveto
          80 261 80 -261 rlineto
          -16 4 12 -7 16 hhcurveto
          8 hlineto
          16 7 8 13 4 -1 5 -1 5 hvcurveto
          -102 309 rlineto
          16 -5 -9 4 -15 hhcurveto
          -20 hlineto
          -14 -10 -4 -16 -5 hvcurveto
          -102 -309 rlineto
          -1 -5 -1 -5 -4 vvcurveto
          -13 8 -8 15 vhcurveto
          endchar
        </CharString>
        <CharString name="asciitilde">
          -61 226 59 callgsubr
          51 354 hintmask 00000000
          hintmask 01100000
          74 227 rmoveto
          -1 5 4 -1 4 hhcurveto
          8 5 4 10 8 hvcurveto
          20 14 11 7 17 hhcurveto
          hintmask 10100000
          41 60 -40 53 hhcurveto
          42 30 18 50 25 hvcurveto
          3 -24 callgsubr
          6 -4 2 -10 4 vhcurveto
          -8 3 rlineto
          2 -5 -4 1 -4 hhcurveto
          -8 -7 -4 -11 -8 hvcurveto
          -20 -15 -12 -6 -18 hhcurveto
          hintmask 01100000
          -41 -59 40 -50 hhcurveto
          -43 -32 -18 -51 -23 hvcurveto
          -2 -21 callgsubr
          3 -4 8 -3 vhcurveto
          endchar
        </CharString>
        <CharString name="asterisk">
          -199 436 273 hstem
          128 40 vstem
          77 436 rmoveto
          5 6 3 6 4 hvcurveto
          56 86 55 -86 rlineto
          -6 4 6 -3 5 hhcurveto
          10 13 10 9 4 -2 4 -3 5 hvcurveto
          -58 91 82 32 rlineto
          10 4 4 4 8 vvcurveto
          15 -9 8 -9 -3 -5 0 -3 -4 vhcurveto
          -76 -29 rlineto
          91 vlineto
          0 14 -6 6 -14 -14 -6 -6 0 hflex1
          -91 vlineto
          -77 29 rlineto
          3 -4 -5 0 -3 hhcurveto
          -9 -9 -9 -15 -7 5 -4 9 -4 hvcurveto
          81 -32 -57 -91 rlineto
          -3 -5 -2 -4 -4 vvcurveto
          -9 13 -10 10 vhcurveto
          endchar
        </CharString>
        <CharString name="at">
          294 -126 44 136 53 -53 61 328 62 156 44 hstemhm
          55 54 108 73 161 70 152 54 hintmask 1101111110000000
          442 705 rmoveto
          -219 -168 -206 -262 -215 113 -148 166 44 100 11 39 16 -5 7 -9 hvcurveto
          -19 -32 -29 -75 hhcurveto
          -138 -91 129 189 239 145 186 185 140 94 -110 -173 -141 -57 -130 -61 -7 -27 1 38 hvcurveto
          29 27 295 11 vvcurveto
          13 -6 8 -16 vhcurveto
          -6 hlineto
          -21 -2 -8 -33 -11 hvcurveto
          18 -15 -32 26 -44 hhcurveto
          -108 -70 -112 -157 hvcurveto
          hintmask 1011111110000000
          -147 73 -35 47 43 41 22 55 30 vhcurveto
          hintmask 1101111110000000
          -51 4 32 -26 48 hhcurveto
          114 78 143 178 203 -114 127 -171 hvcurveto
          12 -480 rmoveto
          hintmask 1011111110000000
          -86 -28 -40 -24 -28 hhcurveto
          -37 -31 30 96 101 23 101 90 33 23 -17 -13 14 hvcurveto
          hintmask 1101111110000000
          -8 -26 -8 -111 -3 -51 rrcurveto
          endchar
        </CharString>
        <CharString name="atilde">
          -35 callgsubr
          62 59 -19 59 37 callsubr
          hintmask 00000000
          hintmask 10110111
          117 4 callgsubr
          hintmask 10111011
          -102 callgsubr
          hintmask 10110111
          -88 callsubr
          90 -602 10 callgsubr
          hintmask 01111011
          -104 callsubr
          hintmask 10110111
          13 callgsubr
          hintmask 10111011
          11 callgsubr
          vhcurveto
          -129 vlineto
          hintmask 10110111
          5 callsubr
        </CharString>
        <CharString name="b">
          -6 73 -48 -21 457 74 223 -20 hstemhm
          78 86 181 90 hintmask 10111100
          278 -6 rmoveto
          95 62 109 162 169 -67 95 -98 -50 -30 -22 -29 -26 hvcurveto
          252 52 callsubr
          hintmask 01111100
          -710 vlineto
          -14 10 -8 23 vhcurveto
          6 hlineto
          16 11 3 9 4 hvcurveto
          hintmask 10111100
          10 59 rlineto
          -51 32 43 -24 45 hhcurveto
          -21 73 rmoveto
          -33 -34 25 44 -26 hvcurveto
          274 vlineto
          30 23 30 15 32 hhcurveto
          65 31 -67 -122 -125 -30 -74 -58 hvcurveto
          endchar
        </CharString>
        <CharString name="backslash">
          -209 702 -20 hstem
          2 280 vstem
          248 -20 rmoveto
          11 hlineto
          15 8 7 11 4 -1 5 -1 4 hvcurveto
          -216 670 rlineto
          15 -5 -9 6 -15 hhcurveto
          -11 hlineto
          -15 -7 -7 -11 -4 0 -3 3 -9 hvcurveto
          215 -667 rlineto
          -15 4 9 -6 15 hhcurveto
          endchar
        </CharString>
        <CharString name="bar">
          114 callsubr
          -140 rmoveto
          9 hlineto
          20 7 8 14 hvcurveto
          866 52 callgsubr
          -866 vlineto
          -14 8 -8 19 vhcurveto
          endchar
        </CharString>
        <CharString name="braceleft">
          -249 -138 62 782 62 hstem
          87 72 vstem
          165 -138 rmoveto
          45 106 callgsubr
          -17 hlineto
          -28 -6 23 39 hvcurveto
          186 vlineto
          94 -58 42 -14 6 vhcurveto
          16 11 56 42 91 vvcurveto
          187 vlineto
          39 6 22 28 vhcurveto
          17 106 callgsubr
          -45 hlineto
          -26 -52 -21 -95 hvcurveto
          -178 vlineto
          -62 -6 -38 -39 -18 vhcurveto
          -16 -7 -9 -9 -18 vvcurveto
          -14 vlineto
          -18 9 -9 16 -7 vhcurveto
          39 -18 6 -39 -61 vvcurveto
          -178 vlineto
          -97 52 -19 26 vhcurveto
          endchar
        </CharString>
        <CharString name="braceright">
          -249 -138 62 782 62 hstem
          91 72 vstem
          41 -138 rmoveto
          44 hlineto
          26 52 19 97 hvcurveto
          178 vlineto
          61 7 39 39 18 vhcurveto
          16 7 9 9 18 vvcurveto
          14 vlineto
          18 -9 9 -16 7 vhcurveto
          -39 18 -7 38 62 vvcurveto
          178 vlineto
          95 -52 21 -26 vhcurveto
          -44 hlineto
          -14 91 callgsubr
          14 vhcurveto
          16 hlineto
          28 6 -22 -39 hvcurveto
          -187 vlineto
          -91 57 -42 16 -11 vhcurveto
          -14 -6 -59 -42 -94 vvcurveto
          -186 vlineto
          -39 -6 -23 -28 vhcurveto
          -16 hlineto
          -14 91 callgsubr
          14 vhcurveto
          endchar
        </CharString>
        <CharString name="bracketleft">
          -259 -138 62 781 63 hstem
          67 72 vstem
          94 -138 rmoveto
          102 hlineto
          14 5 8 21 hvcurveto
          4 vlineto
          21 -5 8 -14 vhcurveto
          -57 781 57 hlineto
          14 5 8 21 hvcurveto
          5 vlineto
          21 -5 8 -14 vhcurveto
          -102 hlineto
          -19 -8 -9 -21 hvcurveto
          -846 38 callgsubr
          endchar
        </CharString>
        <CharString name="bracketright">
          -259 -138 62 781 63 hstem
          101 71 vstem
          43 -138 rmoveto
          103 hlineto
          18 8 -48 callgsubr
          846 vlineto
          21 -8 9 -18 vhcurveto
          -103 hlineto
          -13 -6 -8 -21 hvcurveto
          -5 vlineto
          -21 6 -8 13 vhcurveto
          58 -781 -58 hlineto
          -13 91 callgsubr
          13 vhcurveto
          endchar
        </CharString>
        <CharString name="breve">
          -242 585 66 hstem
          10 233 vstem
          127 -82 callgsubr
          endchar
        </CharString>
        <CharString name="brokenbar">
          114 callsubr
          403 rmoveto
          9 hlineto
          20 7 8 14 hvcurveto
          323 52 callgsubr
          -323 vlineto
          -14 8 -8 19 vhcurveto
          -543 vmoveto
          9 hlineto
          20 7 8 14 hvcurveto
          322 52 callgsubr
          -322 vlineto
          -14 8 -8 19 vhcurveto
          endchar
        </CharString>
        <CharString name="bullet">
          -200 203 247 hstem
          33 230 vstem
          148 203 rmoveto
          63 52 39 84 84 -52 40 -63 -63 -52 -40 -84 -84 52 -39 63 hvcurveto
          endchar
        </CharString>
        <CharString name="c">
          111 callsubr
          hstem
          46 91 vstem
          256 -6 -78 callgsubr
        </CharString>
        <CharString name="cacute">
          111 callsubr
          hstem
          46 91 vstem
          231 -93 callsubr
          25 -591 -78 callgsubr
        </CharString>
        <CharString name="cacute.loclPLK">
          111 callsubr
          56 147 hstem
          46 91 vstem
          231 585 -80 callsubr
          25 -591 -78 callgsubr
        </CharString>
        <CharString name="caron">
          -242 583 142 hstem
          17 217 vstem
          118 583 -105 callsubr
          endchar
        </CharString>
        <CharString name="caron.alt">
          -242 700 -20 hstem
          62 89 vstem
          78 526 rmoveto
          -12 callsubr
          47 callsubr
          endchar
        </CharString>
        <CharString name="ccaron">
          111 callsubr
          54 142 hstem
          46 91 vstem
          231 583 -105 callsubr
          25 -589 -78 callgsubr
        </CharString>
        <CharString name="ccedilla">
          -90 -210 49 155 72 -71 71 391 72 hstemhm
          46 91 124 66 hintmask 11011100
          387 45 rmoveto
          127 callsubr
          80 callsubr
          vhcurveto
          -10 -17 -24 -12 -42 hhcurveto
          -88 -33 60 140 139 41 52 77 39 28 -16 -8 14 hvcurveto
          -2 5 3 -2 3 hhcurveto
          11 20 38 16 24 -65 22 -60 -118 -89 -56 -209 hvcurveto
          hintmask 10111100
          -179 60 -80 121 -10 vhcurveto
          14 callsubr
          rlineto
          53 4 66 26 21 vvcurveto
          endchar
        </CharString>
        <CharString name="ccircumflex">
          -90 -6 116 callgsubr
          hstem
          46 91 vstem
          148 576 -107 callgsubr
          108 -582 -78 callgsubr
        </CharString>
        <CharString name="cdotaccent">
          111 callsubr
          78 95 hstem
          46 91 57 90 vstem
          238 -77 callgsubr
          18 -613 -78 callgsubr
        </CharString>
        <CharString name="cedilla">
          -242 -210 49 hstem
          155 66 vstem
          147 -60 rmoveto
          17 60 rlineto
          -41 hlineto
          -22 -64 -1 -7 -57 callgsubr
          58 -49 9 -25 hvcurveto
          endchar
        </CharString>
        <CharString name="cent">
          -58 -6 72 -48 -21 460 72 hstemhm
          46 91 76 38 hintmask 00000000
          hintmask 10111000
          354 96 rmoveto
          80 callsubr
          hvcurveto
          -10 -17 -24 -12 -42 hhcurveto
          -7 391 4 hlineto
          39 28 -16 -8 14 hvcurveto
          -2 5 3 -2 3 hhcurveto
          11 20 38 16 24 -65 22 -60 hvcurveto
          -2 38 hlineto
          0 11 -6 5 -13 -13 -6 -5 0 hflex1
          -40 vlineto
          -98 -13 -69 -65 -185 vvcurveto
          hintmask 01111000
          -172 56 -80 111 -15 vhcurveto
          hintmask 10111000
          -56 vlineto
          0 -11 6 -5 13 13 6 5 0 hflex1
          53 5 vlineto
          54 77 28 23 127 callsubr
          hvcurveto
          -217 170 rmoveto
          111 26 56 50 17 vhcurveto
          -377 vlineto
          -55 19 -21 61 113 vvcurveto
          endchar
        </CharString>
        <CharString name="circumflex">
          -242 576 142 hstem
          17 217 vstem
          36 576 -107 callgsubr
          endchar
        </CharString>
        <CharString name="colon">
          -310 -2 110 307 110 hstem
          47 94 vstem
          85 415 -28 callsubr
          -417 vmoveto
          35 callsubr
        </CharString>
        <CharString name="comma">
          -310 -116 224 hstem
          54 86 vstem
          47 -116 24 callsubr
        </CharString>
        <CharString name="copyright">
          94 -5 48 94 45 335 45 100 48 hstem
          9 50 98 53 323 -3 callgsubr
          12 94 rmoveto
          49 51 27 16 7 -11 25 -10 hvcurveto
          -6 -25 -30 -48 hhcurveto
          -66 -32 52 115 117 32 51 68 hvcurveto
          45 21 -27 5 hhcurveto
          8 13 25 10 16 -47 21 -45 -101 -52 -70 -143 -145 49 -67 102 hvcurveto
          endchar
        </CharString>
        <CharString name="currency">
          -36 145 61 233 61 hstem
          75 61 187 62 vstem
          88 143 rmoveto
          7 7 3 7 7 hvcurveto
          26 26 rlineto
          -21 26 32 -13 36 hhcurveto
          37 32 13 21 26 hvcurveto
          25 -25 rlineto
          -8 7 7 -3 7 hhcurveto
          7 6 4 5 5 hvcurveto
          1 1 rlineto
          5 5 5 9 5 vvcurveto
          7 -4 7 -7 7 vhcurveto
          -29 29 rlineto
          16 29 10 34 37 vvcurveto
          36 -10 34 -16 29 vhcurveto
          29 29 rlineto
          8 8 3 7 7 vvcurveto
          6 -3 5 -6 6 vhcurveto
          -2 2 rlineto
          6 -6 -8 3 -5 hhcurveto
          -7 -7 -4 -6 -6 hvcurveto
          -25 -25 rlineto
          21 -26 -32 14 -37 hhcurveto
          -36 -33 -14 -22 -26 hvcurveto
          -25 25 rlineto
          8 -7 -8 4 -7 hhcurveto
          -6 -6 -3 -5 -4 hvcurveto
          -4 -5 rlineto
          -4 -5 -2 -7 -4 vvcurveto
          -8 3 -7 7 -7 vhcurveto
          30 -28 rlineto
          -17 -28 -9 -35 -37 vvcurveto
          -37 9 -34 17 -28 vhcurveto
          -30 -30 rlineto
          -7 -7 -4 -8 -7 vvcurveto
          -7 3 -5 5 -5 vhcurveto
          2 -2 rlineto
          -6 6 7 -3 5 hhcurveto
          141 63 rmoveto
          -51 -42 41 75 75 42 42 51 52 42 -42 -75 -75 -42 -41 -52 hvcurveto
          endchar
        </CharString>
        <CharString name="d">
          -17 -6 73 -47 -21 456 74 223 72 callsubr
          hintmask 10111100
          34 callgsubr
          hintmask 01111100
          -55 callgsubr
          hintmask 10111100
          76 callsubr
          vhcurveto
          21 73 -23 callsubr
          endchar
        </CharString>
        <CharString name="dagger">
          -70 422 61 callgsubr
          540 118 vlineto
          14 callgsubr
          20 -46 callgsubr
          -118 178 hlineto
          14 -11 8 -24 vhcurveto
          -6 hlineto
          -25 -9 -8 -14 hvcurveto
          -178 -120 vlineto
          102 callgsubr
          -540 hlineto
          -14 11 -8 24 vhcurveto
          endchar
        </CharString>
        <CharString name="daggerdbl">
          -70 60 80 282 61 callgsubr
          178 118 vlineto
          14 callgsubr
          20 -46 callgsubr
          -118 282 118 6 callgsubr
          20 -46 callgsubr
          -118 178 hlineto
          14 -11 8 -24 vhcurveto
          -6 hlineto
          -25 -9 -8 -14 hvcurveto
          -178 -120 vlineto
          102 callgsubr
          -282 -120 hlineto
          102 callgsubr
          -178 hlineto
          -14 11 -8 24 vhcurveto
          endchar
        </CharString>
        <CharString name="dcaron">
          -17 -6 73 -47 -21 456 74 171 -20 72 72 callsubr
          49 89 hintmask 10111111
          34 callgsubr
          hintmask 01111111
          -55 callgsubr
          hintmask 10111111
          76 callsubr
          vhcurveto
          265 532 rmoveto
          -12 callsubr
          47 callsubr
          -244 -459 -23 callsubr
          endchar
        </CharString>
        <CharString name="dcroat">
          -31 -6 73 -47 -21 456 74 69 70 84 72 callsubr
          hintmask 10111110
          449 668 rmoveto
          -45 62 hlineto
          14 -12 109 callgsubr
          -26 -11 -8 -14 hvcurveto
          -62 -91 vlineto
          36 callsubr
          91 -120 hlineto
          29 -26 -30 22 -50 hhcurveto
          -98 -67 -96 -169 76 callsubr
          45 43 24 51 31 hvcurveto
          hintmask 01111110
          -35 6 2 -35 25 hhcurveto
          11 47 5 17 hvcurveto
          7 -10 38 82 vvcurveto
          450 45 vlineto
          15 -14 callsubr
          10 vlineto
          hintmask 10111110
          21 -6 9 -15 vhcurveto
          -131 -532 rmoveto
          -44 -26 -34 -25 -33 hhcurveto
          -59 -30 74 124 124 32 66 66 32 29 -15 -30 23 hvcurveto
          endchar
        </CharString>
        <CharString name="degree">
          -222 441 45 175 45 hstem
          31 47 116 49 vstem
          137 441 rmoveto
          62 44 51 81 82 -44 51 -62 -62 -44 -51 -82 -81 44 -51 62 hvcurveto
          -1 45 rmoveto
          -36 -22 32 55 55 22 33 36 36 22 -33 -55 -55 -22 -32 -36 hvcurveto
          endchar
        </CharString>
        <CharString name="dieresis">
          -242 607 95 hstem
          27 78 48 78 vstem
          65 607 -99 callgsubr
          endchar
        </CharString>
        <CharString name="divide">
          -50 -2 95 104 67 104 95 hstem
          183 81 vstem
          221 368 rmoveto
          5 -73 callgsubr
          51 -55 callsubr
          -5 -92 callgsubr
          -51 -77 callsubr
          -164 -171 rmoveto
          335 hlineto
          17 92 callgsubr
          -17 vhcurveto
          -335 hlineto
          37 callgsubr
          164 -199 rmoveto
          5 -73 callgsubr
          51 -55 callsubr
          -5 -92 callgsubr
          -51 -77 callsubr
          endchar
        </CharString>
        <CharString name="dollar">
          -58 -5 79 -54 -21 633 79 -3 -20 70 -20 hstemhm
          47 88 75 37 72 89 hintmask 01011111
          228 -71 rmoveto
          2 hlineto
          13 4 5 11 hvcurveto
          54 vlineto
          95 16 66 69 110 vvcurveto
          117 -77 42 -79 40 vhcurveto
          -5 3 rlineto
          hintmask 01101111
          236 vlineto
          37 34 -7 -12 24 hvcurveto
          -2 4 5 -3 4 hhcurveto
          13 15 46 15 3 0 5 -7 4 hvcurveto
          21 -35 -41 9 -53 hhcurveto
          31 vlineto
          11 -5 5 -13 vhcurveto
          -1 hlineto
          -12 -6 -5 -11 hvcurveto
          hintmask 10011111
          -34 vlineto
          -97 -16 -66 -70 -107 vvcurveto
          -114 78 -43 85 -42 vhcurveto
          -242 vlineto
          -58 -49 12 31 -39 hvcurveto
          1 -2 -2 3 -5 hhcurveto
          -15 -8 -37 -20 -14 4 -4 7 -5 hvcurveto
          -32 44 53 -14 70 hhcurveto
          hintmask 01011111
          -50 vlineto
          -11 6 -5 12 vhcurveto
          -18 487 rmoveto
          -47 28 -28 30 51 vvcurveto
          56 33 34 42 12 vhcurveto
          37 -546 rmoveto
          215 vlineto
          41 -24 31 -29 -56 vvcurveto
          -54 -29 -38 -43 -14 vhcurveto
          endchar
        </CharString>
        <CharString name="dotaccent">
          -242 607 95 hstem
          85 90 vstem
          129 -77 callgsubr
          endchar
        </CharString>
        <CharString name="dotbelowcomb">
          -498 -175 95 hstem
          -42 90 vstem
          2 -175 -105 callgsubr
          endchar
        </CharString>
        <CharString name="dotlessi">
          115 callgsubr
          125 -2 -86 callsubr
          endchar
        </CharString>
        <CharString name="e">
          82 callgsubr
          256 -6 -99 callsubr
        </CharString>
        <CharString name="eacute">
          82 callgsubr
          224 -93 callsubr
          32 -591 -99 callsubr
        </CharString>
        <CharString name="ebreve">
          -6 callgsubr
          56 66 118 callsubr
          231 -82 callgsubr
          25 -591 -99 callsubr
        </CharString>
        <CharString name="ecaron">
          -6 callgsubr
          54 142 118 callsubr
          224 583 -105 callsubr
          32 -589 -99 callsubr
        </CharString>
        <CharString name="ecircumflex">
          -44 -6 72 161 72 158 72 47 142 hstem
          47 90 193 -44 callsubr
          endchar
        </CharString>
        <CharString name="edieresis">
          -6 callgsubr
          78 95 hstemhm
          47 90 -7 78 48 78 -4 89 hintmask 00000000
          hintmask 11110110
          168 607 -99 callgsubr
          hintmask 11111001
          -38 -613 -99 callsubr
        </CharString>
        <CharString name="edotaccent">
          -6 callgsubr
          78 95 hstem
          47 90 50 90 53 89 vstem
          231 -77 callgsubr
          25 -613 -99 callsubr
        </CharString>
        <CharString name="egrave">
          82 callgsubr
          255 585 -100 callsubr
          1 -591 -99 callsubr
        </CharString>
        <CharString name="eight">
          -39 -6 72 568 72 hstemhm
          40 86 -64 84 172 85 -69 86 hintmask 11100100
          228 -6 rmoveto
          111 81 72 130 105 -52 43 -58 32 hvcurveto
          hintmask 11011000
          52 27 41 51 84 vvcurveto
          118 -85 50 -86 -94 -76 -58 -117 -82 36 -45 44 -30 vhcurveto
          hintmask 11100100
          -54 -28 -48 -51 -103 vvcurveto
          -135 84 -63 104 vhcurveto
          hintmask 11011000
          17 415 rmoveto
          -53 26 -46 29 72 vvcurveto
          67 38 31 47 48 39 -30 -70 -60 -29 -37 -44 -28 vhcurveto
          hintmask 11100100
          -16 -343 rmoveto
          -55 -48 40 91 74 31 41 47 30 hvcurveto
          65 -31 65 -25 -90 vvcurveto
          -80 -46 -50 -59 vhcurveto
          endchar
        </CharString>
        <CharString name="ellipsis">
          54 -2 110 hstem
          47 94 88 94 88 94 vstem
          85 -2 -28 callsubr
          182 hmoveto
          -63 callsubr
          182 hmoveto
          35 callsubr
        </CharString>
        <CharString name="emacron">
          -6 callgsubr
          83 70 118 callsubr
          135 612 -84 callsubr
          121 -618 -99 callsubr
        </CharString>
        <CharString name="emdash">
          388 230 70 hstem
          0 886 vstem
          19 230 rmoveto
          848 28 callsubr
          -848 22 callsubr
        </CharString>
        <CharString name="endash">
          -55 230 70 hstem
          0 443 vstem
          19 230 rmoveto
          405 28 callsubr
          -405 22 callsubr
        </CharString>
        <CharString name="eng">
          -212 72 159 101 callgsubr
          hstem
          78 86 163 87 vstem
          303 -212 rmoveto
          43 68 21 111 hvcurveto
          453 vlineto
          97 -47 59 -83 -50 -46 -28 -47 -30 vhcurveto
          32 -6 -1 36 -25 hhcurveto
          -11 -47 -5 -18 hvcurveto
          -6 10 -38 -82 vvcurveto
          -353 25 callsubr
          11 -5 callgsubr
          41 20 35 29 37 hhcurveto
          48 23 -33 -58 hvcurveto
          -437 vlineto
          -55 -17 -13 -20 vhcurveto
          -24 -5 5 -7 hhcurveto
          -14 -7 -39 -8 114 callgsubr
          hvcurveto
          endchar
        </CharString>
        <CharString name="eogonek">
          -44 -170 63 101 56 callgsubr
          hstemhm
          47 90 138 61 -6 89 hintmask 00000000
          hintmask 11111100
          426 -100 rmoveto
          -7 callsubr
          20 8 30 17 30 hvcurveto
          29 13 17 17 12 vvcurveto
          11 -21 39 -14 vhcurveto
          -56 callgsubr
          hintmask 01111010
          249 hlineto
          12 21 29 12 170 -59 91 -116 -130 -67 -94 -177 -179 68 -85 141 hvcurveto
          hintmask 11111100
          13 14 1 2 12 hvcurveto
          -15 -30 -5 -30 -19 -52 callgsubr
          hintmask 01111010
          -185 557 78 callsubr
        </CharString>
        <CharString name="equal">
          126 callsubr
          61 271 rmoveto
          328 hlineto
          16 92 callgsubr
          -16 vhcurveto
          -328 hlineto
          37 callgsubr
          -164 vmoveto
          328 104 callsubr
          -328 96 callsubr
          -8 vlineto
          -19 8 -11 16 vhcurveto
          endchar
        </CharString>
        <CharString name="estimated">
          117 -7 55 307 50 252 50 hstem
          22 119 337 115 vstem
          141 355 rmoveto
          452 hlineto
          227 -127 125 -154 -159 -131 -125 -227 -232 135 -130 163 81 77 39 65 55 vhcurveto
          6 8 4 7 6 vvcurveto
          12 -13 16 -18 -8 -7 -6 -9 -6 vhcurveto
          -52 -38 -73 -31 -60 hhcurveto
          -72 -63 28 57 -44 hvcurveto
          171 524 rmoveto
          64 59 -29 -55 43 hvcurveto
          -168 -337 168 vlineto
          55 42 61 29 68 hhcurveto
          endchar
        </CharString>
        <CharString name="eth">
          -21 -6 72 388 72 69 50 -23 49 hstemhm
          47 88 207 88 hintmask 11011100
          327 618 rmoveto
          60 8 rlineto
          10 1 5 5 7 vvcurveto
          5 -6 27 -19 -4 -47 -7 -4 -27 vhcurveto
          hintmask 11101100
          -13 18 -10 12 -10 12 rrcurveto
          7 -6 -8 5 -12 hhcurveto
          -11 -9 -1 -1 -7 hvcurveto
          -11 -2 -5 -5 -7 vvcurveto
          -10 11 -16 15 -22 vhcurveto
          -72 -10 rlineto
          -10 -2 -5 -4 -7 vvcurveto
          -14 12 -18 14 2 2 1 11 82 vhcurveto
          17 -27 17 -31 11 -30 rrcurveto
          5 -17 -17 2 -19 hhcurveto
          -125 -68 -96 -171 -172 67 -93 126 125 65 93 173 hvcurveto
          hintmask 11011100
          128 -36 112 -67 118 vhcurveto
          -89 -552 rmoveto
          -71 -32 62 133 132 32 61 71 71 33 -62 -131 -133 -33 -62 -71 hvcurveto
          endchar
        </CharString>
        <CharString name="exclam">
          -252 -2 110 594 -20 hstemhm
          73 94 -82 70 hintmask 11010000
          116 202 rmoveto
          8 hlineto
          23 7 8 14 1 hvcurveto
          9 152 10 152 9 152 rrcurveto
          14 -12 8 -25 vhcurveto
          -23 -92 callgsubr
          -456 vlineto
          -14 8 -8 23 vhcurveto
          hintmask 11100000
          -5 -204 rmoveto
          35 callsubr
        </CharString>
        <CharString name="exclamdown">
          -252 415 110 hstemhm
          63 98 -82 94 hintmask 00000000
          hintmask 10100000
          117 415 -28 callsubr
          hintmask 11000000
          -17 -594 rmoveto
          23 -73 callgsubr
          456 vlineto
          14 -7 8 -23 vhcurveto
          -9 hlineto
          -23 -6 124 callsubr
          -11 -152 -18 -279 -25 vvcurveto
          -14 12 -8 25 vhcurveto
          endchar
        </CharString>
        <CharString name="f">
          -212 19 -21 453 44 callsubr
          hstem
          97 84 vstem
          137 -2 rmoveto
          12 callsubr
          -67 98 hlineto
          -59 callsubr
          -431 hlineto
          -16 callgsubr
          endchar
        </CharString>
        <CharString name="f_f">
          74 19 -21 453 44 callsubr
          hstem
          97 84 202 84 vstem
          534 523 rmoveto
          -67 98 hlineto
          56 19 7 22 vhcurveto
          22 6 -6 8 hhcurveto
          15 7 39 8 21 -39 10 -30 -42 -72 -17 -110 hvcurveto
          -106 -202 98 vlineto
          -59 callsubr
          -431 hlineto
          -16 callgsubr
          -38 callgsubr
          431 202 -431 vlineto
          -14 12 -8 28 vhcurveto
          12 callsubr
          endchar
        </CharString>
        <CharString name="f_t">
          86 -6 72 -47 -21 453 44 callsubr
          hstemhm
          97 84 196 84 hintmask 00000000
          hintmask 10111100
          534 71 rmoveto
          12 callgsubr
          322 66 vlineto
          -39 callsubr
          -66 105 hlineto
          73 callsubr
          -10 hlineto
          -21 -10 124 callsubr
          -12 -105 rlineto
          -196 98 hlineto
          -59 callsubr
          hlineto
          hintmask 01111100
          90 callgsubr
          431 196 -336 vlineto
          hintmask 10111100
          -102 67 -19 45 54 callsubr
          vhcurveto
          endchar
        </CharString>
        <CharString name="fi">
          42 19 -21 453 72 84 95 -18 72 hstemhm
          97 84 188 90 -88 84 hintmask 11011010
          415 523 rmoveto
          -234 98 hlineto
          -59 callsubr
          -431 hlineto
          -16 callgsubr
          -38 callgsubr
          431 190 90 callgsubr
          483 vlineto
          13 -12 7 -28 vhcurveto
          hintmask 11101100
          179 vmoveto
          -2 callgsubr
        </CharString>
        <CharString name="five">
          -39 -6 72 284 72 206 72 hstem
          67 91.5 171.5 86 vstem
          202 -6 rmoveto
          101 113 47 169 167 -122 45 -98 hvcurveto
          -44 hlineto
          13 206 rlineto
          199 51 callgsubr
          -248 hlineto
          -21 -10 -9 -21 -1 hvcurveto
          -17 -290 rlineto
          -21 6 -9 22 vhcurveto
          75 hlineto
          104 56 -47 -91 -97 -63 -49 -68 hvcurveto
          -74 -38 38 -16 hhcurveto
          -11 -24 -31 -19 -25 68 -35 98 hvcurveto
          endchar
        </CharString>
        <CharString name="fl">
          58 -6 72 -51 -21 25 -21 453 44 callsubr
          -4 -20 hstemhm
          97 84 181 84 hintmask 00110111
          137 -2 rmoveto
          12 callsubr
          -67 hlineto
          hintmask 00111011
          98 vlineto
          -59 callsubr
          -431 hlineto
          hintmask 00110111
          -16 callgsubr
          hintmask 01010111
          331 -4 66 callgsubr
          hintmask 10010111
          -58 callgsubr
          hintmask 01010111
          99 callsubr
          endchar
        </CharString>
        <CharString name="florin">
          -169 441 72 171 72 hstem
          98 83.5 vstem
          49 -207 rmoveto
          10 hlineto
          28 11 7 14 1 hvcurveto
          69 627 rlineto
          83 hlineto
          23 4 38 14 14 -6 6 -11 hvcurveto
          -85 hlineto
          11 97 rlineto
          66 7 30 8 28 29 4 -5 9 hhcurveto
          14 13 39 8 1 hvcurveto
          27 -41 3 -28 -50 -86 -18 -120 -13 vhcurveto
          -12 -105 rlineto
          -42 hlineto
          -24 -3 -31 -22 -13 5 -6 12 hvcurveto
          44 hlineto
          -36 -354 -33 -265 -8 vvcurveto
          -14 8 -7 26 vhcurveto
          endchar
        </CharString>
        <CharString name="four">
          -39 19 -21 169 72 463 -20 hstem
          283 83 vstem
          313 -2 rmoveto
          23 hlineto
          21 9 8 14 hvcurveto
          147 56 vlineto
          -39 callsubr
          -56 441 hlineto
          73 callsubr
          -20 hlineto
          -14 -14 -4 -9 -6 hvcurveto
          -268 -460 rlineto
          -1 -3 -1 -3 -5 vvcurveto
          -19 13 -32 11 vhcurveto
          247 -147 hlineto
          -14 9 -8 21 vhcurveto
          -211 241 rmoveto
          186 324 4 -2 rlineto
          -5 -32 -4 -31 -59 vvcurveto
          -200 vlineto
          endchar
        </CharString>
        <CharString name="fraction">
          -287 18 -21 706 -20 hstem
          -64 348 vstem
          -45 -3 rmoveto
          7 hlineto
          15 8 8 15 7 hvcurveto
          288 648 rlineto
          3 5 1 5 5 vvcurveto
          12 -6 8 -12 vhcurveto
          -8 hlineto
          -14 -10 -8 -15 -7 hvcurveto
          -288 -648 rlineto
          -2 -5 -1 -5 -5 vvcurveto
          -12 7 -8 12 vhcurveto
          endchar
        </CharString>
        <CharString name="g">
          -27 33 callsubr
          61 callsubr
          hintmask 0000000000000000
          hintmask 1100100010000000
          220 -212 18 callsubr
          hintmask 1100001100000000
          -58 callsubr
          hintmask 1001010100000000
          3 callgsubr
          hintmask 1100001100000000
          7 callsubr
          hintmask 1100100100000000
          -48 -25 -30 -42 -59 vvcurveto
          hintmask 1100100010000000
          -92 75 -32 101 vhcurveto
          hintmask 1010010100000000
          -11 callgsubr
          hintmask 1100100010000000
          -20 callsubr
        </CharString>
        <CharString name="g.ss01">
          19 callgsubr
          hstemhm
          39 86 185 84 hintmask 00000000
          hintmask 11011100
          367 525 41 callsubr
          hintmask 11101100
          -67 callgsubr
          hintmask 11011100
          8 callgsubr
          hintmask 11101100
          -26 callsubr
        </CharString>
        <CharString name="gbreve">
          -27 33 callsubr
          56 66 61 callsubr
          hintmask 1100101010000000
          231 -82 callgsubr
          hintmask 1100110001000000
          -11 -797 -54 callgsubr
        </CharString>
        <CharString name="gbreve.ss01">
          19 callgsubr
          80 66 hstemhm
          39 86 185 84 hintmask 11101110
          233 -82 callgsubr
          hintmask 11011110
          134 -60 41 callsubr
          hintmask 11101110
          -67 callgsubr
          hintmask 11011110
          8 callgsubr
          hintmask 11101110
          -26 callsubr
        </CharString>
        <CharString name="gcircumflex">
          -27 33 callsubr
          47 142 61 callsubr
          hintmask 1100101010000000
          141 576 -107 callgsubr
          hintmask 1100110001000000
          79 -788 -54 callgsubr
        </CharString>
        <CharString name="gcircumflex.ss01">
          19 callgsubr
          71 142 hstemhm
          39 86 185 84 hintmask 11101110
          143 576 -107 callgsubr
          hintmask 11011110
          224 -51 41 callsubr
          hintmask 11101110
          -67 callgsubr
          hintmask 11011110
          8 callgsubr
          hintmask 11101110
          -26 callsubr
        </CharString>
        <CharString name="gcommaaccent">
          -61 33 callsubr
          hstemhm
          44 71 -52 74 -47 67 23 83 55 73 -54 76 hintmask 1100010110000000
          264 769 rmoveto
          -27 -57 -60 -96 -17 12 -11 23 hvcurveto
          84 callgsubr
          vhcurveto
          hintmask 1100100101000000
          -44 -981 18 callsubr
          hintmask 1100001110000000
          -58 callsubr
          hintmask 1001010110000000
          3 callgsubr
          hintmask 1100001110000000
          7 callsubr
          hintmask 1100100110000000
          -48 -25 -30 -42 -59 vvcurveto
          hintmask 1100100101000000
          -92 75 -32 101 vhcurveto
          hintmask 1010010110000000
          -11 callgsubr
          hintmask 1100100101000000
          -20 callsubr
        </CharString>
        <CharString name="gcommaaccent.ss01">
          19 callgsubr
          hstemhm
          39 86 65 83 37 84 hintmask 11101110
          225 585 rmoveto
          84 callgsubr
          -27 -57 -60 -96 -17 12 -11 23 vhcurveto
          hintmask 11011110
          142 -60 41 callsubr
          hintmask 11101110
          -67 callgsubr
          hintmask 11011110
          8 callgsubr
          hintmask 11101110
          -26 callsubr
        </CharString>
        <CharString name="gdotaccent">
          -27 33 callsubr
          78 95 hstemhm
          44 71 -52 74 -47 67 30 90 41 73 -54 76 hintmask 1100101011000000
          231 -77 callgsubr
          hintmask 1100110010100000
          -11 -819 18 callsubr
          hintmask 1100100111000000
          -58 callsubr
          hintmask 1001101011000000
          3 callgsubr
          hintmask 1100100111000000
          7 callsubr
          hintmask 1100110011000000
          -48 -25 -30 -42 -59 vvcurveto
          hintmask 1100110010100000
          -92 75 -32 101 vhcurveto
          hintmask 1010101011000000
          -11 callgsubr
          hintmask 1100110010100000
          -20 callsubr
        </CharString>
        <CharString name="gdotaccent.ss01">
          19 callgsubr
          102 95 hstemhm
          39 86 64 90 31 84 hintmask 11101111
          233 -77 callgsubr
          hintmask 11011111
          134 -82 41 callsubr
          hintmask 11101111
          -67 callgsubr
          hintmask 11011111
          8 callgsubr
          hintmask 11101111
          -26 callsubr
        </CharString>
        <CharString name="germandbls">
          -18 0 72 268 72 222 72 hstemhm
          80 86 158 90 -67 88 hintmask 11110100
          118 -2 rmoveto
          34 callsubr
          512 vlineto
          65 28 37 51 vhcurveto
          hintmask 11111000
          42 37 -23 -78 -73 -39 -48 -46 hvcurveto
          -6 hlineto
          -12 -23 callgsubr
          13 vhcurveto
          hintmask 11110100
          17 hlineto
          55 41 -50 -85 -84 -40 -49 -52 hvcurveto
          -21 hlineto
          -13 -23 callgsubr
          13 vhcurveto
          23 hlineto
          104 74 73 131 89 -35 71 -72 20 hvcurveto
          3 vlineto
          hintmask 11111000
          52 25 34 61 68 vvcurveto
          122 -80 43 -86 -109 -59 -72 -102 vhcurveto
          -512 vlineto
          hintmask 11110100
          -71 callgsubr
          endchar
        </CharString>
        <CharString name="grave">
          -242 100 callgsubr
          53 147 vstem
          179 585 -100 callsubr
          endchar
        </CharString>
        <CharString name="gravecomb">
          -498 100 callgsubr
          -102 147 vstem
          24 585 -100 callsubr
          endchar
        </CharString>
        <CharString name="greater">
          109 callsubr
          35 379 vstem
          62 9 rmoveto
          331 174 rlineto
          15 8 6 10 17 vvcurveto
          17 vlineto
          17 -6 11 -15 7 vhcurveto
          -331 174 rlineto
          -18 9 -8 -11 -21 vvcurveto
          -14 vlineto
          -17 6 87 callsubr
          -7 -11 -17 vvcurveto
          -14 vlineto
          -17 7 -16 20 10 vhcurveto
          endchar
        </CharString>
        <CharString name="greaterequal">
          -45 0 73 hstem
          37 378 vstem
          37 137 rmoveto
          -21 8 -11 18 9 vhcurveto
          331 174 rlineto
          14 8 7 10 17 vvcurveto
          17 vlineto
          17 -7 11 -14 7 vhcurveto
          -331 174 rlineto
          -17 9 -8 -11 -21 vvcurveto
          -14 vlineto
          -17 5 87 callsubr
          -6 -11 -17 vvcurveto
          24 -151 rmoveto
          330 hlineto
          39 callgsubr
        </CharString>
        <CharString name="guillemotleft">
          -93 62 392 hstem
          31 331 vstem
          165 62 rmoveto
          -30 callsubr
          158 hmoveto
          -30 callsubr
          endchar
        </CharString>
        <CharString name="guillemotright">
          -93 62 392 hstem
          36 330 vstem
          76 62 rmoveto
          -31 callsubr
          157 hmoveto
          -31 callsubr
          endchar
        </CharString>
        <CharString name="guilsinglleft">
          -251 62 392 hstem
          32 173 vstem
          166 62 rmoveto
          -30 callsubr
          endchar
        </CharString>
        <CharString name="guilsinglright">
          -251 62 392 hstem
          36 173 vstem
          76 62 rmoveto
          -31 callsubr
          endchar
        </CharString>
        <CharString name="h">
          -13 100 callsubr
          223 -20 hstem
          81 81 callgsubr
          vstem
          119 -2 -48 callsubr
          endchar
        </CharString>
        <CharString name="hbar">
          -13 100 callsubr
          69 70 84 -20 hstem
          81 81 callgsubr
          vstem
          289 529 rmoveto
          -52 -43 -28 -39 -27 hvcurveto
          136 86 vlineto
          15 -14 callsubr
          10 -5 callsubr
          -15 vhcurveto
          -86 62 105 callgsubr
          -62 -50 vlineto
          36 callsubr
          50 -578 hlineto
          -71 callgsubr
          10 -5 callgsubr
          23 7 35 47 51 hhcurveto
          48 23 -34 -57 hvcurveto
          -345 -77 callsubr
          10 -73 callgsubr
          353 vlineto
          112 -61 44 -67 vhcurveto
          endchar
        </CharString>
        <CharString name="hcircumflex">
          -13 100 callsubr
          223 -20 51 142 hstem
          81 81 callgsubr
          vstem
          34 783 -107 callgsubr
          85 -785 -48 callsubr
          endchar
        </CharString>
        <CharString name="hookabovecomb">
          -498 699 51 hstem
          -204 62 vstem
          -233 563 -96 callgsubr
          endchar
        </CharString>
        <CharString name="hungarumlaut">
          -191 100 callgsubr
          28 275 vstem
          49 585 -83 callsubr
          endchar
        </CharString>
        <CharString name="hyphen">
          11 callsubr
        </CharString>
        <CharString name="i">
          43 callgsubr
          102 95 hstemhm
          83 90 -88 84 hintmask 00000000
          hintmask 11110000
          127 -77 callgsubr
          hintmask 11101000
          -2 -609 -86 callsubr
          endchar
        </CharString>
        <CharString name="i.loclTRK">
          43 callgsubr
          102 95 hstemhm
          83 90 -88 84 hintmask 00000000
          hintmask 11110000
          127 -77 callgsubr
          hintmask 11101000
          -2 -609 -86 callsubr
          endchar
        </CharString>
        <CharString name="iacute">
          115 callgsubr
          120 -93 callsubr
          5 -587 -86 callsubr
          endchar
        </CharString>
        <CharString name="iacute_j.loclNLD">
          5 -212 72 159 -21 527 -20 hstem
          85 84 170 84 vstem
          120 -93 callsubr
          254 hmoveto
          -106 callgsubr
          -249 -587 -86 callsubr
          189 -210 rmoveto
          -75 callgsubr
          114 callgsubr
          hvcurveto
          endchar
        </CharString>
        <CharString name="ibreve">
          43 callgsubr
          80 66 hstem
          85 84 vstem
          127 -82 callgsubr
          -2 -587 -86 callsubr
          endchar
        </CharString>
        <CharString name="icircumflex">
          43 callgsubr
          71 142 hstem
          85 84 vstem
          37 576 -107 callgsubr
          88 -578 -86 callsubr
          endchar
        </CharString>
        <CharString name="idieresis">
          43 callgsubr
          102 95 hstemhm
          26 78 -19 84 -17 78 hintmask 00000000
          hintmask 11110100
          64 607 -99 callgsubr
          hintmask 11101000
          -65 -609 -86 callsubr
          endchar
        </CharString>
        <CharString name="igrave">
          115 callgsubr
          151 585 -100 callsubr
          -26 -587 -86 callsubr
          endchar
        </CharString>
        <CharString name="ij">
          5 111 callgsubr
          83 90 -88 84 168 90 -88 84 hintmask 00000000
          hintmask 11111010
          127 -77 callgsubr
          254 hmoveto
          33 13 9 13 hvcurveto
          112 callgsubr
          -33 -13 -9 -13 vhcurveto
          113 callsubr
          vhcurveto
          hintmask 11110101
          -256 -609 -86 callsubr
          189 -210 rmoveto
          -75 callgsubr
          114 callgsubr
          hvcurveto
          endchar
        </CharString>
        <CharString name="imacron">
          43 callgsubr
          107 70 hstem
          85 84 vstem
          31 612 -84 callsubr
          94 -614 -86 callsubr
          endchar
        </CharString>
        <CharString name="infinity">
          132 115 57 -57 60 209 60 -57 57 hstemhm
          39 69 415 69 hintmask 01101100
          458 444 rmoveto
          -73 -44 -57 -57 -24 hvcurveto
          hintmask 01011100
          82 -31 -46 32 -57 hhcurveto
          -84 -60 -69 -98 -93 54 -69 80 73 44 57 57 24 hvcurveto
          hintmask 10101100
          -82 31 46 -32 57 hhcurveto
          84 60 69 98 hvcurveto
          hintmask 01101100
          93 -54 69 -80 vhcurveto
          -278 -269 rmoveto
          -46 -26 46 58 hvcurveto
          hintmask 01011100
          61 29 47 45 39 34 -35 -76 24 vhcurveto
          hintmask 01101100
          -41 -15 -32 -60 -52 hhcurveto
          hintmask 10101100
          269 -3 rmoveto
          -39 -34 35 76 -24 hvcurveto
          41 15 32 60 52 hhcurveto
          46 26 -46 -58 -61 -29 -47 -45 hvcurveto
          endchar
        </CharString>
        <CharString name="integral">
          -200 -159 58 914 58 hstemhm
          105 79 -68 79 hintmask 11010000
          67 -159 rmoveto
          83 45 74 178 hvcurveto
          hintmask 11100000
          163 -11 198 158 vvcurveto
          141 19 60 47 vhcurveto
          15 11 -6 3 hhcurveto
          10 8 11 20 27 -41 6 -23 -83 -45 -74 -178 hvcurveto
          hintmask 11010000
          -159 11 -196 -164 vvcurveto
          -141 -19 -60 -47 vhcurveto
          -16 -10 6 -3 hhcurveto
          -10 -8 -11 -20 -27 41 -6 23 hvcurveto
          endchar
        </CharString>
        <CharString name="iogonek">
          -244 -181 63 643 -20 102 95 hstemhm
          83 90 -88 84 hintmask 00000000
          hintmask 11110000
          127 -77 callgsubr
          hintmask 11101000
          96 -718 rmoveto
          -7 callsubr
          19 7 30 17 28 hvcurveto
          8 4 4 6 8 vvcurveto
          -64 callsubr
          -9 5 -6 10 -4 vhcurveto
          -21 -34 -7 -38 -22 -52 callgsubr
          endchar
        </CharString>
        <CharString name="itilde">
          -270 80 callgsubr
          86 59 callgsubr
          85 84 hintmask 00000000
          hintmask 11011000
          -1 592 -22 callgsubr
          12 8 7 13 hhcurveto
          hintmask 11101000
          31 46 -40 -53 callgsubr
          -20 -11 -9 -6 -14 hhcurveto
          hintmask 11011000
          -36 callsubr
          135 -598 -86 callsubr
          endchar
        </CharString>
        <CharString name="j">
          -249 -212 72 665 -20 102 95 hstemhm
          83 90 -88 84 hintmask 00000000
          hintmask 11110000
          127 -77 callgsubr
          -67 -819 rmoveto
          hintmask 11101000
          -75 callgsubr
          hvcurveto
          hintmask 11110000
          114 callgsubr
          vhcurveto
          endchar
        </CharString>
        <CharString name="jcircumflex">
          -249 -212 72 665 -20 71 142 hstem
          85 84 vstem
          37 576 -107 callgsubr
          23 -788 rmoveto
          -75 callgsubr
          114 callgsubr
          hvcurveto
          endchar
        </CharString>
        <CharString name="k">
          -46 19 -21 260 25 242 -20 247 -20 hstem
          86 86 vstem
          -20 callgsubr
          endchar
        </CharString>
        <CharString name="kcommaaccent">
          -46 78 callgsubr
          260 25 242 -20 247 -20 hstemhm
          86 86 23 83 hintmask 11111100
          -20 callgsubr
          hintmask 11111110
          -177 -79 rmoveto
          -10 hlineto
          -26 -12 -13 -19 hvcurveto
          -76 -29 -38 -23 31 callgsubr
          27 57 60 96 17 -12 11 -23 vhcurveto
          endchar
        </CharString>
        <CharString name="kgreenlandic">
          -46 19 -21 250 35 242 -20 hstem
          86 86 vstem
          124 -2 rmoveto
          34 callsubr
          228 6 vlineto
          151 -237 rlineto
          -13 8 16 0 20 hhcurveto
          15 hlineto
          27 12 3 11 4 -2 4 -5 8 hvcurveto
          -161 244 143 215 rlineto
          8 13 2 7 5 vvcurveto
          7 -10 6 -23 123 callgsubr
          -17 -2 -12 -7 hvcurveto
          -145 -228 rlineto
          -5 220 105 callgsubr
          -483 -77 callsubr
          endchar
        </CharString>
        <CharString name="l">
          -228 -6 92 callsubr
          hintmask 01110000
          64 callgsubr
          hintmask 10110000
          -58 callgsubr
          hintmask 01110000
          99 callsubr
          endchar
        </CharString>
        <CharString name="lacute">
          -228 -6 92 callsubr
          hintmask 01110000
          112 782 -106 callsubr
          70 -788 66 callgsubr
          hintmask 10110000
          -58 callgsubr
          hintmask 01110000
          99 callsubr
          endchar
        </CharString>
        <CharString name="lcaron">
          -228 -6 72 -51 -21 708 -20 70 -20 hstemhm
          76 84 73 89 hintmask 01111000
          64 callgsubr
          hintmask 10111000
          -58 callgsubr
          hintmask 01111000
          99 callsubr
          hintmask 01111100
          67 534 rmoveto
          -12 callsubr
          47 callsubr
          endchar
        </CharString>
        <CharString name="lcommaaccent">
          -228 -214 -21 229 92 callsubr
          -48 83 hintmask 10111000
          64 callgsubr
          hintmask 11011000
          -58 callgsubr
          hintmask 10111000
          99 callsubr
          hintmask 10110100
          -71 -229 -80 callgsubr
          endchar
        </CharString>
        <CharString name="ldot">
          -189 -6 72 -51 -21 315 103 340 -20 hstemhm
          76 84 56 99 hintmask 01111000
          64 callgsubr
          hintmask 10111000
          -58 callgsubr
          hintmask 01111000
          99 callsubr
          hintmask 01111100
          83 315 25 callgsubr
        </CharString>
        <CharString name="less">
          109 callsubr
          32 379 vstem
          384 9 rmoveto
          20 -10 7 16 17 vvcurveto
          14 vlineto
          17 -7 88 callsubr
          6 11 17 vvcurveto
          14 vlineto
          21 -8 11 -18 -9 vhcurveto
          -331 -174 rlineto
          -15 -7 -6 -11 -17 vvcurveto
          -17 vlineto
          -17 6 -10 15 -8 vhcurveto
          endchar
        </CharString>
        <CharString name="lessequal">
          -45 0 73 hstem
          36 378 vstem
          388 114 rmoveto
          26 23 rlineto
          14 vlineto
          17 -6 88 callsubr
          5 11 17 vvcurveto
          14 vlineto
          21 -8 11 -17 -9 vhcurveto
          -331 -174 rlineto
          -14 -7 -7 -11 -17 vvcurveto
          -17 vlineto
          -17 7 -10 14 -8 vhcurveto
          333 -288 rmoveto
          39 callgsubr
        </CharString>
        <CharString name="logicalnot">
          -49 265 73 hstem
          344 76 vstem
          370 77 rmoveto
          23 hlineto
          19 8 8 14 hvcurveto
          209 vlineto
          21 -8 9 -19 vhcurveto
          -346 hlineto
          -45 callgsubr
          -13 -60 callgsubr
          297 -166 hlineto
          -14 8 -8 18 vhcurveto
          endchar
        </CharString>
        <CharString name="longs">
          -225 19 -21 453 44 callsubr
          hstem
          91 84 vstem
          131 -2 -29 callsubr
          601 vlineto
          -59 callsubr
          -431 hlineto
          -16 callgsubr
          endchar
        </CharString>
        <CharString name="lozenge">
          -52 -25 744 hstem
          40 370 vstem
          216 -25 rmoveto
          17 hlineto
          18 12 6 15 6 hvcurveto
          136 330 rlineto
          3 8 2 6 0 7 0 7 -2 6 7 flex1
          -137 331 rlineto
          15 -6 -12 6 -18 hhcurveto
          -14 hlineto
          -17 -13 -6 -15 -5 hvcurveto
          -138 -331 rlineto
          -4 -7 -1 -6 0 -7 0 -6 1 -7 -7 flex1
          136 -331 rlineto
          -15 6 12 -6 17 hhcurveto
          8 84 rmoveto
          -108 288 108 287 109 -287 rlineto
          endchar
        </CharString>
        <CharString name="lslash">
          -222 -6 72 686 -20 hstemhm
          82 84 hintmask 00000000
          hintmask 11100000
          235 71 rmoveto
          -7 -6 -5 -19 hhcurveto
          -20 -17 11 46 hvcurveto
          271 vlineto
          43 25 70 callsubr
          -43 -25 rlineto
          290 -91 callgsubr
          -340 vlineto
          -27 -16 69 callsubr
          27 16 rlineto
          -229 vlineto
          -102 65 -19 41 25 43 8 22 8 -7 39 -14 vhcurveto
          endchar
        </CharString>
        <CharString name="m">
          222 100 callsubr
          hstem
          78 86 158 86 158 86 vstem
          525 529 rmoveto
          -52 -47 -31 -46 -31 hvcurveto
          56 -21 -46 21 -47 hhcurveto
          -53 -44 -32 -43 -26 hvcurveto
          32 -6 -1 36 -25 hhcurveto
          -11 -47 -5 -18 hvcurveto
          -6 10 -38 -82 vvcurveto
          -353 25 callsubr
          11 -5 callgsubr
          23 6 34 47 49 hhcurveto
          47 22 -36 -61 hvcurveto
          -339 54 callgsubr
          347 vlineto
          16 vlineto
          33 12 34 40 44 hhcurveto
          46 22 -36 -61 hvcurveto
          -339 -77 callsubr
          10 -73 callgsubr
          347 vlineto
          115 -60 47 -67 vhcurveto
          endchar
        </CharString>
        <CharString name="macron">
          -243 612 70 hstem
          8 237 vstem
          27 612 -84 callsubr
          endchar
        </CharString>
        <CharString name="minus">
          -49 186 73 hstem
          28 393 vstem
          47 186 rmoveto
          355 6 callgsubr
          13 -46 callgsubr
          -355 hlineto
          -45 callgsubr
          -13 -60 callgsubr
          endchar
        </CharString>
        <CharString name="multiply">
          -50 1 452 hstem
          37.25 369.25 vstem
          268 227 rmoveto
          129 171 13 17 -1 6 -11 9 rlinecurve
          -17 15 -10 8 -10 5 -10 -12 rlinecurve
          -129 -173 -130 173 -11 14 -10 -9 -8 -6 rlinecurve
          -18 -15 -12 -10 3 -9 10 -13 rlinecurve
          130 -171 -130 -171 -10 -13 -3 -9 12 -10 rlinecurve
          18 -15 8 -6 10 -9 11 14 rlinecurve
          130 173 129 -173 10 -12 10 5 10 8 rlinecurve
          17 15 11 9 1 6 -13 17 rlinecurve
          endchar
        </CharString>
        <CharString name="n">
          100 callsubr
          hstem
          78 86 163 87 vstem
          115 -2 -94 callsubr
          endchar
        </CharString>
        <CharString name="nacute">
          100 callsubr
          hstem
          78 86 163 87 vstem
          237 -93 callsubr
          -122 -587 -94 callsubr
          endchar
        </CharString>
        <CharString name="nacute.loclPLK">
          100 callsubr
          56 147 hstem
          78 86 163 87 vstem
          237 585 -80 callsubr
          -122 -587 -94 callsubr
          endchar
        </CharString>
        <CharString name="napostrophe">
          100 callsubr
          hstemhm
          21 83 -26 86 163 87 hintmask 00000000
          hintmask 11101000
          20 537 -80 callgsubr
          hintmask 11011000
          95 -539 -94 callsubr
          endchar
        </CharString>
        <CharString name="ncaron">
          100 callsubr
          54 142 hstem
          78 86 163 87 vstem
          237 583 -105 callsubr
          -122 -585 -94 callsubr
          endchar
        </CharString>
        <CharString name="ncommaaccent">
          78 callgsubr
          458 73 hstem
          78 86 37 83 43 87 vstem
          115 -2 -94 callsubr
          85 -233 -80 callgsubr
          endchar
        </CharString>
        <CharString name="nine">
          -39 17 -21 297 72 266 72 hstem
          40 85 214 84 vstem
          110 -4 rmoveto
          64 249 163 296 152 -63 96 -126 -109 -85 -80 -129 -121 71 -80 97 47 39 14 19 28 hvcurveto
          -31 -113 -75 -97 -131 -56 rrcurveto
          -7 -3 -1 -5 -3 vvcurveto
          -12 12 -41 21 vhcurveto
          125 369 rmoveto
          -56 -54 37 96 93 58 40 48 50 58 -32 -141 -20 -1 -20 -2 -20 hvcurveto
          -15 -23 -37 -18 -41 hhcurveto
          endchar
        </CharString>
        <CharString name="notequal">
          126 callsubr
          389 271 rmoveto
          16 92 callgsubr
          -16 vhcurveto
          -58 hlineto
          41 63 rlineto
          19 12 -1 12 -32 hhcurveto
          -6 hlineto
          -18 -7 -8 -12 -8 hvcurveto
          -48 -74 rlineto
          -203 hlineto
          37 callgsubr
          159 hlineto
          -62 -96 rlineto
          -97 96 callsubr
          -8 vlineto
          -19 8 -11 16 vhcurveto
          52 hlineto
          -42 -65 rlineto
          -22 -13 0 -11 36 hhcurveto
          4 hlineto
          19 5 6 14 9 hvcurveto
          51 78 rlineto
          207 104 callsubr
          -163 hlineto
          62 96 rlineto
          endchar
        </CharString>
        <CharString name="ntilde">
          100 callsubr
          62 59 callgsubr
          78 86 163 87 hintmask 00000000
          hintmask 11011100
          117 4 callgsubr
          hintmask 11101100
          -102 callgsubr
          hintmask 11011100
          -88 callsubr
          8 -598 -94 callsubr
          endchar
        </CharString>
        <CharString name="numbersign">
          16 19 -21 198 77 147 77 hstemhm
          24 465 -227 74 hintmask 11110000
          117 -2 rmoveto
          7 hlineto
          27 9 7 14 1 hvcurveto
          hintmask 11101000
          25 177 rlineto
          100 hlineto
          -19 -138 -5 -35 -6 vvcurveto
          -13 9 -6 20 vhcurveto
          8 hlineto
          26 10 7 14 1 hvcurveto
          25 177 rlineto
          81 95 callgsubr
          17 -9 callsubr
          -70 hlineto
          20 147 rlineto
          77 95 callgsubr
          17 -9 callsubr
          -65 hlineto
          23 169 rlineto
          13 2 -10 7 -21 hhcurveto
          -9 hlineto
          -28 -8 -7 -14 -2 hvcurveto
          -23 -168 rlineto
          -100 hlineto
          24 169 rlineto
          13 2 -9 7 -22 hhcurveto
          -7 hlineto
          -28 -8 -7 -14 -2 hvcurveto
          -24 -168 rlineto
          -80 96 callgsubr
          -17 50 callgsubr
          70 hlineto
          -20 -147 rlineto
          -80 96 callgsubr
          -17 50 callgsubr
          68 hlineto
          -18 -130 -7 -44 -6 vvcurveto
          hintmask 11110000
          -12 10 -6 20 vhcurveto
          81 275 rmoveto
          20 147 rlineto
          100 hlineto
          -20 -147 rlineto
          endchar
        </CharString>
        <CharString name="o">
          7 callgsubr
          35 callgsubr
          240 -6 -89 callsubr
        </CharString>
        <CharString name="oacute">
          7 callgsubr
          hstem
          47 89 206 88 17 callgsubr
          8 -591 -89 callsubr
        </CharString>
        <CharString name="oacute.loclPLK">
          7 callgsubr
          56 147 35 callgsubr
          232 585 -80 callsubr
          8 -591 -89 callsubr
        </CharString>
        <CharString name="obreve">
          7 callgsubr
          56 66 35 callgsubr
          239 -82 callgsubr
          1 -591 -89 callsubr
        </CharString>
        <CharString name="ocircumflex">
          -21 87 callgsubr
          149 576 -107 callgsubr
          91 -582 -89 callsubr
        </CharString>
        <CharString name="odieresis">
          7 callgsubr
          78 95 hstemhm
          47 89 2 78 48 78 0 88 hintmask 00000000
          hintmask 11101100
          176 607 -99 callgsubr
          hintmask 11110010
          -62 -613 -89 callsubr
        </CharString>
        <CharString name="oe">
          223 55 callsubr
          hstem
          47 89 178 90 193 89 vstem
          639 108 rmoveto
          -56 callgsubr
          249 hlineto
          12 21 29 12 170 -59 91 -116 -61 -47 -21 -40 -33 hvcurveto
          40 -31 -43 21 -56 hhcurveto
          -131 -62 -97 -173 -172 61 -93 132 56 44 20 39 30 hvcurveto
          -40 35 51 -19 67 hhcurveto
          -40 callgsubr
          -400 -42 rmoveto
          -72 -31 62 133 134 31 62 72 44 31 -22 -44 17 hvcurveto
          -11 -37 -6 -45 -51 vvcurveto
          -50 5 -43 11 -35 vhcurveto
          -43 -17 -30 -21 -44 hhcurveto
          269 391 78 callsubr
        </CharString>
        <CharString name="ogonek">
          -242 -183 63 hstem
          43 61 vstem
          135 -183 rmoveto
          24 23 6 13 19 hvcurveto
          9 6 4 9 12 vvcurveto
          56 callsubr
          -7 callsubr
          20 8 31 18 30 hvcurveto
          -43 16 rlineto
          -34 -39 -10 -49 -27 vvcurveto
          -25 9 -63 83 vhcurveto
          endchar
        </CharString>
        <CharString name="ograve">
          7 callgsubr
          35 callgsubr
          263 585 -100 callsubr
          -23 -591 -89 callsubr
        </CharString>
        <CharString name="ohorn">
          7 callgsubr
          -65 32 hstemhm
          23 callgsubr
          -30 61 hintmask 11011000
          240 -6 -62 callgsubr
        </CharString>
        <CharString name="ohungarumlaut">
          7 callgsubr
          56 147 35 callgsubr
          152 585 -83 callsubr
          -40 -591 -89 callsubr
        </CharString>
        <CharString name="omacron">
          7 callgsubr
          83 70 35 callgsubr
          143 612 -84 callsubr
          97 -618 -89 callsubr
        </CharString>
        <CharString name="one">
          -39 0 72 630 -20 hstem
          197 84 vstem
          64 hmoveto
          330 51 callgsubr
          -113 609 hlineto
          12 -16 9 -15 vhcurveto
          -202 -45 rlineto
          -12 -3 -6 -5 -11 vvcurveto
          -18 6 -33 14 vhcurveto
          147 24 rlineto
          -539 -133 vlineto
          -14 -23 callgsubr
          14 vhcurveto
          endchar
        </CharString>
        <CharString name="oneeighth">
          130 -4 43 335 43 285 94 callsubr
          198 50 -37 49 102 50 -41 51 hintmask 1101110010000000
          114 -47 callsubr
          27 49 callgsubr
          hintmask 1110110010000000
          -25 callsubr
          hintmask 1101110010000000
          -10 10 -4 11 vhcurveto
          338 -301 rmoveto
          65 48 43 77 62 -31 25 -34 19 hvcurveto
          hintmask 1101101100000000
          31 16 24 30 49 vvcurveto
          70 -50 30 -51 -56 -44 -35 -69 -48 21 -27 26 -17 vhcurveto
          hintmask 1101110010000000
          -32 -17 -28 -30 -61 vvcurveto
          -79 49 -38 62 vhcurveto
          hintmask 1101101100000000
          10 245 rmoveto
          -32 16 -27 17 42 vvcurveto
          40 23 18 27 29 23 -18 -41 -35 -17 -22 -26 -17 vhcurveto
          hintmask 1101110010000000
          -10 -202 rmoveto
          -32 -29 24 53 44 19 24 27 18 hvcurveto
          39 -19 38 -14 -53 vvcurveto
          -48 -27 -29 -35 vhcurveto
          endchar
        </CharString>
        <CharString name="onehalf">
          143 0 41 324 42 295 94 callsubr
          376 49 hintmask 11011100
          111 -47 callsubr
          30 49 callgsubr
          hintmask 11101100
          -25 callsubr
          hintmask 11011100
          -10 10 -4 11 vhcurveto
          244 -297 -46 callsubr
          endchar
        </CharString>
        <CharString name="onequarter">
          88 19 -21 98 41 565 94 callsubr
          278 48 hintmask 11011100
          111 -47 callsubr
          30 49 callgsubr
          hintmask 11101100
          -25 callsubr
          hintmask 11011100
          -10 10 -4 11 vhcurveto
          324 -299 rmoveto
          -15 callsubr
        </CharString>
        <CharString name="ordfeminine">
          -217 440 51 72 46 45 54 hstem
          29 64 82 62 vstem
          107 440 rmoveto
          30 23 12 18 19 hvcurveto
          -18 3 3 -9 13 hhcurveto
          6 39 2 9 hvcurveto
          3 -6 19 41 vvcurveto
          95 vlineto
          60 -34 36 -71 -46 -49 -16 -15 -7 10 -33 7 vhcurveto
          6 34 17 35 hhcurveto
          35 11 -18 -23 hvcurveto
          -4 vlineto
          -66 -1 -80 -11 -79 vvcurveto
          -49 31 -29 47 vhcurveto
          16 51 rmoveto
          -21 -9 10 19 41 46 1 36 1 hvcurveto
          -46 vlineto
          -17 -13 -19 -9 -20 hhcurveto
          endchar
        </CharString>
        <CharString name="ordmasculine">
          -206 440 56 156 56 hstem
          33 65 97 65 vstem
          147 440 rmoveto
          73 40 47 86 86 -40 49 -73 -73 -41 -49 -86 -85 40 -48 74 hvcurveto
          -1 56 rmoveto
          -33 -15 25 53 53 15 25 33 34 15 -26 -52 -53 -15 -25 -34 hvcurveto
          endchar
        </CharString>
        <CharString name="oslash">
          7 callgsubr
          35 callgsubr
          390 447 -43 callgsubr
        </CharString>
        <CharString name="oslashacute">
          7 callgsubr
          hstem
          47 89 206 88 17 callgsubr
          158 -138 -43 callgsubr
        </CharString>
        <CharString name="otilde">
          7 callgsubr
          62 59 callgsubr
          23 callgsubr
          hintmask 00000000
          hintmask 11011100
          112 4 callgsubr
          hintmask 11101100
          -102 callgsubr
          hintmask 11011100
          -88 callsubr
          138 -602 -89 callsubr
        </CharString>
        <CharString name="p">
          -14 91 callsubr
          hstem
          78 86 182 89 vstem
          116 -208 rmoveto
          10 -73 callgsubr
          231 vlineto
          -29 26 30 -22 49 hhcurveto
          99 67 96 169 159 -60 111 -98 -45 -43 -24 -51 -31 hvcurveto
          34 -6 -1 34 -25 hhcurveto
          -11 -47 -4 -18 hvcurveto
          -6 10 -39 -82 vvcurveto
          -559 17 callsubr
        </CharString>
        <CharString name="paragraph">
          -32 638 62 hstem
          208 62 78 62 vstem
          232 -173 rmoveto
          14 hlineto
          17 7 8 14 hvcurveto
          789 78 -789 vlineto
          -14 7 -8 17 vhcurveto
          14 hlineto
          17 7 8 14 hvcurveto
          789 30 vlineto
          14 6 7 17 hvcurveto
          14 vlineto
          17 -6 7 -14 vhcurveto
          -207 hlineto
          -112 -92 -107 -131 -123 79 -101 100 -14 hvcurveto
          -375 vlineto
          -14 7 -8 17 vhcurveto
          endchar
        </CharString>
        <CharString name="parenleft">
          -249 -191 -21 hstem
          47 81 vstem
          236 -212 rmoveto
          15 13 18 10 6 -3 7 -6 7 hvcurveto
          -85 100 -42 168 182 vvcurveto
          182 42 168 86 100 vhcurveto
          7 8 2 7 7 vvcurveto
          14 -18 11 -12 -7 -7 -3 -7 -7 vhcurveto
          -102 -101 -65 -181 -205 vvcurveto
          -205 63 -182 104 -100 vhcurveto
          -7 7 8 -4 7 hhcurveto
          endchar
        </CharString>
        <CharString name="parenright">
          -249 -191 -21 hstem
          121 81 vstem
          13 -212 rmoveto
          7 8 4 7 7 hvcurveto
          102 101 65 181 205 vvcurveto
          205 -63 182 -104 100 vhcurveto
          7 -7 -7 3 -7 hhcurveto
          -14 -16 -14 -12 -6 3 -7 6 -8 hvcurveto
          87 -100 41 -168 -182 vvcurveto
          -184 -43 -169 -86 -100 vhcurveto
          -5 -6 -3 -6 -5 vvcurveto
          -11 15 -17 14 vhcurveto
          endchar
        </CharString>
        <CharString name="partialdiff">
          -87 -6 67 283 70 251 73 hstem
          26 88 180 94 vstem
          189 -6 rmoveto
          97 102 67 276 260 -91 141 -128 -64 -53 -28 -31 -14 21 -30 11 hvcurveto
          10 20 30 45 hhcurveto
          71 61 -113 -183 3 hvcurveto
          31 -27 -38 14 -39 hhcurveto
          -87 -77 -84 -139 -149 88 -48 75 hvcurveto
          67 vmoveto
          -61 -14 72 57 76 37 78 55 38 23 -17 -33 25 hvcurveto
          -136 -42 -97 -61 vhcurveto
          endchar
        </CharString>
        <CharString name="percent">
          188 -5 56 214 55 61 56 214 55 hstem
          49 66 120 64 88 -37 callsubr
          56 vmoveto
          32 callsubr
          endchar
        </CharString>
        <CharString name="period">
          -310 -2 110 hstem
          47 94 vstem
          85 -2 rmoveto
          35 callsubr
        </CharString>
        <CharString name="periodcentered">
          -284 309 103 hstem
          64 99 vstem
          113 309 25 callgsubr
        </CharString>
        <CharString name="perthousand">
          488 -5 56 214 55 61 56 214 55 hstem
          49 66 120 64 88 65 121 64 50 -37 callsubr
          300 hmoveto
          57 68 27 134 135 -68 29 -57 -60 -65 -29 -135 -134 68 -27 57 hvcurveto
          -300 56 rmoveto
          32 callsubr
          300 hmoveto
          32 callsubr
          endchar
        </CharString>
        <CharString name="pi">
          9 19 -21 453 72 hstem
          116 85 126 85 vstem
          90 -2 rmoveto
          15 hlineto
          19 14 9 16 5 hvcurveto
          30 103 23 198 5 127 rrcurveto
          126 -305 hlineto
          -106 3 -42 38 vhcurveto
          20 hlineto
          22 9 10 15 hvcurveto
          25 -7 38 68 vvcurveto
          297 42 vlineto
          16 8 4 18 2 hvcurveto
          3 26 0 3 2 vvcurveto
          15 -8 4 -15 vhcurveto
          -324 hlineto
          -68 -53 -10 -34 -23 2 -14 19 hvcurveto
          12 12 9 56 hhcurveto
          -5 -131 -23 -180 -29 -112 rrcurveto
          -1 -3 -1 -3 -3 vvcurveto
          -12 12 -9 21 vhcurveto
          endchar
        </CharString>
        <CharString name="plus">
          -49 19 -21 199 67 hstem
          191 67 vstem
          221 -2 rmoveto
          7 hlineto
          21 9 6 14 hvcurveto
          179 136 vlineto
          13 48 callgsubr
          7 vlineto
          21 -5 9 -13 vhcurveto
          -136 179 hlineto
          14 -9 6 -21 vhcurveto
          -7 hlineto
          -21 -9 -6 -14 hvcurveto
          -179 -135 vlineto
          -13 -6 -13 -21 hvcurveto
          -7 vlineto
          -21 6 -5 13 vhcurveto
          135 -179 hlineto
          -14 9 -6 21 vhcurveto
          endchar
        </CharString>
        <CharString name="plusminus">
          -49 0 73 254 67 hstem
          190 67 vstem
          220 129 rmoveto
          7 hlineto
          21 9 11 19 hvcurveto
          168 130 vlineto
          17 92 callgsubr
          -17 vhcurveto
          -130 169 hlineto
          20 -9 10 -21 vhcurveto
          -7 hlineto
          -20 -10 -10 -20 hvcurveto
          -169 -130 vlineto
          37 callgsubr
          130 -168 hlineto
          -19 10 -11 20 vhcurveto
          -165 -129 rmoveto
          337 hlineto
          17 8 10 20 hvcurveto
          13 vlineto
          20 -8 10 -17 vhcurveto
          -337 96 callsubr
          -13 vlineto
          -20 8 -10 16 vhcurveto
          endchar
        </CharString>
        <CharString name="product">
          102 628 72 hstem
          112 86 204 86 vstem
          150 -104 rmoveto
          10 -73 callgsubr
          710 204 -710 25 callsubr
          11 30 callgsubr
          710 76 vlineto
          14 callgsubr
          12 -46 callgsubr
          -528 hlineto
          -13 -23 callgsubr
          13 vhcurveto
          76 -710 hlineto
          -71 callgsubr
          endchar
        </CharString>
        <CharString name="q">
          -17 91 callsubr
          -4 -20 hstemhm
          47 89 181 87 hintmask 11101100
          355 -208 rmoveto
          11 30 callgsubr
          hintmask 11011100
          689 vlineto
          14 -10 8 -23 vhcurveto
          -6 hlineto
          -16 -11 -3 -9 -4 hvcurveto
          hintmask 11101100
          -4 -20 -4 -19 -3 -20 rrcurveto
          51 -31 -43 24 -45 hhcurveto
          -95 -62 -109 -162 -169 67 -95 98 50 30 22 29 26 hvcurveto
          -231 25 callsubr
          -122 276 rmoveto
          -66 -31 67 122 125 30 74 59 33 33 -25 -44 26 hvcurveto
          -274 vlineto
          -30 -22 -29 -15 -33 hhcurveto
          endchar
        </CharString>
        <CharString name="question">
          -107 -2 110 524 74 hstem
          104 97 80 95 vstem
          147 202 rmoveto
          15 hlineto
          24 7 7 13 2 hvcurveto
          7 51 34 39 45 51 rrcurveto
          46 53 49 54 72 vvcurveto
          91 -74 73 -120 -67 -85 -23 -34 -14 22 -37 10 vhcurveto
          14 37 34 60 hhcurveto
          70 38 -33 -65 -54 -37 -41 -45 -50 hvcurveto
          -53 -59 -29 -60 -45 vvcurveto
          -14 9 -9 21 vhcurveto
          -3 -204 rmoveto
          17 hlineto
          28 -15 callgsubr
          66 -50 callsubr
          -28 vhcurveto
          -17 hlineto
          -28 -12 -8 -14 hvcurveto
          -66 29 callsubr
          endchar
        </CharString>
        <CharString name="questiondown">
          -107 -183 74 524 110 hstem
          15 95 80 97 vstem
          247 525 rmoveto
          -17 hlineto
          -28 -12 -8 -14 hvcurveto
          -66 29 callsubr
          17 hlineto
          28 -15 callgsubr
          66 -50 callsubr
          -28 vhcurveto
          -3 -204 rmoveto
          -15 hlineto
          -24 -7 -7 -13 -2 hvcurveto
          -7 -51 -34 -39 -45 -51 rrcurveto
          -46 -53 -49 -54 -72 vvcurveto
          -91 74 -73 120 67 85 23 34 14 -22 37 -10 vhcurveto
          -14 -37 -34 -60 hhcurveto
          -70 -38 33 65 54 37 41 45 50 hvcurveto
          53 59 29 60 45 vvcurveto
          14 -9 9 -21 vhcurveto
          endchar
        </CharString>
        <CharString name="quotedbl">
          -189 472 230 hstemhm
          45 90 38 90 hintmask 00000000
          hintmask 11100000
          89 472 rmoveto
          -10 callgsubr
          128 hmoveto
          -10 callgsubr
          endchar
        </CharString>
        <CharString name="quotedblbase">
          -150 -116 224 hstem
          82 89 52 89 vstem
          68 -116 -8 callgsubr
        </CharString>
        <CharString name="quotedblleft">
          -150 515 224 hstem
          42 89 52 89 vstem
          82 515 rmoveto
          2 callsubr
          141 hmoveto
          2 callsubr
          endchar
        </CharString>
        <CharString name="quotedblright">
          -150 754 -20 hstem
          82 89 52 89 vstem
          68 530 -8 callgsubr
        </CharString>
        <CharString name="quoteleft">
          -288 515 224 hstem
          52 89 vstem
          92 515 rmoveto
          2 callsubr
          endchar
        </CharString>
        <CharString name="quoteright">
          -288 754 -20 hstem
          81 89 vstem
          67 530 27 callgsubr
          endchar
        </CharString>
        <CharString name="quotesinglbase">
          -288 -116 224 hstem
          81 89 vstem
          67 -116 27 callgsubr
          endchar
        </CharString>
        <CharString name="quotesingle">
          -334 702 -20 hstem
          39 90 vstem
          83 472 rmoveto
          -10 callgsubr
          endchar
        </CharString>
        <CharString name="quotesingle.loclGUA">
          -327 700 -20 hstem
          43 89 vstem
          70 396 rmoveto
          21 1 41 107 168 vvcurveto
          17 -15 11 -25 vhcurveto
          -9 hlineto
          -27 -13 -13 -19 hvcurveto
          -2 -257 rlineto
          47 callsubr
          endchar
        </CharString>
        <CharString name="r">
          71 callsubr
          2 callgsubr
          endchar
        </CharString>
        <CharString name="racute">
          71 callsubr
          164 582 -106 callsubr
          -41 -584 -66 callgsubr
          endchar
        </CharString>
        <CharString name="radical">
          -4 -150 112 hstemhm
          26 476 hintmask 00000000
          hintmask 11000000
          262 -150 rmoveto
          23 hlineto
          18 14 8 13 3 hvcurveto
          182 921 rlineto
          8 vlineto
          7 -8 6 -20 vhcurveto
          -14 hlineto
          -21 -13 -8 -13 -2 hvcurveto
          -139 -761 -5 -20 -6 -29 -2 -20 rlinecurve
          -2 hlineto
          -3 20 -6 24 -10 28 -83 325 rcurveline
          14 -3 -7 7 -9 hhcurveto
          -13 -60 -32 -18 -35 hvcurveto
          -10 -5 -5 -4 -8 vvcurveto
          -3 1 -3 8 -22 vhcurveto
          -10 3 6 -3 7 hhcurveto
          5 6 3 21 40 hvcurveto
          124 -425 rlineto
          -15 4 13 -6 19 hhcurveto
          endchar
        </CharString>
        <CharString name="rcaron">
          -161 19 -21 449 82 51 142 hstem
          83 84 vstem
          164 580 -105 callsubr
          -41 -582 -66 callgsubr
          endchar
        </CharString>
        <CharString name="rcommaaccent">
          71 callsubr
          2 callgsubr
          -41 -235 -80 callgsubr
          endchar
        </CharString>
        <CharString name="registered">
          94 -5 48 285 45 141 45 103 48 hstem
          9 50 138 52 105 54 125 -3 callgsubr
          -77 102 rmoveto
          8 hlineto
          16 6 5 8 hvcurveto
          170 33 vlineto
          34 14 -12 -46 14 hvcurveto
          35 -116 rlineto
          -5 1 9 -4 11 hhcurveto
          10 hlineto
          15 7 4 5 2 0 3 -2 4 hvcurveto
          -36 116 -12 39 -11 26 -17 9 rlinecurve
          2 vlineto
          32 16 22 33 51 vvcurveto
          74 -38 30 -75 vhcurveto
          -82 hlineto
          -11 -5 -5 -13 hvcurveto
          -383 vlineto
          -8 7 -5 15 vhcurveto
          29 228 rmoveto
          141 52 vlineto
          32 22 -21 -48 -39 -23 -33 -28 hvcurveto
          endchar
        </CharString>
        <CharString name="ring">
          -242 564 35 99 35 hstem
          45 36 94 37 vstem
          128 -14 callgsubr
          endchar
        </CharString>
        <CharString name="s">
          73 callgsubr
          93 callgsubr
          165 -9 -73 callsubr
        </CharString>
        <CharString name="sacute">
          73 callgsubr
          93 callgsubr
          173 -93 callsubr
          -8 -594 -73 callsubr
        </CharString>
        <CharString name="sacute.loclPLK">
          73 callgsubr
          55 147 93 callgsubr
          173 585 -80 callsubr
          -8 -594 -73 callsubr
        </CharString>
        <CharString name="scaron">
          73 callgsubr
          53 142 93 callgsubr
          173 583 -105 callsubr
          -8 -592 -73 callsubr
        </CharString>
        <CharString name="scedilla">
          -145 -210 49 152 74 393 72 hstemhm
          41 84 66 66 -20 82 hintmask 11110100
          319 140 rmoveto
          84 -42 41 -77 35 vhcurveto
          -41 21 -34 26 50 vvcurveto
          40 31 21 37 vhcurveto
          42 27 -25 6 hhcurveto
          11 20 39 15 23 -57 20 -54 -84 -63 -57 -85 -75 39 -39 69 -31 hvcurveto
          55 -27 33 -28 -50 vvcurveto
          -49 -28 -24 -48 vhcurveto
          -56 -34 39 -8 hhcurveto
          -11 -23 -37 -14 hvcurveto
          hintmask 11111000
          -21 54 -38 73 -3 vhcurveto
          -19 -56 -1 -6 -57 callgsubr
          58 -49 9 -25 hvcurveto
          15 54 rlineto
          hintmask 11110100
          69 13 52 53 80 vvcurveto
          endchar
        </CharString>
        <CharString name="scircumflex">
          73 callgsubr
          46 142 93 callgsubr
          90 576 -107 callgsubr
          75 -585 -73 callsubr
        </CharString>
        <CharString name="scommaaccent">
          -145 -214 -21 226 74 393 72 hstemhm
          41 84 9 83 20 82 hintmask 11110100
          165 -9 -72 callgsubr
          hintmask 11111100
          -32 -226 -80 callgsubr
          endchar
        </CharString>
        <CharString name="section">
          -143 -6 74 565 72 hstemhm
          34 84 -72 84 104 83 -74 83 hintmask 11100100
          171 -6 rmoveto
          hintmask 11101000
          75 71 45 91 47 -21 34 -27 24 hvcurveto
          hintmask 11010100
          34 23 23 36 50 vvcurveto
          85 -54 36 -54 27 vhcurveto
          -41 19 -47 18 48 vvcurveto
          36 25 20 40 vhcurveto
          42 27 -24 6 hhcurveto
          12 19 39 15 22 -57 20 -54 -75 -69 -45 -89 -47 21 -32 27 -23 hvcurveto
          hintmask 11101000
          -36 -23 -24 -40 -49 vvcurveto
          -83 52 -32 49 -24 vhcurveto
          60 -31 39 -15 -47 vvcurveto
          -34 -24 -23 -44 vhcurveto
          -51 -29 32 -7 hhcurveto
          -11 -22 -37 -16 hvcurveto
          hintmask 11100100
          -22 57 -31 68 vhcurveto
          24 282 rmoveto
          -41 17 -36 18 50 vvcurveto
          42 24 18 24 7 vhcurveto
          43 -20 34 -17 -48 vvcurveto
          -42 -23 -19 -25 -6 vhcurveto
          endchar
        </CharString>
        <CharString name="semicolon">
          -310 415 110 hstemhm
          47 94 -87 86 hintmask 11000000
          85 415 -28 callsubr
          hintmask 10100000
          -38 -531 24 callsubr
        </CharString>
        <CharString name="seven">
          -39 19 -21 630 72 hstem
          30 395 vstem
          119 -2 rmoveto
          12 hlineto
          20 16 5 11 4 hvcurveto
          252 624 rlineto
          1 3 1 4 4 vvcurveto
          20 -12 31 -8 vhcurveto
          -355 hlineto
          -14 -23 callgsubr
          14 vhcurveto
          278 hlineto
          -246 -598 rlineto
          -2 -6 -2 -6 -3 vvcurveto
          -13 13 -4 28 vhcurveto
          endchar
        </CharString>
        <CharString name="six">
          -39 -5 72 266 72 297 -20 hstem
          37 84 214 85 vstem
          226 -5 rmoveto
          110 84 80 129 121 -71 80 -97 -47 -39 -14 -19 -28 hvcurveto
          31 114 76 96 131 56 rrcurveto
          7 3 1 5 3 vvcurveto
          12 -12 41 -21 -65 -249 -163 -296 -152 64 -96 125 vhcurveto
          3 72 rmoveto
          -50 -58 33 141 19 1 21 2 20 hvcurveto
          15 23 37 17 41 hhcurveto
          56 54 -37 -95 -94 -57 -40 -49 hvcurveto
          endchar
        </CharString>
        <CharString name="slash">
          -178 703 -20 hstem
          -14 330 vstem
          12 5 callgsubr
        </CharString>
        <CharString name="space">
          -361 endchar
        </CharString>
        <CharString name="sterling">
          -87 0 72 267 72 223 72 hstem
          102 84 vstem
          36 hmoveto
          333 51 callgsubr
          -240 hlineto
          21 13 36 26 138 vvcurveto
          90 118 vlineto
          -39 callsubr
          -118 92 hlineto
          91 31 40 72 vhcurveto
          32 23 -9 8 hhcurveto
          16 6 45 4 27 -63 5 -38 -124 -47 -82 -126 hvcurveto
          -87 -55 vlineto
          -14 -23 callgsubr
          14 vhcurveto
          55 -180 hlineto
          -86 -86 16 -43 vvcurveto
          -16 50 callgsubr
          endchar
        </CharString>
        <CharString name="summation">
          -24 -102 85 645 72 hstem
          17 443 vstem
          44 -102 rmoveto
          392 hlineto
          16 8 10 20 hvcurveto
          25 vlineto
          19 -8 11 -16 vhcurveto
          -298 hlineto
          -1 4 175 303 rlineto
          4 8 2 6 0 7 0 7 -2 7 7 flex1
          -162 292 rlineto
          4 272 vlineto
          17 7 11 19 hvcurveto
          12 vlineto
          20 -7 10 -17 vhcurveto
          -370 hlineto
          -18 -9 -8 -16 hvcurveto
          -2 vlineto
          -14 3 -11 7 -11 vhcurveto
          190 -338 -198 -336 rlineto
          -7 -11 -3 -10 -13 vvcurveto
          -2 vlineto
          -20 9 -10 18 vhcurveto
          endchar
        </CharString>
        <CharString name="t">
          -200 -6 72 385 72 hstem
          91 84 vstem
          203 -6 rmoveto
          54 callsubr
          hvcurveto
          -69 callgsubr
          -102 67 -19 45 vhcurveto
          endchar
        </CharString>
        <CharString name="tbar">
          -214 -6 72 194 70 121 72 hstem
          91 84 vstem
          249 260 rmoveto
          15 48 callgsubr
          10 vlineto
          21 -5 9 -15 vhcurveto
          -74 121 66 51 callgsubr
          -66 105 hlineto
          73 callsubr
          -10 hlineto
          -21 -10 124 callsubr
          -12 -105 rlineto
          -33 hlineto
          -14 -23 callgsubr
          14 vhcurveto
          33 -121 -52 hlineto
          36 callsubr
          52 -145 hlineto
          -102 67 -19 45 54 callsubr
          vhcurveto
          12 callgsubr
          131 vlineto
          endchar
        </CharString>
        <CharString name="tcaron">
          -200 -6 72 385 72 229 -20 hstem
          91 84 52 89 vstem
          243 578 rmoveto
          -12 callsubr
          47 callsubr
          -40 -584 rmoveto
          54 callsubr
          hvcurveto
          -69 callgsubr
          -102 67 -19 45 vhcurveto
          endchar
        </CharString>
        <CharString name="thorn">
          -15 91 callsubr
          223 -20 hstem
          78 86 182 89 vstem
          116 -208 rmoveto
          34 callsubr
          231 vlineto
          -29 26 30 -22 50 hhcurveto
          98 67 96 168 161 -62 110 -96 -42 -40 -21 -44 -31 hvcurveto
          266 -50 callsubr
          -28 vhcurveto
          -6 hlineto
          -28 -12 -8 -14 hvcurveto
          -916 17 callsubr
        </CharString>
        <CharString name="three">
          -39 -6 72 270 71 227 72 hstemhm
          306 85 -64 87 hintmask 11101000
          202 -6 rmoveto
          116 96 70 136 112 -68 59 -58 16 hvcurveto
          4 vlineto
          hintmask 11110000
          53 22 50 41 81 vvcurveto
          108 -74 63 -119 -58 -96 -23 -30 -15 22 -37 11 vhcurveto
          14 32 33 71 hhcurveto
          91 21 -57 -40 -46 -29 -84 -97 hvcurveto
          -36 96 callgsubr
          -11 50 callgsubr
          40 hlineto
          hintmask 11101000
          84 59 -30 -100 -112 -80 -28 -57 hvcurveto
          -74 -41 35 -16 hhcurveto
          -11 -24 -31 -19 -26 83 -31 95 hvcurveto
          endchar
        </CharString>
        <CharString name="threequarters">
          129 19 -21 98 41 156 41 157 41 132 42 -3 -20 hstemhm
          190 49 -37 51 237 48 hintmask 1111100110000000
          129 293 29 callgsubr
          hintmask 1111101010000000
          -43 callsubr
          hintmask 1111100110000000
          -4 callgsubr
          26 -295 rmoveto
          12 128 callgsubr
          12 5 hvcurveto
          hintmask 1111010110000000
          48 callsubr
          -311 -671 rlineto
          -2 -4 -2 -4 -2 vvcurveto
          hintmask 1111100110000000
          -5 5 -2 8 vhcurveto
          352 hmoveto
          -15 callsubr
        </CharString>
        <CharString name="tilde">
          -206 591 59 callgsubr
          4 300 hintmask 00000000
          hintmask 01100000
          24 4 callgsubr
          hintmask 10100000
          -102 callgsubr
          hintmask 01100000
          -88 callsubr
          endchar
        </CharString>
        <CharString name="tildecomb">
          -498 591 59 callgsubr
          -141 300 hintmask 00000000
          hintmask 01100000
          -121 4 callgsubr
          hintmask 10100000
          -102 callgsubr
          hintmask 01100000
          -88 callsubr
          endchar
        </CharString>
        <CharString name="trademark">
          119 657 43 -43 44 hstemhm
          114 51 115 50 206 50 hintmask 10111000
          301 305 rmoveto
          7 hlineto
          15 7 4 8 hvcurveto
          271 5 vlineto
          78 -185 rlineto
          -5 2 4 -2 6 hhcurveto
          17 hlineto
          6 4 2 5 2 hvcurveto
          76 182 rlineto
          6 -268 hlineto
          -8 6 -4 16 vhcurveto
          6 hlineto
          15 7 4 8 hvcurveto
          hintmask 01111000
          372 vlineto
          8 -7 4 -15 vhcurveto
          -18 hlineto
          -11 -8 -3 -7 -3 hvcurveto
          -79 -188 -12 -32 -13 35 -78 185 rlineto
          7 -2 -8 3 -11 hhcurveto
          -20 hlineto
          -15 -6 -4 -8 hvcurveto
          -372 vlineto
          hintmask 10111000
          -8 6 -4 15 vhcurveto
          -166 hmoveto
          8 hlineto
          15 7 5 7 hvcurveto
          340 79 vlineto
          8 3 5 12 hvcurveto
          9 vlineto
          12 -3 5 -8 vhcurveto
          -211 hlineto
          -8 -3 -5 -12 hvcurveto
          -9 vlineto
          -12 3 -5 8 vhcurveto
          81 -340 hlineto
          -7 6 -5 15 vhcurveto
          endchar
        </CharString>
        <CharString name="two">
          -39 0 71 563 72 hstem
          326 86 vstem
          47 hmoveto
          348 95 callgsubr
          11 -9 callsubr
          -258 hlineto
          135 201 rlineto
          116 151 24 42 74 vvcurveto
          104 -81 63 -114 -71 -101 -35 -39 -16 22 -35 11 vhcurveto
          16 35 53 85 hhcurveto
          69 43 -38 -64 -42 -13 -27 -47 -68 hvcurveto
          -235 -334 rlineto
          -3 -3 -1 -7 -7 vvcurveto
          -19 8 -25 12 vhcurveto
          endchar
        </CharString>
        <CharString name="u">
          13 callsubr
          49 callsubr
          hintmask 10111000
          198 -7 rmoveto
          50 46 28 47 30 hvcurveto
          hintmask 01111000
          -79 callsubr
          hintmask 10111000
          -93 callgsubr
          vhcurveto
          endchar
        </CharString>
        <CharString name="uacute">
          13 callsubr
          49 callsubr
          hintmask 10111000
          -28 callgsubr
          -34 -592 rmoveto
          50 46 28 47 30 hvcurveto
          hintmask 01111000
          -79 callsubr
          hintmask 10111000
          -93 callgsubr
          vhcurveto
          endchar
        </CharString>
        <CharString name="ubreve">
          13 callsubr
          81 66 49 callsubr
          hintmask 10111100
          239 -82 callgsubr
          -41 -592 rmoveto
          50 46 28 47 30 hvcurveto
          hintmask 01111100
          -79 callsubr
          hintmask 10111100
          -93 callgsubr
          vhcurveto
          endchar
        </CharString>
        <CharString name="ucircumflex">
          13 callsubr
          72 142 49 callsubr
          hintmask 10111100
          149 576 -107 callgsubr
          49 -583 rmoveto
          50 46 28 47 30 hvcurveto
          hintmask 01111100
          -79 callsubr
          hintmask 10111100
          -93 callgsubr
          vhcurveto
          endchar
        </CharString>
        <CharString name="udieresis">
          13 callsubr
          103 95 hstemhm
          68 86 -16 78 48 78 -24 86 hintmask 00000000
          hintmask 10110110
          176 607 -99 callgsubr
          hintmask 10111001
          -104 -614 rmoveto
          50 46 28 47 30 hvcurveto
          hintmask 01111001
          -79 callsubr
          hintmask 10111001
          -93 callgsubr
          vhcurveto
          endchar
        </CharString>
        <CharString name="ugrave">
          13 callsubr
          49 callsubr
          hintmask 10111000
          263 585 -100 callsubr
          -65 -592 rmoveto
          50 46 28 47 30 hvcurveto
          hintmask 01111000
          -79 callsubr
          hintmask 10111000
          -93 callgsubr
          vhcurveto
          endchar
        </CharString>
        <CharString name="uhorn">
          39 callsubr
          hintmask 00000000
          hintmask 10111100
          486 581 rmoveto
          -87 callgsubr
          1 -12 26 -20 -30 vvcurveto
          -15 -9 -18 -35 vhcurveto
          hintmask 10111000
          -68 callgsubr
          hintmask 01111000
          -16 callsubr
          hintmask 10111100
          69 callgsubr
        </CharString>
        <CharString name="uhungarumlaut">
          13 callsubr
          81 147 49 callsubr
          hintmask 10111100
          152 585 -83 callsubr
          -82 -592 rmoveto
          50 46 28 47 30 hvcurveto
          hintmask 01111100
          -79 callsubr
          hintmask 10111100
          -93 callgsubr
          vhcurveto
          endchar
        </CharString>
        <CharString name="umacron">
          13 callsubr
          108 70 49 callsubr
          hintmask 10111100
          143 612 -84 callsubr
          55 -619 rmoveto
          50 46 28 47 30 hvcurveto
          hintmask 01111100
          -79 callsubr
          hintmask 10111100
          -93 callgsubr
          vhcurveto
          endchar
        </CharString>
        <CharString name="underscore">
          -71 -138 48 hstem
          -17 461 vstem
          2 -138 rmoveto
          423 hlineto
          13 6 6 14 hvcurveto
          8 vlineto
          14 -6 6 -13 vhcurveto
          -423 hlineto
          -13 -6 -6 -14 hvcurveto
          -8 vlineto
          -14 6 -6 13 vhcurveto
          endchar
        </CharString>
        <CharString name="uni00A0">
          -361 endchar
        </CharString>
        <CharString name="uni00AD">
          11 callsubr
        </CharString>
        <CharString name="uni00B2">
          -218 298 41 324 42 hstem
          198 49 vstem
          37 298 -46 callsubr
          endchar
        </CharString>
        <CharString name="uni00B3">
          -218 293 41 157 41 132 42 hstemhm
          190 49 -37 51 hintmask 11101000
          129 293 29 callgsubr
          hintmask 11110000
          -43 callsubr
          hintmask 11101000
          -4 callgsubr
          endchar
        </CharString>
        <CharString name="uni00B5">
          -45 -31 callgsubr
        </CharString>
        <CharString name="uni00B9">
          -218 702 -20 hstem
          120 50 vstem
          141 297 rmoveto
          8 hlineto
          12 9 4 10 hvcurveto
          -25 callsubr
          -10 10 -4 11 vhcurveto
          endchar
        </CharString>
        <CharString name="uni0162">
          -44 -210 49 181 -21 625 76 hstemhm
          183 90 -32 66 hintmask 11110000
          415 700 rmoveto
          -376 hlineto
          110 callgsubr
          144 -604 hlineto
          -12 8 -7 18 -2 vhcurveto
          hintmask 11101000
          -22 -63 -1 -7 -57 callgsubr
          58 -49 9 -25 hvcurveto
          hintmask 11110000
          17 59 rlineto
          16 3 7 7 11 vvcurveto
          604 142 vlineto
          14 6 9 21 hvcurveto
          16 -9 callsubr
          endchar
        </CharString>
        <CharString name="uni0163">
          -200 -210 49 155 72 -46 -21 452 72 hstemhm
          91 84 22 66 hintmask 00000000
          hintmask 11011000
          269 23 rmoveto
          10 -7 38 -14 vhcurveto
          -69 callgsubr
          hintmask 10111000
          -75 36 -30 38 -11 vhcurveto
          hintmask 11011100
          -22 -63 -1 -7 -57 callgsubr
          58 -49 9 -25 hvcurveto
          hintmask 11011000
          15 54 rlineto
          24 41 4 25 hvcurveto
          endchar
        </CharString>
        <CharString name="uni018F">
          62 -9 72 228 72 271 72 hstem
          48 88 259 90 vstem
          254 -9 rmoveto
          150 81 98 251 265 -80 101 -147 -106 -97 -46 -27 -11 20 -39 12 hvcurveto
          15 57 51 90 hhcurveto
          91 50 -66 -205 5 hvcurveto
          -315 hlineto
          -10 -22 -29 -12 -236 65 -95 141 hvcurveto
          2 72 rmoveto
          -83 -37 63 165 hvcurveto
          259 hlineto
          -171 -9 -49 -57 -81 hhcurveto
          endchar
        </CharString>
        <CharString name="uni01C4">
          586 88 callgsubr
          827 760 -105 callsubr
          -722 -760 rmoveto
          -50 callgsubr
          530 -42 callsubr
          -466 -19 callgsubr
          endchar
        </CharString>
        <CharString name="uni01C5">
          484 0 72 -72 76 375 72 60 142 -101 76 hstemhm
          78 91 263 92 hintmask 00000000
          hintmask 10110110
          747 583 -105 callsubr
          -642 -583 rmoveto
          168 hlineto
          148 103 90 260 hvcurveto
          hintmask 10101110
          259 -103 91 -148 vhcurveto
          -168 hlineto
          -19 -8 -9 -21 hvcurveto
          -640 vlineto
          hintmask 10110110
          -27 callgsubr
          hintmask 01101110
          64 -19 callgsubr
          hintmask 10101110
          360 -76 rmoveto
          -94 callgsubr
          endchar
        </CharString>
        <CharString name="uni01C6">
          388 -6 73 -67 72 379 72 -68 74 223 72 callsubr
          hintmask 00000000
          hintmask 10101110
          34 callgsubr
          hintmask 01011110
          -55 callgsubr
          hintmask 10101110
          76 callsubr
          vhcurveto
          475 589 -105 callsubr
          hintmask 01101110
          -144 -583 rmoveto
          -94 callgsubr
          hintmask 10011110
          -310 67 -23 callsubr
          endchar
        </CharString>
        <CharString name="uni01C7">
          147 -157 78 79 76 626 -20 hstem
          78 90 318 91 vstem
          105 hmoveto
          239 hlineto
          14 6 9 21 hvcurveto
          16 -9 callsubr
          -176 604 -12 callgsubr
          -650 38 callgsubr
          296 -157 rmoveto
          126 50 85 126 hvcurveto
          626 -50 callsubr
          -27 vhcurveto
          -14 hlineto
          -26 -12 -8 -14 hvcurveto
          -636 vlineto
          -86 -28 -37 -67 vhcurveto
          -26 -23 9 -8 hhcurveto
          -13 -10 -41 -14 -21 54 -11 36 hvcurveto
          endchar
        </CharString>
        <CharString name="uni01C8">
          159 -212 72 140 76 449 -20 102 95 hstemhm
          78 90 323 90 -88 84 hintmask 11111010
          105 hmoveto
          -59 callgsubr
          hintmask 11111100
          430 -77 callgsubr
          -67 -819 rmoveto
          hintmask 11111010
          -75 callgsubr
          hvcurveto
          hintmask 11111100
          114 callgsubr
          vhcurveto
          endchar
        </CharString>
        <CharString name="uni01C9">
          21 -212 72 134 72 -51 -21 531 -20 102 95 50 -20 hstemhm
          76 84 193 90 -88 84 hintmask 1011111010000000
          64 callgsubr
          hintmask 1101111010000000
          -58 callgsubr
          hintmask 1011111010000000
          99 callsubr
          hintmask 1011111100000000
          215 613 -105 callgsubr
          -67 -819 rmoveto
          hintmask 1011111010000000
          -75 callgsubr
          hvcurveto
          hintmask 1011111100000000
          114 callgsubr
          vhcurveto
          endchar
        </CharString>
        <CharString name="uni01CA">
          447 -6 78 -53 119 callsubr
          73 88 268 88 257 91 hintmask 00000000
          hintmask 01111100
          -63 callgsubr
          hintmask 10111100
          578 -4 -56 callsubr
        </CharString>
        <CharString name="uni01CB">
          341 111 callgsubr
          73 88 268 88 156 90 -88 84 hintmask 11111101
          -63 callgsubr
          hintmask 11111110
          606 609 -105 callgsubr
          -67 -819 rmoveto
          hintmask 11111101
          -75 callgsubr
          hvcurveto
          hintmask 11111110
          114 callgsubr
          vhcurveto
          endchar
        </CharString>
        <CharString name="uni01CC">
          233 -212 72 159 101 callgsubr
          -4 -20 102 95 hstemhm
          78 86 163 87 151 90 -88 84 hintmask 0000000000000000
          hintmask 1110111100000000
          609 -77 callgsubr
          -494 -609 -94 callsubr
          427 -210 rmoveto
          hintmask 1101111010000000
          -75 callgsubr
          hvcurveto
          hintmask 1110111100000000
          114 callgsubr
          vhcurveto
          endchar
        </CharString>
        <CharString name="uni01EA">
          101 -178 63 109 58 callsubr
          hstem
          49 93 152 61 103 92 vstem
          445 -108 rmoveto
          -7 callsubr
          19 7 29 17 29 hvcurveto
          111 34 60 113 200 vvcurveto
          243 -89 111 -162 8 callsubr
          vhcurveto
          18 hlineto
          -17 -31 -6 -33 -20 -52 callgsubr
          -303 460 rmoveto
          193 55 85 103 102 56 -85 -193 -193 -56 -89 -102 -103 -55 89 193 vhcurveto
          endchar
        </CharString>
        <CharString name="uni01EB">
          -21 -187 63 118 57 callgsubr
          hstem
          47 89 62 61 83 88 vstem
          349 -117 rmoveto
          -7 callsubr
          20 8 30 17 29 hvcurveto
          96 20 50 90 151 vvcurveto
          63 callgsubr
          -166 62 -92 117 -7 vhcurveto
          -21 -34 -7 -37 -22 -52 callgsubr
          -213 378 rmoveto
          134 31 62 71 71 33 -63 -133 -133 -33 -62 -71 -71 -31 62 133 vhcurveto
          endchar
        </CharString>
        <CharString name="uni01F1">
          586 98 callsubr
          hstem
          78 91 263 92 vstem
          105 hmoveto
          -50 callgsubr
          530 -42 callsubr
          -466 -19 callgsubr
          endchar
        </CharString>
        <CharString name="uni01F2">
          484 0 72 -72 76 375 72 101 76 hstemhm
          78 91 263 92 hintmask 10111100
          105 hmoveto
          -50 callgsubr
          hintmask 01111100
          64 -19 callgsubr
          hintmask 10111100
          360 -76 rmoveto
          -94 callgsubr
          endchar
        </CharString>
        <CharString name="uni01F3">
          388 -6 73 -67 72 379 72 -68 74 223 72 callsubr
          hintmask 00000000
          hintmask 10101110
          34 callgsubr
          hintmask 01011110
          -55 callgsubr
          hintmask 10101110
          76 callsubr
          vhcurveto
          hintmask 01101110
          331 6 rmoveto
          -94 callgsubr
          hintmask 10011110
          -310 67 -23 callsubr
          endchar
        </CharString>
        <CharString name="uni021A">
          -44 78 callgsubr
          626 76 hstemhm
          183 90 -89 83 hintmask 11110000
          221 -2 -47 callgsubr
          hintmask 11101000
          -38 -233 -80 callgsubr
          endchar
        </CharString>
        <CharString name="uni021B">
          -200 -214 -21 229 72 385 72 hstemhm
          91 84 -35 83 hintmask 11110000
          203 -6 rmoveto
          54 callsubr
          hvcurveto
          -69 callgsubr
          -102 67 -19 45 vhcurveto
          hintmask 11101000
          -64 -229 -80 callgsubr
          endchar
        </CharString>
        <CharString name="uni0237">
          -249 -212 72 665 -20 hstem
          85 84 vstem
          60 -212 rmoveto
          -75 callgsubr
          114 callgsubr
          hvcurveto
          endchar
        </CharString>
        <CharString name="uni0259">
          -58 -6 72 158 44 callsubr
          hstem
          27 89 193 90 vstem
          190 529 rmoveto
          -85 -66 -40 -24 -11 21 -39 14 hvcurveto
          10 31 42 76 hhcurveto
          80 32 -50 -111 6 hvcurveto
          -249 hlineto
          -12 -21 -29 -12 -170 59 -91 116 130 67 94 177 179 -68 85 -141 hvcurveto
          119 -305 rmoveto
          -105 -5 -34 -53 -65 hhcurveto
          -59 -30 53 105 hvcurveto
          endchar
        </CharString>
        <CharString name="uni02BC">
          -408 537 184 hstem
          14 83 vstem
          13 537 -80 callgsubr
          endchar
        </CharString>
        <CharString name="uni02C9">
          -242 612 70 hstem
          8 237 vstem
          27 612 -84 callsubr
          endchar
        </CharString>
        <CharString name="uni0302">
          -498 576 142 hstem
          -107 217 vstem
          -88 576 -107 callgsubr
          endchar
        </CharString>
        <CharString name="uni0304">
          -498 612 70 hstem
          -121 237 vstem
          -102 612 -84 callsubr
          endchar
        </CharString>
        <CharString name="uni0306">
          -498 585 66 hstem
          -116 233 vstem
          1 -82 callgsubr
          endchar
        </CharString>
        <CharString name="uni0307">
          -498 607 95 hstem
          -44 90 vstem
          607 vmoveto
          33 13 9 13 hvcurveto
          112 callgsubr
          -33 -13 -9 -13 vhcurveto
          113 callsubr
          vhcurveto
          endchar
        </CharString>
        <CharString name="uni0308">
          -498 607 95 hstem
          -103 78 48 78 vstem
          -65 607 -99 callgsubr
          endchar
        </CharString>
        <CharString name="uni030A">
          -498 564 35 99 35 hstem
          -82 36 94 37 vstem
          1 -14 callgsubr
          endchar
        </CharString>
        <CharString name="uni030B">
          -498 100 callgsubr
          -121 275 vstem
          -100 585 -83 callsubr
          endchar
        </CharString>
        <CharString name="uni030C">
          -498 583 142 hstem
          -104 217 vstem
          -3 583 -105 callsubr
          endchar
        </CharString>
        <CharString name="uni0326">
          -498 -214 -21 hstem
          -172 83 vstem
          -173 -235 -80 callgsubr
          endchar
        </CharString>
        <CharString name="uni0327">
          -498 -210 49 hstem
          14 66 vstem
          6 -60 rmoveto
          17 60 rlineto
          -41 hlineto
          -22 -64 -1 -7 -57 callgsubr
          58 -49 9 -25 hvcurveto
          endchar
        </CharString>
        <CharString name="uni0394">
          83 -13 callsubr
        </CharString>
        <CharString name="uni03A9">
          101 -41 callgsubr
        </CharString>
        <CharString name="uni03BC">
          -31 -31 callgsubr
        </CharString>
        <CharString name="uni1E0C">
          79 -175 95 80 76 548 76 hstem
          78 91 62 90 111 92 vstem
          105 hmoveto
          -50 callgsubr
          64 -19 callgsubr
          4 -251 -105 callgsubr
          endchar
        </CharString>
        <CharString name="uni1E0D">
          -17 -175 95 74 73 -47 -21 456 74 223 -20 hstemhm
          47 89 54 90 38 86 hintmask 11011111
          34 callgsubr
          hintmask 10111111
          -55 callgsubr
          hintmask 11011111
          76 callsubr
          vhcurveto
          21 73 -23 callsubr
          9 -242 -105 callgsubr
          endchar
        </CharString>
        <CharString name="uni1E24">
          103 -175 95 99 -21 323 76 305 -20 hstem
          78 90 90 90 83 -10 callsubr
          186 -173 -105 callgsubr
          endchar
        </CharString>
        <CharString name="uni1E25">
          -13 -175 95 99 101 callgsubr
          223 -20 hstem
          81 86 37 90 37 86 vstem
          119 -2 -48 callsubr
          129 -173 -105 callgsubr
          endchar
        </CharString>
        <CharString name="uni1E44">
          92 10 callsubr
          102 95 hstem
          73 88 90 90 88 88 vstem
          295 784 -105 callgsubr
          -184 -786 -101 callgsubr
          endchar
        </CharString>
        <CharString name="uni1E45">
          100 callsubr
          78 95 hstem
          78 86 36 90 37 87 vstem
          244 -77 callgsubr
          -129 -609 -94 callsubr
          endchar
        </CharString>
</ttFont>
